<?xml version="1.0" encoding="UTF-8" standalone="no"?>
<svg
   xmlns:dc="http://purl.org/dc/elements/1.1/"
   xmlns:cc="http://creativecommons.org/ns#"
   xmlns:rdf="http://www.w3.org/1999/02/22-rdf-syntax-ns#"
   xmlns:svg="http://www.w3.org/2000/svg"
   xmlns="http://www.w3.org/2000/svg"
   id="svg7276"
   version="1.1"
   height="139.16597mm"
   width="124.93137mm"
   viewBox="0 0 472.18151 525.98162">
  <metadata
     id="metadata7280">
    <rdf:RDF>
      <cc:Work
         rdf:about="">
        <dc:format>image/svg+xml</dc:format>
        <dc:type
           rdf:resource="http://purl.org/dc/dcmitype/StillImage" />
        <dc:title></dc:title>
      </cc:Work>
    </rdf:RDF>
  </metadata>
  <defs
     id="defs14">
    <marker
       style="overflow:visible"
       refY="0"
       refX="0"
       orient="auto"
       id="DistanceX">
      <path
         id="path2"
         style="stroke:#000000;stroke-width:0.5"
         d="M 3,-3 -3,3 M 0,-5 V 5" />
    </marker>
    <pattern
       y="0"
       x="0"
       height="8"
       width="8"
       patternUnits="userSpaceOnUse"
       id="Hatch">
      <path
         id="path5"
         linecap="square"
         stroke-width="0.25"
         stroke="#000000"
         d="M8 4 l-4,4" />
      <path
         id="path7"
         linecap="square"
         stroke-width="0.25"
         stroke="#000000"
         d="M6 2 l-4,4" />
      <path
         id="path9"
         linecap="square"
         stroke-width="0.25"
         stroke="#000000"
         d="M4 0 l-4,4" />
    </pattern>
    <symbol
       id="*Model_Space" />
    <symbol
       id="*Paper_Space" />
  </defs>
  <g
     transform="translate(-680.31496,-113.38583)"
     id="g16" />
  <g
     transform="translate(-680.31496,-113.38583)"
     id="g7272">
    <g
       transform="matrix(1.1904161,0,0,1.1842076,1023.0428,-243.80304)"
       id="g1235"
       style="stroke:#0000ff;stroke-width:0.636735;stroke-miterlimit:4;stroke-dasharray:none;stroke-opacity:1" />
    <g
       id="g1545">
      <g
         id="g1043"
         style="stroke:#0000ff;stroke-width:0.756;stroke-miterlimit:4;stroke-dasharray:none;stroke-opacity:1"
         transform="matrix(1.0190549,0,0,1.0167782,560.0613,-6.5284208)">
        <path
           d="m 151.68551,158.98208 -0.004,0.25808 m 0.0172,-0.51585 -0.0132,0.25777 m 0.0352,-0.51494 -0.022,0.25717 m 0.0528,-0.51344 -0.0308,0.25627 m 0.0703,-0.51135 -0.0395,0.25508 m 0.0877,-0.50865 -0.0482,0.25357 m 0.10502,-0.50535 -0.0568,0.25178 m 0.12218,-0.50147 -0.0654,0.24969 m 0.13927,-0.49701 -0.0739,0.24732 m 0.15617,-0.49197 -0.0823,0.24465 m 0.17288,-0.48635 -0.0906,0.2417 m 0.18938,-0.48016 -0.0988,0.23846 m 0.20565,-0.47341 -0.10685,0.23495 m 0.22167,-0.46612 -0.11482,0.23117 m 0.23747,-0.45828 -0.12265,0.22711 m 0.25297,-0.44991 -0.13032,0.2228 m 0.26818,-0.44101 -0.13786,0.21821 m 0.28309,-0.43159 -0.14523,0.21338 m 0.29765,-0.42168 -0.15242,0.2083 m 0.31187,-0.41127 -0.15945,0.20297 m 0.32574,-0.40038 -0.16629,0.19741 m 0.33922,-0.38903 -0.17293,0.19162 m 0.3523,-0.37722 -0.17937,0.1856 m 0.36497,-0.36497 -0.1856,0.17937 m 0.37722,-0.3523 -0.19162,0.17293 m 0.38903,-0.33922 -0.19741,0.16629 m 0.40038,-0.32574 -0.20297,0.15945 m 0.41127,-0.31187 -0.2083,0.15242 m 0.42168,-0.29765 -0.21338,0.14523 m 0.43159,-0.28309 -0.21821,0.13786 m 0.44101,-0.26818 -0.2228,0.13032 m 0.44991,-0.25297 -0.22711,0.12265 m 0.45828,-0.23747 -0.23117,0.11482 m 0.46612,-0.22167 -0.23495,0.10685 m 0.47341,-0.20563 -0.23846,0.0988 m 0.48016,-0.18938 -0.2417,0.0906 m 0.48635,-0.17287 -0.24465,0.0823 m 0.49197,-0.15617 -0.24732,0.0739 m 0.49701,-0.13928 -0.24969,0.0654 m 0.50147,-0.12222 -0.25178,0.0568 m 0.50535,-0.105 -0.25357,0.0482 m 0.50864,-0.0877 -0.25507,0.0395 m 0.51135,-0.0703 -0.25628,0.0308 m 0.51345,-0.0528 -0.25717,0.022 m 0.51494,-0.0352 -0.25777,0.0132 m 0.51585,-0.0176 -0.25808,0.004 m 381.13997,-0.004 H 159.24016 m 381.13996,0.004 -0.25807,-0.004 m 0.51584,0.0172 -0.25777,-0.0132 m 0.51495,0.0352 -0.25718,-0.022 m 0.51345,0.0528 -0.25627,-0.0308 m 0.51134,0.0703 -0.25507,-0.0395 m 0.50864,0.0877 -0.25357,-0.0482 m 0.50535,0.10502 -0.25178,-0.0568 m 0.50147,0.12218 -0.24969,-0.0654 m 0.49701,0.13927 -0.24732,-0.0739 m 0.49197,0.15617 -0.24465,-0.0823 m 0.48635,0.17288 -0.2417,-0.0906 m 0.48016,0.18938 -0.23846,-0.0988 m 0.47341,0.20565 -0.23495,-0.10685 m 0.46612,0.22167 -0.23117,-0.11482 m 0.45829,0.23747 -0.22712,-0.12265 m 0.44991,0.25297 -0.22279,-0.13032 m 0.441,0.26818 -0.21821,-0.13786 m 0.43159,0.28309 -0.21338,-0.14523 m 0.42168,0.29765 -0.2083,-0.15242 m 0.41127,0.31187 -0.20297,-0.15945 m 0.40038,0.32574 -0.19741,-0.16629 m 0.38903,0.33922 -0.19162,-0.17293 m 0.37722,0.3523 -0.1856,-0.17937 m 0.36498,0.36497 -0.17938,-0.1856 m 0.3523,0.37722 -0.17292,-0.19162 m 0.33921,0.38903 -0.16629,-0.19741 m 0.32574,0.40038 -0.15945,-0.20297 m 0.31188,0.41127 -0.15243,-0.2083 m 0.29765,0.42168 -0.14522,-0.21338 m 0.28308,0.43159 -0.13786,-0.21821 m 0.26819,0.44101 -0.13033,-0.2228 m 0.25297,0.44991 -0.12264,-0.22711 m 0.23746,0.45828 -0.11482,-0.23117 m 0.22168,0.46612 -0.10686,-0.23495 m 0.20563,0.47341 -0.0988,-0.23846 m 0.18938,0.48016 -0.0906,-0.2417 m 0.17287,0.48635 -0.0823,-0.24465 m 0.15617,0.49197 -0.0739,-0.24732 m 0.13928,0.49701 -0.0654,-0.24969 m 0.12223,0.50147 -0.0568,-0.25178 m 0.10499,0.50535 -0.0482,-0.25357 m 0.0877,0.50865 -0.0395,-0.25508 m 0.0703,0.51135 -0.0308,-0.25627 m 0.0528,0.51344 -0.022,-0.25717 m 0.0352,0.51494 -0.0132,-0.25777 m 0.0176,0.51585 -0.004,-0.25808 m 0.004,434.95099 V 159.24016 m -0.004,434.95098 0.004,-0.25807 m -0.0172,0.51585 0.0132,-0.25778 m -0.0352,0.51495 0.022,-0.25717 m -0.0528,0.51344 0.0308,-0.25627 m -0.0703,0.51134 0.0395,-0.25507 m -0.0877,0.50864 0.0482,-0.25357 m -0.10503,0.50535 0.0568,-0.25178 m -0.12218,0.50148 0.0654,-0.2497 m -0.13927,0.49701 0.0739,-0.24731 m -0.15617,0.49196 0.0823,-0.24465 m -0.17288,0.48635 0.0906,-0.2417 m -0.18937,0.48017 0.0988,-0.23847 m -0.20566,0.47342 0.10686,-0.23495 m -0.22168,0.46612 0.11482,-0.23117 m -0.23746,0.45828 0.12264,-0.22711 m -0.25297,0.4499 0.13033,-0.22279 m -0.26819,0.44101 0.13786,-0.21822 m -0.28308,0.4316 0.14522,-0.21338 m -0.29765,0.42168 0.15243,-0.2083 m -0.31188,0.41127 0.15945,-0.20297 m -0.32574,0.40038 0.16629,-0.19741 m -0.33921,0.38903 0.17292,-0.19162 m -0.3523,0.37722 0.17938,-0.1856 m -0.36498,0.36497 0.1856,-0.17937 m -0.37722,0.3523 0.19162,-0.17293 m -0.38903,0.33921 0.19741,-0.16628 m -0.40038,0.32573 0.20297,-0.15945 m -0.41127,0.31188 0.2083,-0.15243 m -0.42168,0.29766 0.21338,-0.14523 m -0.43159,0.28308 0.21821,-0.13785 m -0.441,0.26818 0.22279,-0.13033 m -0.44991,0.25297 0.22712,-0.12264 m -0.45829,0.23746 0.23117,-0.11482 m -0.46612,0.22168 0.23495,-0.10686 m -0.47341,0.20564 0.23846,-0.0988 m -0.48016,0.18937 0.2417,-0.0906 m -0.48635,0.17287 0.24465,-0.0823 m -0.49197,0.15617 0.24732,-0.0739 m -0.49701,0.13929 0.24969,-0.0654 m -0.50147,0.12222 0.25178,-0.0568 m -0.50535,0.10499 0.25357,-0.0482 m -0.50864,0.0877 0.25507,-0.0395 m -0.51134,0.0703 0.25627,-0.0308 m -0.51345,0.0528 0.25718,-0.022 m -0.51495,0.0352 0.25777,-0.0132 m -0.51584,0.0176 0.25807,-0.004 m -381.13996,0.004 h 380.88189 m -381.13997,-0.004 0.25808,0.004 m -0.51585,-0.0172 0.25777,0.0132 m -0.51494,-0.0352 0.25717,0.022 m -0.51345,-0.0528 0.25628,0.0308 m -0.51135,-0.0703 0.25507,0.0395 m -0.50864,-0.0877 0.25357,0.0482 m -0.50535,-0.10502 0.25178,0.0568 m -0.50147,-0.12219 0.24969,0.0654 m -0.49701,-0.13927 0.24732,0.0739 m -0.49197,-0.15617 0.24465,0.0823 m -0.48635,-0.17287 0.2417,0.0906 m -0.48016,-0.18938 0.23846,0.0988 m -0.47341,-0.20566 0.23495,0.10686 m -0.46612,-0.22168 0.23117,0.11482 m -0.45828,-0.23746 0.22711,0.12264 m -0.44991,-0.25297 0.2228,0.13033 m -0.44101,-0.26818 0.21821,0.13785 m -0.43159,-0.28308 0.21338,0.14523 m -0.42168,-0.29766 0.2083,0.15243 m -0.41127,-0.31188 0.20297,0.15945 m -0.40038,-0.32573 0.19741,0.16628 m -0.38903,-0.33921 0.19162,0.17293 m -0.37722,-0.3523 0.1856,0.17937 m -0.36497,-0.36497 0.17937,0.1856 m -0.3523,-0.37722 0.17293,0.19162 m -0.33922,-0.38903 0.16629,0.19741 m -0.32574,-0.40038 0.15945,0.20297 m -0.31187,-0.41127 0.15242,0.2083 m -0.29765,-0.42168 0.14523,0.21338 m -0.28309,-0.4316 0.13786,0.21822 m -0.26818,-0.44101 0.13032,0.22279 m -0.25297,-0.4499 0.12265,0.22711 m -0.23747,-0.45828 0.11482,0.23117 m -0.22167,-0.46612 0.10685,0.23495 m -0.20563,-0.47342 0.0988,0.23847 m -0.18938,-0.48017 0.0906,0.2417 m -0.17287,-0.48635 0.0823,0.24465 m -0.15617,-0.49196 0.0739,0.24731 m -0.13928,-0.49701 0.0654,0.2497 m -0.12222,-0.50148 0.0568,0.25178 m -0.105,-0.50535 0.0482,0.25357 m -0.0877,-0.50864 0.0395,0.25507 m -0.0703,-0.51134 0.0308,0.25627 m -0.0528,-0.51344 0.022,0.25717 m -0.0352,-0.51495 0.0132,0.25778 m -0.0176,-0.51585 0.004,0.25807 m -0.004,-434.95098 v 434.69291"
           style="fill:none;stroke:#0000ff;stroke-width:0.756;stroke-linecap:round;stroke-miterlimit:4;stroke-dasharray:none;stroke-opacity:1"
           id="path1041" />
      </g>
      <g
         transform="matrix(1.1904161,0,0,1.1842076,456.11362,-243.80304)"
         id="g1047"
         style="stroke:#0000ff;stroke-width:0.636735;stroke-miterlimit:4;stroke-dasharray:none;stroke-opacity:1">
        <path
           d="m -325.25964,584.67279 -396.89587,-2.5e-4 c -12.87727,0 -23.31637,-10.3832 -23.31637,-23.19152 l 2.6e-4,-349.62926 c 0,-12.81011 10.43764,-23.19476 23.31311,-23.19476 l 396.89687,2.4e-4 c 12.87728,0 23.31637,10.3832 23.31637,23.19153 l -0.001,349.62925 c 0,12.81012 -10.43763,23.19477 -23.31311,23.19477 z"
           transform="rotate(-90)"
           style="color:#000000;overflow:visible;fill:none;stroke:#0000ff;stroke-width:0.636735;stroke-linecap:round;stroke-linejoin:round;stroke-miterlimit:4;stroke-dasharray:none"
           id="path1045" />
      </g>
      <g
         transform="translate(566.72444,-0.20997534)"
         id="g1311"
         style="stroke:#808080;stroke-width:0.756;stroke-miterlimit:4;stroke-dasharray:none;stroke-opacity:1" />
      <path
         d="m 711.50028,137.27908 0.005,-0.2623 m -0.0186,0.5244 0.0136,-0.2621 m -0.0364,0.5235 0.0228,-0.2614 m -0.0546,0.5219 0.0318,-0.2605 m -0.0726,0.5196 0.0408,-0.2591 m -0.0906,0.5168 0.0498,-0.2577 m -0.10848,0.5134 0.0587,-0.2557 m -0.12627,0.5093 0.0676,-0.2536 m -0.14389,0.5046 0.0763,-0.251 m -0.16126,0.4993 0.085,-0.2483 m -0.17854,0.4934 0.0935,-0.2451 m -0.19549,0.4869 0.10199,-0.2418 m -0.21231,0.4798 0.11032,-0.238 m -0.22885,0.4722 0.11853,-0.2342 m -0.24509,0.464 0.12656,-0.2298 m -0.26102,0.455 0.13446,-0.2252 m -0.27667,0.4458 0.14221,-0.2206 m -0.29199,0.4361 0.14978,-0.2155 m -0.30694,0.4256 0.15716,-0.2101 m -0.32153,0.4146 0.16437,-0.2045 m -0.33573,0.4032 0.17136,-0.1987 m -0.34949,0.3914 0.17813,-0.1927 m -0.36288,0.379 0.18475,-0.1863 m -0.37582,0.3661 0.19107,-0.1798 m -0.38828,0.3529 0.19721,-0.1731 m -0.40033,0.3392 0.20312,-0.1661 m -0.41186,0.3251 0.20874,-0.159 m -0.42285,0.3106 0.21411,-0.1516 m -0.43341,0.2957 0.2193,-0.1441 m -0.44343,0.2806 0.22413,-0.1365 m -0.45285,0.2651 0.22872,-0.1286 m -0.46179,0.249 0.23307,-0.1204 m -0.47019,0.2329 0.23712,-0.1125 m -0.47796,0.2165 0.24084,-0.104 m -0.4852,0.1997 0.24436,-0.096 m -0.49186,0.1831 0.2475,-0.087 m -0.49789,0.1655 0.25039,-0.078 m -0.50332,0.1477 0.25293,-0.07 m -0.50815,0.1309 0.25522,-0.061 m -0.51239,0.113 0.25717,-0.052 m -0.51602,0.095 0.25885,-0.043 m -0.51901,0.077 0.26016,-0.034 m -0.52136,0.059 0.2612,-0.025 m -0.52311,0.041 0.26191,-0.016 m -0.5242,0.023 0.26229,-0.01 m -0.52468,0.01 h 0.26239 m -0.52454,-0.011 0.26215,0.011 m -0.52372,-0.032 0.26157,0.021 m -0.52231,-0.051 0.26074,0.03 m -0.52026,-0.069 0.25952,0.039 m -0.51758,-0.087 0.25806,0.048 m -0.51428,-0.1044 0.25622,0.056 m -0.51034,-0.1214 0.25412,0.065 m -0.50583,-0.1391 0.25171,0.074 m -0.5007,-0.1568 0.24899,0.083 m -0.49494,-0.1744 0.24595,0.091 m -0.48859,-0.1908 0.24264,0.1 m -0.48165,-0.2083 0.23901,0.1083 m -0.47415,-0.2248 0.23514,0.1165 m -0.46607,-0.2411 0.23093,0.1246 m -0.4574,-0.257 0.22647,0.1324 m -0.44821,-0.2727 0.22174,0.1403 m -0.43848,-0.2883 0.21674,0.148 m -0.42822,-0.3034 0.21148,0.1554 m -0.41742,-0.3178 0.20594,0.1624 m -0.40613,-0.3321 0.20019,0.1697 m -0.39437,-0.3462 0.19418,0.1765 m -0.38211,-0.3596 0.18793,0.1831 m -0.36939,-0.3726 0.18146,0.1895 m -0.35623,-0.3852 0.17477,0.1957 m -0.34268,-0.3973 0.16791,0.2016 m -0.32868,-0.409 0.16077,0.2074 m -0.31427,-0.4202 0.1535,0.2128 m -0.29953,-0.4308 0.14603,0.218 m -0.28438,-0.441 0.13835,0.223 m -0.26889,-0.4506 0.13054,0.2276 m -0.2531,-0.4596 0.12256,0.232 m -0.23698,-0.4681 0.11442,0.2361 m -0.22059,-0.4761 0.10617,0.24 m -0.20395,-0.4835 0.0978,0.2435 m -0.18707,-0.4902 0.0893,0.2467 m -0.16995,-0.4964 0.0806,0.2497 m -0.15253,-0.502 0.0719,0.2523 m -0.13503,-0.507 0.0631,0.2547 m -0.11737,-0.5115 0.0543,0.2568 m -0.0996,-0.5152 0.0453,0.2584 m -0.0816,-0.5183 0.0363,0.2599 m -0.0636,-0.5208 0.0273,0.2609 m -0.0455,-0.5227 0.0182,0.2618 m -0.0273,-0.524 0.009,0.2622 m -0.009,-0.5246 v 0.2624 m 0.009,-0.5246 -0.009,0.2622 m 0.0272,-0.524 -0.0182,0.2618 m 0.0455,-0.5227 -0.0273,0.2609 m 0.0636,-0.5208 -0.0363,0.2599 m 0.0816,-0.5183 -0.0453,0.2584 m 0.0996,-0.5152 -0.0543,0.2568 m 0.11743,-0.5114 -0.0631,0.2546 m 0.13503,-0.507 -0.0719,0.2524 m 0.15255,-0.5021 -0.0806,0.2497 m 0.16987,-0.4964 -0.0893,0.2467 m 0.18708,-0.4902 -0.0978,0.2435 m 0.20397,-0.4835 -0.10617,0.24 m 0.22059,-0.4761 -0.11442,0.2361 m 0.23698,-0.4681 -0.12256,0.232 m 0.2531,-0.4596 -0.13054,0.2276 m 0.26889,-0.4506 -0.13835,0.223 m 0.28438,-0.441 -0.14603,0.218 m 0.29953,-0.4308 -0.1535,0.2128 m 0.31427,-0.4202 -0.16077,0.2074 m 0.32868,-0.409 -0.16791,0.2016 m 0.34268,-0.3973 -0.17477,0.1957 m 0.35623,-0.3852 -0.18146,0.1895 m 0.36939,-0.3726 -0.18793,0.1831 m 0.38211,-0.3596 -0.19418,0.1765 m 0.39437,-0.3462 -0.20019,0.1697 m 0.40613,-0.3321 -0.20594,0.1624 m 0.41742,-0.3178 -0.21148,0.1554 m 0.42822,-0.3033 -0.21674,0.1479 m 0.43848,-0.2883 -0.22174,0.1404 m 0.44821,-0.2728 -0.22647,0.1324 m 0.4574,-0.257 -0.23093,0.1246 m 0.46607,-0.2411 -0.23514,0.1165 m 0.47415,-0.2248 -0.23901,0.1083 m 0.48165,-0.2081 -0.24264,0.1 m 0.48859,-0.1914 -0.24595,0.091 m 0.49494,-0.1738 -0.24899,0.083 m 0.5007,-0.1571 -0.25171,0.074 m 0.50583,-0.1394 -0.25412,0.065 m 0.51034,-0.1214 -0.25622,0.056 m 0.51428,-0.1036 -0.25806,0.048 m 0.51758,-0.087 -0.25952,0.039 m 0.52026,-0.069 -0.26074,0.03 m 0.52231,-0.05 -0.26157,0.02 m 0.52372,-0.031 -0.26215,0.011 m 0.52454,-0.013 h -0.26239 m 0.52468,0.01 -0.26229,-0.01 m 0.5242,0.026 -0.26191,-0.016 m 0.52311,0.041 -0.2612,-0.025 m 0.52136,0.059 -0.26016,-0.034 m 0.51901,0.077 -0.25885,-0.043 m 0.51602,0.095 -0.25717,-0.052 m 0.51239,0.1129 -0.25522,-0.061 m 0.50815,0.1307 -0.25293,-0.07 m 0.50332,0.1485 -0.25039,-0.078 m 0.49789,0.1651 -0.2475,-0.087 m 0.49186,0.1827 -0.24436,-0.096 m 0.4852,0.2 -0.24084,-0.104 m 0.47796,0.2165 -0.23712,-0.1125 m 0.47019,0.2329 -0.23307,-0.1204 m 0.46179,0.2491 -0.22872,-0.1287 m 0.45285,0.2651 -0.22413,-0.1364 m 0.44343,0.2805 -0.2193,-0.1441 m 0.43341,0.2957 -0.21411,-0.1516 m 0.42285,0.3106 -0.20874,-0.159 m 0.41186,0.3251 -0.20312,-0.1661 m 0.40033,0.3392 -0.19721,-0.1731 m 0.38828,0.3529 -0.19107,-0.1798 m 0.37582,0.3662 -0.18475,-0.1864 m 0.36288,0.379 -0.17813,-0.1926 m 0.34949,0.3913 -0.17136,-0.1987 m 0.33573,0.4032 -0.16437,-0.2045 m 0.32153,0.4146 -0.15716,-0.2101 m 0.30694,0.4256 -0.14978,-0.2155 m 0.29199,0.4361 -0.14221,-0.2206 m 0.27667,0.4458 -0.13446,-0.2252 m 0.26102,0.455 -0.12656,-0.2298 m 0.24509,0.464 -0.11853,-0.2342 m 0.22885,0.4722 -0.11032,-0.238 m 0.21231,0.4798 -0.10199,-0.2418 m 0.19553,0.4869 -0.0935,-0.2451 m 0.17846,0.4934 -0.085,-0.2483 m 0.16129,0.4993 -0.0763,-0.251 m 0.14387,0.5046 -0.0676,-0.2536 m 0.12628,0.5093 -0.0587,-0.2557 m 0.10851,0.5134 -0.0498,-0.2577 m 0.0906,0.5168 -0.0408,-0.2591 m 0.0726,0.5196 -0.0318,-0.2605 m 0.0546,0.5219 -0.0228,-0.2614 m 0.0364,0.5235 -0.0136,-0.2621 m 0.0182,0.5244 -0.005,-0.2623"
         style="fill:none;stroke:#0000ff;stroke-width:0.755906;stroke-miterlimit:4;stroke-dasharray:none;stroke-opacity:1"
         id="line1450-1" />
      <path
         id="path25297"
         style="fill:none;stroke:#0000ff;stroke-width:0.755906;stroke-miterlimit:4;stroke-dasharray:none;stroke-opacity:1"
         d="m 1136.4183,137.27908 v -0.2623 m -0.019,0.5244 0.014,-0.2621 m -0.036,0.5235 0.023,-0.2614 m -0.055,0.5219 0.032,-0.2605 m -0.073,0.5196 0.041,-0.2591 m -0.091,0.5168 0.05,-0.2577 m -0.1085,0.5134 0.059,-0.2557 m -0.1263,0.5093 0.068,-0.2536 m -0.1439,0.5046 0.076,-0.251 m -0.1612,0.4993 0.085,-0.2483 m -0.1786,0.4934 0.093,-0.2451 m -0.1955,0.4869 0.102,-0.2418 m -0.2123,0.4798 0.1103,-0.238 m -0.2288,0.4722 0.1185,-0.2342 m -0.2451,0.464 0.1266,-0.2298 m -0.261,0.455 0.1344,-0.2252 m -0.2766,0.4458 0.1422,-0.2206 m -0.292,0.4361 0.1498,-0.2155 m -0.307,0.4256 0.1572,-0.2101 m -0.3215,0.4146 0.1643,-0.2045 m -0.3357,0.4032 0.1714,-0.1987 m -0.3495,0.3914 0.1781,-0.1927 m -0.3629,0.379 0.1848,-0.1863 m -0.3759,0.3661 0.1911,-0.1798 m -0.3883,0.3529 0.1972,-0.1731 m -0.4003,0.3392 0.2031,-0.1661 m -0.4118,0.3251 0.2087,-0.159 m -0.4228,0.3106 0.2141,-0.1516 m -0.4334,0.2957 0.2193,-0.1441 m -0.4435,0.2806 0.2242,-0.1365 m -0.4529,0.2651 0.2287,-0.1286 m -0.4618,0.249 0.2331,-0.1204 m -0.4702,0.2329 0.2371,-0.1125 m -0.4779,0.2165 0.2408,-0.104 m -0.4852,0.1997 0.2444,-0.096 m -0.4919,0.1831 0.2475,-0.087 m -0.4979,0.1655 0.2504,-0.078 m -0.5033,0.1477 0.2529,-0.07 m -0.5081,0.1309 0.2552,-0.061 m -0.5124,0.113 0.2572,-0.052 m -0.516,0.095 0.2588,-0.043 m -0.519,0.077 0.2602,-0.034 m -0.5214,0.059 0.2612,-0.025 m -0.5231,0.041 0.2619,-0.016 m -0.5242,0.023 0.2623,-0.01 m -0.5247,0.01 h 0.2624 m -0.5245,-0.011 0.2621,0.011 m -0.5237,-0.032 0.2616,0.021 m -0.5223,-0.051 0.2607,0.03 m -0.5203,-0.069 0.2596,0.039 m -0.5176,-0.087 0.258,0.048 m -0.5142,-0.1044 0.2562,0.056 m -0.5104,-0.1214 0.2542,0.065 m -0.5059,-0.1391 0.2517,0.074 m -0.5007,-0.1568 0.249,0.083 m -0.4949,-0.1744 0.2459,0.091 m -0.4886,-0.1908 0.2427,0.1 m -0.4817,-0.2083 0.239,0.1083 m -0.4741,-0.2248 0.2351,0.1165 m -0.466,-0.2411 0.2309,0.1246 m -0.4574,-0.257 0.2265,0.1324 m -0.4482,-0.2727 0.2217,0.1403 m -0.4385,-0.2883 0.2168,0.148 m -0.4283,-0.3034 0.2115,0.1554 m -0.4174,-0.3178 0.2059,0.1624 m -0.4061,-0.3321 0.2002,0.1697 m -0.3944,-0.3462 0.1942,0.1765 m -0.3821,-0.3596 0.1879,0.1831 m -0.3694,-0.3726 0.1815,0.1895 m -0.3562,-0.3852 0.1747,0.1957 m -0.3426,-0.3973 0.1679,0.2016 m -0.3287,-0.409 0.1608,0.2074 m -0.3143,-0.4202 0.1535,0.2128 m -0.2995,-0.4308 0.146,0.218 m -0.2844,-0.441 0.1384,0.223 m -0.2689,-0.4506 0.1305,0.2276 m -0.2531,-0.4596 0.1226,0.232 m -0.237,-0.4681 0.1144,0.2361 m -0.2206,-0.4761 0.1062,0.24 m -0.204,-0.4835 0.098,0.2435 m -0.187,-0.4902 0.089,0.2467 m -0.17,-0.4964 0.081,0.2497 m -0.1525,-0.502 0.072,0.2523 m -0.135,-0.507 0.063,0.2547 m -0.1174,-0.5115 0.054,0.2568 m -0.1,-0.5152 0.045,0.2584 m -0.082,-0.5183 0.036,0.2599 m -0.064,-0.5208 0.027,0.2609 m -0.045,-0.5227 0.018,0.2618 m -0.027,-0.524 0.01,0.2622 m -0.01,-0.5246 v 0.2624 m 0.01,-0.5246 -0.01,0.2622 m 0.027,-0.524 -0.018,0.2618 m 0.045,-0.5227 -0.027,0.2609 m 0.064,-0.5208 -0.036,0.2599 m 0.082,-0.5183 -0.045,0.2584 m 0.1,-0.5152 -0.054,0.2568 m 0.1174,-0.5114 -0.063,0.2546 m 0.135,-0.507 -0.072,0.2524 m 0.1526,-0.5021 -0.081,0.2497 m 0.1699,-0.4964 -0.089,0.2467 m 0.187,-0.4902 -0.098,0.2435 m 0.204,-0.4835 -0.1062,0.24 m 0.2206,-0.4761 -0.1144,0.2361 m 0.237,-0.4681 -0.1226,0.232 m 0.2531,-0.4596 -0.1305,0.2276 m 0.2689,-0.4506 -0.1384,0.223 m 0.2844,-0.441 -0.146,0.218 m 0.2995,-0.4308 -0.1535,0.2128 m 0.3143,-0.4202 -0.1608,0.2074 m 0.3287,-0.409 -0.1679,0.2016 m 0.3427,-0.3973 -0.1748,0.1957 m 0.3562,-0.3852 -0.1814,0.1895 m 0.3694,-0.3726 -0.188,0.1831 m 0.3821,-0.3596 -0.1941,0.1765 m 0.3943,-0.3462 -0.2002,0.1697 m 0.4062,-0.3321 -0.206,0.1624 m 0.4174,-0.3178 -0.2114,0.1554 m 0.4282,-0.3033 -0.2168,0.1479 m 0.4385,-0.2883 -0.2217,0.1404 m 0.4482,-0.2728 -0.2265,0.1324 m 0.4574,-0.257 -0.2309,0.1246 m 0.4661,-0.2411 -0.2352,0.1165 m 0.4742,-0.2248 -0.239,0.1083 m 0.4816,-0.2081 -0.2426,0.1 m 0.4886,-0.1914 -0.246,0.091 m 0.495,-0.1738 -0.249,0.083 m 0.5007,-0.1571 -0.2517,0.074 m 0.5058,-0.1394 -0.2541,0.065 m 0.5103,-0.1214 -0.2562,0.056 m 0.5143,-0.1036 -0.2581,0.048 m 0.5176,-0.087 -0.2595,0.039 m 0.5202,-0.069 -0.2607,0.03 m 0.5223,-0.05 -0.2616,0.02 m 0.5237,-0.031 -0.2621,0.011 m 0.5245,-0.013 h -0.2624 m 0.5247,0.01 -0.2623,-0.01 m 0.5242,0.026 -0.2619,-0.016 m 0.5231,0.041 -0.2612,-0.025 m 0.5214,0.059 -0.2602,-0.034 m 0.519,0.077 -0.2588,-0.043 m 0.516,0.095 -0.2572,-0.052 m 0.5124,0.1129 -0.2552,-0.061 m 0.5082,0.1307 -0.253,-0.07 m 0.5034,0.1485 -0.2504,-0.078 m 0.4979,0.1651 -0.2475,-0.087 m 0.4918,0.1827 -0.2443,-0.096 m 0.4852,0.2 -0.2409,-0.104 m 0.478,0.2165 -0.2371,-0.1125 m 0.4701,0.2329 -0.233,-0.1204 m 0.4618,0.2491 -0.2288,-0.1287 m 0.4529,0.2651 -0.2241,-0.1364 m 0.4434,0.2805 -0.2193,-0.1441 m 0.4334,0.2957 -0.2141,-0.1516 m 0.4228,0.3106 -0.2087,-0.159 m 0.4119,0.3251 -0.2032,-0.1661 m 0.4004,0.3392 -0.1972,-0.1731 m 0.3882,0.3529 -0.191,-0.1798 m 0.3758,0.3662 -0.1848,-0.1864 m 0.3629,0.379 -0.1781,-0.1926 m 0.3495,0.3913 -0.1714,-0.1987 m 0.3358,0.4032 -0.1644,-0.2045 m 0.3215,0.4146 -0.1571,-0.2101 m 0.3069,0.4256 -0.1498,-0.2155 m 0.292,0.4361 -0.1422,-0.2206 m 0.2767,0.4458 -0.1345,-0.2252 m 0.261,0.455 -0.1265,-0.2298 m 0.2451,0.464 -0.1186,-0.2342 m 0.2289,0.4722 -0.1103,-0.238 m 0.2123,0.4798 -0.102,-0.2418 m 0.1955,0.4869 -0.093,-0.2451 m 0.1785,0.4934 -0.085,-0.2483 m 0.1613,0.4993 -0.076,-0.251 m 0.1438,0.5046 -0.068,-0.2536 m 0.1263,0.5093 -0.059,-0.2557 m 0.1085,0.5134 -0.05,-0.2577 m 0.091,0.5168 -0.041,-0.2591 m 0.073,0.5196 -0.032,-0.2605 m 0.055,0.5219 -0.023,-0.2614 m 0.036,0.5235 -0.014,-0.2621 m 0.018,0.5244 -0.01,-0.2623" />
      <path
         d="m 1136.4241,615.99757 v -0.2623 m -0.019,0.5244 0.014,-0.2621 m -0.036,0.5235 0.023,-0.2614 m -0.055,0.5219 0.032,-0.2605 m -0.073,0.5196 0.041,-0.2591 m -0.091,0.5168 0.05,-0.2577 m -0.1085,0.5134 0.059,-0.2557 m -0.1263,0.5093 0.068,-0.2536 m -0.1439,0.5046 0.076,-0.251 m -0.1612,0.4993 0.085,-0.2483 m -0.1786,0.4934 0.093,-0.2451 m -0.1955,0.4869 0.102,-0.2418 m -0.2123,0.4798 0.1103,-0.238 m -0.2288,0.4722 0.1185,-0.2342 m -0.2451,0.464 0.1266,-0.2298 m -0.261,0.455 0.1344,-0.2252 m -0.2766,0.4458 0.1422,-0.2206 m -0.292,0.4361 0.1498,-0.2155 m -0.307,0.4256 0.1572,-0.2101 m -0.3215,0.4146 0.1643,-0.2045 m -0.3357,0.4032 0.1714,-0.1987 m -0.3495,0.3914 0.1781,-0.1927 m -0.3629,0.379 0.1848,-0.1863 m -0.3759,0.3661 0.1911,-0.1798 m -0.3883,0.3529 0.1972,-0.1731 m -0.4003,0.3392 0.2031,-0.1661 m -0.4118,0.3251 0.2087,-0.159 m -0.4228,0.3106 0.2141,-0.1516 m -0.4334,0.2957 0.2193,-0.1441 m -0.4435,0.2806 0.2242,-0.1365 m -0.4529,0.2651 0.2287,-0.1286 m -0.4618,0.249 0.233,-0.1204 m -0.4702,0.2329 0.2372,-0.1125 m -0.478,0.2165 0.2408,-0.104 m -0.4852,0.1997 0.2444,-0.096 m -0.4919,0.1831 0.2475,-0.087 m -0.4979,0.1655 0.2504,-0.078 m -0.5033,0.1477 0.2529,-0.07 m -0.5081,0.1309 0.2552,-0.061 m -0.5124,0.113 0.2572,-0.052 m -0.516,0.095 0.2588,-0.043 m -0.519,0.077 0.2602,-0.034 m -0.5214,0.059 0.2612,-0.025 m -0.5231,0.041 0.2619,-0.016 m -0.5242,0.023 0.2623,-0.01 m -0.5247,0.01 h 0.2624 m -0.5245,-0.011 0.2621,0.011 m -0.5237,-0.032 0.2616,0.021 m -0.5223,-0.051 0.2607,0.03 m -0.5203,-0.069 0.2596,0.039 m -0.5176,-0.087 0.258,0.048 m -0.5142,-0.1044 0.2562,0.056 m -0.5104,-0.1214 0.2542,0.065 m -0.5059,-0.1391 0.2517,0.074 m -0.5007,-0.1568 0.249,0.083 m -0.4949,-0.1744 0.2459,0.091 m -0.4886,-0.1908 0.2427,0.1 m -0.4817,-0.2083 0.239,0.1083 m -0.4741,-0.2248 0.2351,0.1165 m -0.4659,-0.2411 0.2309,0.1246 m -0.4574,-0.257 0.2265,0.1324 m -0.4482,-0.2727 0.2217,0.1403 m -0.4385,-0.2883 0.2168,0.148 m -0.4284,-0.3034 0.2115,0.1554 m -0.4174,-0.3178 0.2059,0.1624 m -0.4061,-0.3321 0.2002,0.1697 m -0.3944,-0.3462 0.1942,0.1765 m -0.3821,-0.3596 0.1879,0.1831 m -0.3694,-0.3726 0.1815,0.1895 m -0.3562,-0.3852 0.1747,0.1957 m -0.3426,-0.3973 0.1679,0.2016 m -0.3287,-0.409 0.1608,0.2074 m -0.3143,-0.4202 0.1535,0.2128 m -0.2995,-0.4308 0.146,0.218 m -0.2844,-0.441 0.1384,0.223 m -0.2689,-0.4506 0.1305,0.2276 m -0.2531,-0.4596 0.1226,0.232 m -0.237,-0.4681 0.1144,0.2361 m -0.2206,-0.4761 0.1062,0.24 m -0.204,-0.4835 0.098,0.2435 m -0.187,-0.4902 0.089,0.2467 m -0.17,-0.4964 0.081,0.2497 m -0.1525,-0.502 0.072,0.2523 m -0.135,-0.507 0.063,0.2547 m -0.1174,-0.5115 0.054,0.2568 m -0.1,-0.5152 0.045,0.2584 m -0.082,-0.5183 0.036,0.2599 m -0.064,-0.5208 0.027,0.2609 m -0.045,-0.5227 0.018,0.2618 m -0.027,-0.524 0.01,0.2622 m -0.01,-0.5246 v 0.2624 m 0.01,-0.5246 -0.01,0.2622 m 0.027,-0.524 -0.018,0.2618 m 0.045,-0.5227 -0.027,0.2609 m 0.064,-0.5208 -0.036,0.2599 m 0.082,-0.5183 -0.045,0.2584 m 0.1,-0.5152 -0.054,0.2568 m 0.1174,-0.5114 -0.063,0.2546 m 0.135,-0.507 -0.072,0.2524 m 0.1526,-0.5021 -0.081,0.2497 m 0.1699,-0.4964 -0.089,0.2467 m 0.187,-0.4902 -0.098,0.2435 m 0.204,-0.4835 -0.1062,0.24 m 0.2206,-0.4761 -0.1144,0.2361 m 0.237,-0.4681 -0.1226,0.232 m 0.2531,-0.4596 -0.1305,0.2276 m 0.2689,-0.4506 -0.1384,0.223 m 0.2844,-0.441 -0.146,0.218 m 0.2995,-0.4308 -0.1535,0.2128 m 0.3143,-0.4202 -0.1608,0.2074 m 0.3287,-0.409 -0.1679,0.2016 m 0.3427,-0.3973 -0.1748,0.1957 m 0.3562,-0.3852 -0.1814,0.1895 m 0.3694,-0.3726 -0.188,0.1831 m 0.3821,-0.3596 -0.1941,0.1765 m 0.3943,-0.3462 -0.2002,0.1697 m 0.4062,-0.3321 -0.206,0.1624 m 0.4174,-0.3178 -0.2114,0.1554 m 0.4282,-0.3033 -0.2168,0.1479 m 0.4385,-0.2883 -0.2217,0.1404 m 0.4482,-0.2728 -0.2265,0.1324 m 0.4574,-0.257 -0.2309,0.1246 m 0.4661,-0.2411 -0.2352,0.1165 m 0.4742,-0.2248 -0.239,0.1083 m 0.4816,-0.2081 -0.2426,0.1 m 0.4886,-0.1914 -0.246,0.091 m 0.495,-0.1738 -0.249,0.083 m 0.5007,-0.1571 -0.2517,0.074 m 0.5058,-0.1394 -0.2541,0.065 m 0.5103,-0.1214 -0.2562,0.056 m 0.5143,-0.1036 -0.2581,0.048 m 0.5176,-0.087 -0.2595,0.039 m 0.5202,-0.069 -0.2607,0.03 m 0.5223,-0.05 -0.2616,0.02 m 0.5237,-0.031 -0.2621,0.011 m 0.5245,-0.013 h -0.2624 m 0.5247,0.01 -0.2623,-0.01 m 0.5242,0.026 -0.2619,-0.016 m 0.5231,0.041 -0.2612,-0.025 m 0.5214,0.059 -0.2602,-0.034 m 0.519,0.077 -0.2588,-0.043 m 0.516,0.095 -0.2572,-0.052 m 0.5124,0.1129 -0.2552,-0.061 m 0.5082,0.1307 -0.253,-0.07 m 0.5034,0.1485 -0.2504,-0.078 m 0.4979,0.1651 -0.2475,-0.087 m 0.4918,0.1827 -0.2443,-0.096 m 0.4852,0.2 -0.2409,-0.104 m 0.4781,0.2165 -0.2372,-0.1125 m 0.4701,0.2329 -0.2329,-0.1204 m 0.4618,0.2491 -0.2289,-0.1287 m 0.4529,0.2651 -0.224,-0.1364 m 0.4434,0.2805 -0.2193,-0.1441 m 0.4334,0.2957 -0.2141,-0.1516 m 0.4228,0.3106 -0.2087,-0.159 m 0.4119,0.3251 -0.2032,-0.1661 m 0.4004,0.3392 -0.1972,-0.1731 m 0.3882,0.3529 -0.191,-0.1798 m 0.3758,0.3662 -0.1848,-0.1864 m 0.3629,0.379 -0.1781,-0.1926 m 0.3495,0.3913 -0.1714,-0.1987 m 0.3358,0.4032 -0.1644,-0.2045 m 0.3215,0.4146 -0.1571,-0.2101 m 0.3069,0.4256 -0.1498,-0.2155 m 0.292,0.4361 -0.1422,-0.2206 m 0.2767,0.4458 -0.1345,-0.2252 m 0.261,0.455 -0.1265,-0.2298 m 0.2451,0.464 -0.1186,-0.2342 m 0.2289,0.4722 -0.1103,-0.238 m 0.2123,0.4798 -0.102,-0.2418 m 0.1955,0.4869 -0.093,-0.2451 m 0.1785,0.4934 -0.085,-0.2483 m 0.1613,0.4993 -0.076,-0.251 m 0.1438,0.5046 -0.068,-0.2536 m 0.1263,0.5093 -0.059,-0.2557 m 0.1085,0.5134 -0.05,-0.2577 m 0.091,0.5168 -0.041,-0.2591 m 0.073,0.5196 -0.032,-0.2605 m 0.055,0.5219 -0.023,-0.2614 m 0.036,0.5235 -0.014,-0.2621 m 0.018,0.5244 -0.01,-0.2623"
         style="fill:none;stroke:#0000ff;stroke-width:0.755906;stroke-miterlimit:4;stroke-dasharray:none;stroke-opacity:1"
         id="path25301" />
      <path
         id="path25305"
         style="fill:none;stroke:#0000ff;stroke-width:0.755906;stroke-miterlimit:4;stroke-dasharray:none;stroke-opacity:1"
         d="m 711.5061,615.99757 v -0.2623 m -0.019,0.5244 0.014,-0.2621 m -0.036,0.5235 0.023,-0.2614 m -0.055,0.5219 0.032,-0.2605 m -0.073,0.5196 0.041,-0.2591 m -0.091,0.5168 0.05,-0.2577 m -0.1085,0.5134 0.059,-0.2557 m -0.1263,0.5093 0.068,-0.2536 m -0.1439,0.5046 0.076,-0.251 m -0.1612,0.4993 0.085,-0.2483 m -0.1786,0.4934 0.093,-0.2451 m -0.1955,0.4869 0.102,-0.2418 m -0.2123,0.4798 0.1103,-0.238 m -0.2288,0.4722 0.1185,-0.2342 m -0.2451,0.464 0.1266,-0.2298 m -0.261,0.455 0.1344,-0.2252 m -0.2766,0.4458 0.1422,-0.2206 m -0.292,0.4361 0.1498,-0.2155 m -0.307,0.4256 0.1572,-0.2101 m -0.3215,0.4146 0.1643,-0.2045 m -0.3357,0.4032 0.1714,-0.1987 m -0.3495,0.3914 0.1781,-0.1927 m -0.3629,0.379 0.1848,-0.1863 m -0.3759,0.3661 0.1911,-0.1798 m -0.3883,0.3529 0.1972,-0.1731 m -0.4003,0.3392 0.2031,-0.1661 m -0.4118,0.3251 0.2087,-0.159 m -0.4228,0.3106 0.2141,-0.1516 m -0.4334,0.2957 0.2193,-0.1441 m -0.4435,0.2806 0.2242,-0.1365 m -0.4529,0.2651 0.2287,-0.1286 m -0.4618,0.249 0.233,-0.1204 m -0.4702,0.2329 0.2372,-0.1125 m -0.478,0.2165 0.2408,-0.104 m -0.4852,0.1997 0.2444,-0.096 m -0.4919,0.1831 0.2475,-0.087 m -0.4979,0.1655 0.2504,-0.078 m -0.5033,0.1477 0.2529,-0.07 m -0.5081,0.1309 0.2552,-0.061 m -0.5124,0.113 0.2572,-0.052 m -0.516,0.095 0.2588,-0.043 m -0.519,0.077 0.2602,-0.034 m -0.5214,0.059 0.2612,-0.025 m -0.5231,0.041 0.2619,-0.016 m -0.5242,0.023 0.2623,-0.01 m -0.5247,0.01 h 0.2624 m -0.5245,-0.011 0.2621,0.011 m -0.5237,-0.032 0.2616,0.021 m -0.5223,-0.051 0.2607,0.03 m -0.5203,-0.069 0.2596,0.039 m -0.5176,-0.087 0.258,0.048 m -0.5142,-0.1044 0.2562,0.056 m -0.5104,-0.1214 0.2542,0.065 m -0.5059,-0.1391 0.2517,0.074 m -0.5007,-0.1568 0.249,0.083 m -0.4949,-0.1744 0.2459,0.091 m -0.4886,-0.1908 0.2427,0.1 m -0.4817,-0.2083 0.239,0.1083 m -0.4741,-0.2248 0.2351,0.1165 m -0.4659,-0.2411 0.2309,0.1246 m -0.4574,-0.257 0.2265,0.1324 m -0.4482,-0.2727 0.2217,0.1403 m -0.4385,-0.2883 0.2168,0.148 m -0.4284,-0.3034 0.2115,0.1554 m -0.4174,-0.3178 0.2059,0.1624 m -0.4061,-0.3321 0.2002,0.1697 m -0.3944,-0.3462 0.1942,0.1765 m -0.3821,-0.3596 0.1879,0.1831 m -0.3694,-0.3726 0.1815,0.1895 m -0.3562,-0.3852 0.1747,0.1957 m -0.3426,-0.3973 0.1679,0.2016 m -0.3287,-0.409 0.1608,0.2074 m -0.3143,-0.4202 0.1535,0.2128 m -0.2995,-0.4308 0.146,0.218 m -0.2844,-0.441 0.1384,0.223 m -0.2689,-0.4506 0.1305,0.2276 m -0.2531,-0.4596 0.1226,0.232 m -0.237,-0.4681 0.1144,0.2361 m -0.2206,-0.4761 0.1062,0.24 m -0.204,-0.4835 0.098,0.2435 m -0.187,-0.4902 0.089,0.2467 m -0.17,-0.4964 0.081,0.2497 m -0.1525,-0.502 0.072,0.2523 m -0.135,-0.507 0.063,0.2547 m -0.1174,-0.5115 0.054,0.2568 m -0.1,-0.5152 0.045,0.2584 m -0.082,-0.5183 0.036,0.2599 m -0.064,-0.5208 0.027,0.2609 m -0.045,-0.5227 0.018,0.2618 m -0.027,-0.524 0.01,0.2622 m -0.01,-0.5246 v 0.2624 m 0.01,-0.5246 -0.01,0.2622 m 0.027,-0.524 -0.018,0.2618 m 0.045,-0.5227 -0.027,0.2609 m 0.064,-0.5208 -0.036,0.2599 m 0.082,-0.5183 -0.045,0.2584 m 0.1,-0.5152 -0.054,0.2568 m 0.1174,-0.5114 -0.063,0.2546 m 0.135,-0.507 -0.072,0.2524 m 0.1526,-0.5021 -0.081,0.2497 m 0.1699,-0.4964 -0.089,0.2467 m 0.187,-0.4902 -0.098,0.2435 m 0.204,-0.4835 -0.1062,0.24 m 0.2206,-0.4761 -0.1144,0.2361 m 0.237,-0.4681 -0.1226,0.232 m 0.2531,-0.4596 -0.1305,0.2276 m 0.2689,-0.4506 -0.1384,0.223 m 0.2844,-0.441 -0.146,0.218 m 0.2995,-0.4308 -0.1535,0.2128 m 0.3143,-0.4202 -0.1608,0.2074 m 0.3287,-0.409 -0.1679,0.2016 m 0.3427,-0.3973 -0.1748,0.1957 m 0.3562,-0.3852 -0.1814,0.1895 m 0.3694,-0.3726 -0.188,0.1831 m 0.3821,-0.3596 -0.1941,0.1765 m 0.3943,-0.3462 -0.2002,0.1697 m 0.4062,-0.3321 -0.206,0.1624 m 0.4174,-0.3178 -0.2114,0.1554 m 0.4282,-0.3033 -0.2168,0.1479 m 0.4385,-0.2883 -0.2217,0.1404 m 0.4482,-0.2728 -0.2265,0.1324 m 0.4574,-0.257 -0.2309,0.1246 m 0.4661,-0.2411 -0.2352,0.1165 m 0.4742,-0.2248 -0.239,0.1083 m 0.4816,-0.2081 -0.2426,0.1 m 0.4886,-0.1914 -0.246,0.091 m 0.495,-0.1738 -0.249,0.083 m 0.5007,-0.1571 -0.2517,0.074 m 0.5058,-0.1394 -0.2541,0.065 m 0.5103,-0.1214 -0.2562,0.056 m 0.5143,-0.1036 -0.2581,0.048 m 0.5176,-0.087 -0.2595,0.039 m 0.5202,-0.069 -0.2607,0.03 m 0.5223,-0.05 -0.2616,0.02 m 0.5237,-0.031 -0.2621,0.011 m 0.5245,-0.013 h -0.2624 m 0.5247,0.01 -0.2623,-0.01 m 0.5242,0.026 -0.2619,-0.016 m 0.5231,0.041 -0.2612,-0.025 m 0.5214,0.059 -0.2602,-0.034 m 0.519,0.077 -0.2588,-0.043 m 0.516,0.095 -0.2572,-0.052 m 0.5124,0.1129 -0.2552,-0.061 m 0.5082,0.1307 -0.253,-0.07 m 0.5034,0.1485 -0.2504,-0.078 m 0.4979,0.1651 -0.2475,-0.087 m 0.4918,0.1827 -0.2443,-0.096 m 0.4852,0.2 -0.2409,-0.104 m 0.4781,0.2165 -0.2372,-0.1125 m 0.4701,0.2329 -0.2329,-0.1204 m 0.4618,0.2491 -0.2289,-0.1287 m 0.4529,0.2651 -0.224,-0.1364 m 0.4434,0.2805 -0.2193,-0.1441 m 0.4334,0.2957 -0.2141,-0.1516 m 0.4228,0.3106 -0.2087,-0.159 m 0.4119,0.3251 -0.2032,-0.1661 m 0.4004,0.3392 -0.1972,-0.1731 m 0.3882,0.3529 -0.191,-0.1798 m 0.3758,0.3662 -0.1848,-0.1864 m 0.3629,0.379 -0.1781,-0.1926 m 0.3495,0.3913 -0.1714,-0.1987 m 0.3358,0.4032 -0.1644,-0.2045 m 0.3215,0.4146 -0.1571,-0.2101 m 0.3069,0.4256 -0.1498,-0.2155 m 0.292,0.4361 -0.1422,-0.2206 m 0.2767,0.4458 -0.1345,-0.2252 m 0.261,0.455 -0.1265,-0.2298 m 0.2451,0.464 -0.1186,-0.2342 m 0.2289,0.4722 -0.1103,-0.238 m 0.2123,0.4798 -0.102,-0.2418 m 0.1955,0.4869 -0.093,-0.2451 m 0.1785,0.4934 -0.085,-0.2483 m 0.1613,0.4993 -0.076,-0.251 m 0.1438,0.5046 -0.068,-0.2536 m 0.1263,0.5093 -0.059,-0.2557 m 0.1085,0.5134 -0.05,-0.2577 m 0.091,0.5168 -0.041,-0.2591 m 0.073,0.5196 -0.032,-0.2605 m 0.055,0.5219 -0.023,-0.2614 m 0.036,0.5235 -0.014,-0.2621 m 0.018,0.5244 -0.01,-0.2623" />
    </g>
  </g>
  <desc
     id="desc7274">bottom_plate.dxf - scale = 1.000000, origin = (0.000000, 0.000000), method = file</desc>
</svg>
