<?xml version="1.0" encoding="UTF-8" standalone="no"?>
<svg
   xmlns:dc="http://purl.org/dc/elements/1.1/"
   xmlns:cc="http://creativecommons.org/ns#"
   xmlns:rdf="http://www.w3.org/1999/02/22-rdf-syntax-ns#"
   xmlns:svg="http://www.w3.org/2000/svg"
   xmlns="http://www.w3.org/2000/svg"
   id="svg7276"
   version="1.1"
   height="525.96307"
   width="472.16217"
   viewBox="0 0 472.16216 525.96309">
  <metadata
     id="metadata7280">
    <rdf:RDF>
      <cc:Work
         rdf:about="">
        <dc:format>image/svg+xml</dc:format>
        <dc:type
           rdf:resource="http://purl.org/dc/dcmitype/StillImage" />
        <dc:title></dc:title>
      </cc:Work>
    </rdf:RDF>
  </metadata>
  <defs
     id="defs14">
    <marker
       style="overflow:visible"
       refY="0"
       refX="0"
       orient="auto"
       id="DistanceX">
      <path
         id="path2"
         style="stroke:#000000;stroke-width:0.5"
         d="M 3,-3 -3,3 M 0,-5 V 5" />
    </marker>
    <pattern
       y="0"
       x="0"
       height="8"
       width="8"
       patternUnits="userSpaceOnUse"
       id="Hatch">
      <path
         id="path5"
         linecap="square"
         stroke-width="0.25"
         stroke="#000000"
         d="M8 4 l-4,4" />
      <path
         id="path7"
         linecap="square"
         stroke-width="0.25"
         stroke="#000000"
         d="M6 2 l-4,4" />
      <path
         id="path9"
         linecap="square"
         stroke-width="0.25"
         stroke="#000000"
         d="M4 0 l-4,4" />
    </pattern>
    <symbol
       id="*Model_Space" />
    <symbol
       id="*Paper_Space" />
  </defs>
  <g
     transform="translate(-113.60103,-113.6025)"
     id="g16" />
  <g
     transform="translate(-113.60103,-113.6025)"
     id="g7272">
    <path
       d="m 479.7417,187.72435 0.002,-0.13774 m -0.009,0.2753 0.007,-0.13756 m -0.0189,0.2748 0.0119,-0.13724 m -0.0286,0.27398 0.0167,-0.13674 m -0.0381,0.27282 0.0214,-0.13608 m -0.0476,0.27133 0.0262,-0.13525 m -0.057,0.26951 0.0308,-0.13426 m -0.0663,0.26737 0.0355,-0.13311 m -0.0756,0.26492 0.0401,-0.13181 m -0.0847,0.26214 0.0446,-0.13033 m -0.0937,0.25903 0.0491,-0.1287 m -0.10265,0.25562 0.0535,-0.12692 m -0.11141,0.25191 0.0579,-0.12499 m -0.12012,0.2479 0.0622,-0.12291 m -0.12865,0.24357 0.0664,-0.12066 m -0.137,0.23895 0.0706,-0.11829 m -0.14525,0.23406 0.0747,-0.11577 m -0.15334,0.22888 0.0786,-0.11311 m -0.16111,0.22342 0.0825,-0.11031 m -0.16878,0.21769 0.0863,-0.10738 m -0.17627,0.2117 0.09,-0.10432 m -0.18353,0.20546 0.0935,-0.10114 m -0.19048,0.19897 0.097,-0.0978 m -0.19732,0.1922 0.10032,-0.0944 m -0.20386,0.18527 0.10354,-0.0909 m -0.21017,0.17812 0.10663,-0.0872 m -0.21622,0.17066 0.10959,-0.0835 m -0.22201,0.16311 0.11242,-0.0796 m -0.22753,0.15526 0.11511,-0.0757 m -0.23279,0.14732 0.11768,-0.0716 m -0.23777,0.13909 0.12009,-0.0675 m -0.24244,0.13079 0.12235,-0.0633 m -0.24684,0.1223 0.12449,-0.059 m -0.25094,0.11364 0.12645,-0.0546 m -0.25472,0.10482 0.12827,-0.0502 m -0.25821,0.0959 0.12994,-0.0457 m -0.26139,0.0869 0.13145,-0.0412 m -0.26425,0.0778 0.1328,-0.0366 m -0.26679,0.0686 0.13399,-0.032 m -0.26901,0.0593 0.13502,-0.0273 m -0.27091,0.0499 0.13589,-0.0226 m -0.27248,0.0405 0.13659,-0.0179 m -0.27371,0.031 0.13712,-0.0131 m -0.27462,0.0215 0.1375,-0.008 m -0.27521,0.0116 0.13771,-0.004 m -0.27546,0.003 0.13775,10e-4 m -0.27538,-0.007 0.13763,0.006 m -0.27496,-0.0168 0.13733,0.0108 m -0.27421,-0.0263 0.13688,0.0155 m -0.27314,-0.0357 0.13626,0.0203 m -0.27173,-0.0453 0.13547,0.025 m -0.27,-0.0546 0.13453,0.0297 m -0.26794,-0.064 0.13341,0.0343 m -0.26555,-0.0732 0.13214,0.0389 m -0.26286,-0.0824 0.13072,0.0435 m -0.25984,-0.0915 0.12912,0.048 m -0.25651,-0.10044 0.12739,0.0524 m -0.25287,-0.10923 0.12548,0.0568 m -0.24892,-0.11795 0.12344,0.0611 m -0.24468,-0.1265 0.12124,0.0654 m -0.24014,-0.13497 0.1189,0.0696 m -0.23531,-0.14325 0.11641,0.0736 m -0.2302,-0.15125 0.11379,0.0777 m -0.22481,-0.15925 0.11102,0.0815 m -0.21915,-0.16685 0.10813,0.0854 m -0.21323,-0.17445 0.1051,0.089 m -0.20704,-0.18165 0.10194,0.0926 m -0.20061,-0.18873 0.0987,0.0961 m -0.19397,-0.1956 0.0953,0.0995 m -0.18706,-0.20225 0.0918,0.10275 m -0.17994,-0.20861 0.0881,0.10586 m -0.17251,-0.21472 0.0844,0.10886 m -0.16498,-0.22059 0.0806,0.11173 m -0.15726,-0.22619 0.0767,0.11446 m -0.14934,-0.2315 0.0726,0.11704 m -0.14113,-0.23654 0.0685,0.1195 m -0.13284,-0.24131 0.0643,0.12181 m -0.12438,-0.24577 0.0601,0.12396 m -0.11584,-0.24993 0.0557,0.12597 m -0.10703,-0.25381 0.0513,0.12784 m -0.0982,-0.25738 0.0469,0.12954 m -0.0892,-0.26062 0.0423,0.13108 m -0.0801,-0.26356 0.0378,0.13248 m -0.0709,-0.26619 0.0331,0.13371 m -0.0616,-0.26848 0.0285,0.13477 m -0.0523,-0.27046 0.0238,0.13569 m -0.0429,-0.27212 0.0191,0.13643 m -0.0334,-0.27344 0.0143,0.13701 m -0.0239,-0.27443 0.01,0.13742 m -0.0148,-0.27509 0.005,0.13767 m -0.005,-0.27542 v 0.13775 m 0.005,-0.27543 -0.005,0.13768 m 0.0146,-0.2751 -0.01,0.13742 m 0.0243,-0.27443 -0.0143,0.13701 m 0.0334,-0.27344 -0.0191,0.13643 m 0.0429,-0.27211 -0.0238,0.13568 m 0.0523,-0.27046 -0.0285,0.13478 m 0.0616,-0.26849 -0.0331,0.13371 m 0.0709,-0.26618 -0.0378,0.13247 m 0.0801,-0.26356 -0.0423,0.13109 m 0.0892,-0.26063 -0.0469,0.12954 m 0.0982,-0.25737 -0.0513,0.12783 m 0.10704,-0.2538 -0.0557,0.12597 m 0.11578,-0.24994 -0.0601,0.12397 m 0.12444,-0.24577 -0.0643,0.1218 m 0.13283,-0.2413 -0.0685,0.1195 m 0.14114,-0.23655 -0.0726,0.11705 m 0.14926,-0.2315 -0.0767,0.11445 m 0.15728,-0.22618 -0.0806,0.11173 m 0.16501,-0.22059 -0.0844,0.10886 m 0.17254,-0.21473 -0.0881,0.10587 m 0.17986,-0.20861 -0.0918,0.10274 m 0.18707,-0.20224 -0.0953,0.0995 m 0.19397,-0.19563 -0.0987,0.0961 m 0.20064,-0.18875 -0.10194,0.0926 m 0.20704,-0.18165 -0.1051,0.0891 m 0.21323,-0.17446 -0.10813,0.0854 m 0.21915,-0.16695 -0.11102,0.0815 m 0.22481,-0.15914 -0.11379,0.0776 m 0.2302,-0.15126 -0.11641,0.0737 m 0.23531,-0.14326 -0.1189,0.0696 m 0.24014,-0.135 -0.12124,0.0654 m 0.24468,-0.12655 -0.12344,0.0611 m 0.24892,-0.11793 -0.12548,0.0568 m 0.25287,-0.10924 -0.12739,0.0524 m 0.25651,-0.10039 -0.12912,0.048 m 0.25984,-0.0915 -0.13072,0.0435 m 0.26286,-0.0824 -0.13214,0.0389 m 0.26555,-0.0732 -0.13341,0.0343 m 0.26794,-0.064 -0.13453,0.0297 m 0.27,-0.0547 -0.13547,0.025 m 0.27173,-0.0453 -0.13626,0.0203 m 0.27314,-0.0358 -0.13688,0.0155 m 0.27421,-0.0263 -0.13733,0.0107 m 0.27496,-0.0167 -0.13763,0.006 m 0.27538,-0.007 -0.13775,0.001 m 0.27546,0.003 -0.13771,-0.004 m 0.27521,0.0124 -0.1375,-0.008 m 0.27462,0.0211 -0.13712,-0.0131 m 0.27371,0.031 -0.13659,-0.0179 m 0.27248,0.0405 -0.13589,-0.0226 m 0.27091,0.0499 -0.13502,-0.0273 m 0.26901,0.0593 -0.13399,-0.032 m 0.26679,0.0686 -0.1328,-0.0366 m 0.26425,0.0778 -0.13145,-0.0412 m 0.26139,0.0869 -0.12994,-0.0457 m 0.25821,0.0959 -0.12827,-0.0502 m 0.25472,0.10484 -0.12645,-0.0546 m 0.25094,0.1136 -0.12449,-0.059 m 0.24684,0.12228 -0.12235,-0.0633 m 0.24244,0.1308 -0.12009,-0.0675 m 0.23777,0.13911 -0.11768,-0.0716 m 0.23279,0.14727 -0.11511,-0.0757 m 0.22753,0.15531 -0.11242,-0.0796 m 0.22201,0.16306 -0.10959,-0.0835 m 0.21622,0.17072 -0.10663,-0.0872 m 0.21017,0.17806 -0.10354,-0.0909 m 0.20386,0.18531 -0.10032,-0.0944 m 0.1973,0.19223 -0.097,-0.0978 m 0.19053,0.19893 -0.0935,-0.10113 m 0.18347,0.20545 -0.09,-0.10432 m 0.17628,0.2117 -0.0863,-0.10738 m 0.16881,0.21769 -0.0825,-0.11031 m 0.16114,0.22342 -0.0786,-0.11311 m 0.15325,0.22888 -0.0747,-0.11577 m 0.1453,0.23406 -0.0706,-0.11829 m 0.13705,0.23896 -0.0664,-0.12067 m 0.12862,0.24357 -0.0622,-0.1229 m 0.12011,0.24789 -0.0579,-0.12499 m 0.11145,0.25191 -0.0535,-0.12692 m 0.1026,0.25563 -0.0491,-0.12871 m 0.0937,0.25904 -0.0446,-0.13033 m 0.0847,0.26213 -0.0401,-0.1318 m 0.0756,0.26491 -0.0355,-0.13311 m 0.0663,0.26738 -0.0308,-0.13427 m 0.0569,0.26952 -0.0262,-0.13525 m 0.0476,0.27133 -0.0214,-0.13608 m 0.0381,0.27281 -0.0167,-0.13673 m 0.0286,0.27397 -0.0119,-0.13724 m 0.0191,0.27481 -0.007,-0.13757 m 0.009,0.2753 -0.002,-0.13773"
       style="fill:none;stroke:#0000ff;stroke-width:0.755906;stroke-linecap:round;stroke-miterlimit:4;stroke-dasharray:none;stroke-opacity:1"
       id="path378" />
    <path
       d="m 335.7417,187.72435 0.002,-0.13774 m -0.009,0.2753 0.007,-0.13756 m -0.0189,0.2748 0.0119,-0.13724 m -0.0286,0.27398 0.0167,-0.13674 m -0.0381,0.27282 0.0214,-0.13608 m -0.0476,0.27133 0.0262,-0.13525 m -0.057,0.26951 0.0308,-0.13426 m -0.0663,0.26737 0.0355,-0.13311 m -0.0756,0.26492 0.0401,-0.13181 m -0.0847,0.26214 0.0446,-0.13033 m -0.0937,0.25903 0.0491,-0.1287 m -0.10265,0.25562 0.0536,-0.12692 m -0.11151,0.25191 0.0579,-0.12499 m -0.12012,0.2479 0.0622,-0.12291 m -0.12865,0.24357 0.0665,-0.12066 m -0.1371,0.23895 0.0706,-0.11829 m -0.14525,0.23406 0.0746,-0.11577 m -0.15324,0.22888 0.0786,-0.11311 m -0.16111,0.22342 0.0825,-0.11031 m -0.16878,0.21769 0.0863,-0.10738 m -0.17627,0.2117 0.09,-0.10432 m -0.18353,0.20546 0.0935,-0.10114 m -0.19048,0.19897 0.097,-0.0978 m -0.19732,0.1922 0.10032,-0.0944 m -0.20386,0.18527 0.10354,-0.0909 m -0.21017,0.17812 0.10663,-0.0872 m -0.21622,0.17066 0.10959,-0.0835 m -0.22201,0.16311 0.11242,-0.0796 m -0.22753,0.15526 0.11511,-0.0757 m -0.23279,0.14732 0.11768,-0.0716 m -0.23777,0.13909 0.12009,-0.0675 m -0.24244,0.13079 0.12235,-0.0633 m -0.24684,0.1223 0.12449,-0.059 m -0.25094,0.11364 0.12645,-0.0546 m -0.25472,0.10482 0.12827,-0.0502 m -0.25821,0.0959 0.12994,-0.0457 m -0.26139,0.0869 0.13145,-0.0412 m -0.26425,0.0778 0.1328,-0.0366 m -0.26679,0.0686 0.13399,-0.032 m -0.26901,0.0593 0.13502,-0.0273 m -0.27091,0.0499 0.13589,-0.0226 m -0.27248,0.0405 0.13659,-0.0179 m -0.27371,0.031 0.13712,-0.0131 m -0.27462,0.0215 0.1375,-0.008 m -0.27521,0.0116 0.13771,-0.004 m -0.27546,0.003 0.13775,10e-4 m -0.27538,-0.007 0.13763,0.006 m -0.27496,-0.0168 0.13733,0.0108 m -0.27421,-0.0263 0.13688,0.0155 m -0.27314,-0.0357 0.13626,0.0203 m -0.27173,-0.0453 0.13547,0.025 m -0.27,-0.0546 0.13453,0.0297 m -0.26794,-0.064 0.13341,0.0343 m -0.26555,-0.0732 0.13214,0.0389 m -0.26286,-0.0824 0.13072,0.0435 m -0.25984,-0.0915 0.12912,0.048 m -0.25651,-0.10044 0.12739,0.0524 m -0.25287,-0.10923 0.12548,0.0568 m -0.24892,-0.11795 0.12344,0.0611 m -0.24468,-0.1265 0.12124,0.0654 m -0.24014,-0.13497 0.1189,0.0696 m -0.23531,-0.14325 0.11641,0.0736 m -0.2302,-0.15125 0.11379,0.0777 m -0.22481,-0.15925 0.11102,0.0815 m -0.21915,-0.16685 0.10813,0.0854 m -0.21323,-0.17445 0.1051,0.089 m -0.20704,-0.18165 0.10194,0.0926 m -0.20061,-0.18873 0.0987,0.0961 m -0.19397,-0.1956 0.0953,0.0995 m -0.18706,-0.20225 0.0918,0.10275 m -0.17994,-0.20861 0.0881,0.10586 m -0.17251,-0.21472 0.0844,0.10886 m -0.16498,-0.22059 0.0806,0.11173 m -0.15726,-0.22619 0.0767,0.11446 m -0.14934,-0.2315 0.0726,0.11704 m -0.14113,-0.23654 0.0685,0.1195 m -0.13284,-0.24131 0.0643,0.12181 m -0.12438,-0.24577 0.0601,0.12396 m -0.11584,-0.24993 0.0557,0.12597 m -0.10703,-0.25381 0.0513,0.12784 m -0.0982,-0.25738 0.0469,0.12954 m -0.0892,-0.26062 0.0423,0.13108 m -0.0801,-0.26356 0.0378,0.13248 m -0.0709,-0.26619 0.0331,0.13371 m -0.0616,-0.26848 0.0285,0.13477 m -0.0523,-0.27046 0.0238,0.13569 m -0.0429,-0.27212 0.0191,0.13643 m -0.0334,-0.27344 0.0143,0.13701 m -0.0239,-0.27443 0.01,0.13742 m -0.0148,-0.27509 0.005,0.13767 m -0.005,-0.27542 v 0.13775 m 0.005,-0.27543 -0.005,0.13768 m 0.0146,-0.2751 -0.01,0.13742 m 0.0243,-0.27443 -0.0143,0.13701 m 0.0334,-0.27344 -0.0191,0.13643 m 0.0429,-0.27211 -0.0238,0.13568 m 0.0523,-0.27046 -0.0285,0.13478 m 0.0616,-0.26849 -0.0331,0.13371 m 0.0709,-0.26618 -0.0378,0.13247 m 0.0801,-0.26356 -0.0423,0.13109 m 0.0892,-0.26063 -0.0469,0.12954 m 0.0982,-0.25737 -0.0513,0.12783 m 0.10704,-0.2538 -0.0557,0.12597 m 0.11578,-0.24994 -0.0601,0.12397 m 0.12444,-0.24577 -0.0643,0.1218 m 0.13283,-0.2413 -0.0685,0.1195 m 0.14114,-0.23655 -0.0726,0.11705 m 0.14926,-0.2315 -0.0767,0.11445 m 0.15728,-0.22618 -0.0806,0.11173 m 0.16501,-0.22059 -0.0844,0.10886 m 0.17254,-0.21473 -0.0881,0.10587 m 0.17986,-0.20861 -0.0918,0.10274 m 0.18707,-0.20224 -0.0953,0.0995 m 0.19397,-0.19563 -0.0987,0.0961 m 0.20064,-0.18875 -0.10194,0.0926 m 0.20704,-0.18165 -0.1051,0.0891 m 0.21323,-0.17446 -0.10813,0.0854 m 0.21915,-0.16695 -0.11102,0.0815 m 0.22481,-0.15914 -0.11379,0.0776 m 0.2302,-0.15126 -0.11641,0.0737 m 0.23531,-0.14326 -0.1189,0.0696 m 0.24014,-0.135 -0.12124,0.0654 m 0.24468,-0.12655 -0.12344,0.0611 m 0.24892,-0.11793 -0.12548,0.0568 m 0.25287,-0.10924 -0.12739,0.0524 m 0.25651,-0.10039 -0.12912,0.048 m 0.25984,-0.0915 -0.13072,0.0435 m 0.26286,-0.0824 -0.13214,0.0389 m 0.26555,-0.0732 -0.13341,0.0343 m 0.26794,-0.064 -0.13453,0.0297 m 0.27,-0.0547 -0.13547,0.025 m 0.27173,-0.0453 -0.13626,0.0203 m 0.27314,-0.0358 -0.13688,0.0155 m 0.27421,-0.0263 -0.13733,0.0107 m 0.27496,-0.0167 -0.13763,0.006 m 0.27538,-0.007 -0.13775,0.001 m 0.27546,0.003 -0.13771,-0.004 m 0.27521,0.0124 -0.1375,-0.008 m 0.27462,0.0211 -0.13712,-0.0131 m 0.27371,0.031 -0.13659,-0.0179 m 0.27248,0.0405 -0.13589,-0.0226 m 0.27091,0.0499 -0.13502,-0.0273 m 0.26901,0.0593 -0.13399,-0.032 m 0.26679,0.0686 -0.1328,-0.0366 m 0.26425,0.0778 -0.13145,-0.0412 m 0.26139,0.0869 -0.12994,-0.0457 m 0.25821,0.0959 -0.12827,-0.0502 m 0.25472,0.10484 -0.12645,-0.0546 m 0.25094,0.1136 -0.12449,-0.059 m 0.24684,0.12228 -0.12235,-0.0633 m 0.24244,0.1308 -0.12009,-0.0675 m 0.23777,0.13911 -0.11768,-0.0716 m 0.23279,0.14727 -0.11511,-0.0757 m 0.22753,0.15531 -0.11242,-0.0796 m 0.22201,0.16306 -0.10959,-0.0835 m 0.21622,0.17072 -0.10663,-0.0872 m 0.21017,0.17806 -0.10354,-0.0909 m 0.20386,0.18531 -0.10032,-0.0944 m 0.1973,0.19223 -0.097,-0.0978 m 0.19053,0.19893 -0.0935,-0.10113 m 0.18347,0.20545 -0.09,-0.10432 m 0.17628,0.2117 -0.0863,-0.10738 m 0.16881,0.21769 -0.0825,-0.11031 m 0.16114,0.22342 -0.0786,-0.11311 m 0.15325,0.22888 -0.0746,-0.11577 m 0.1452,0.23406 -0.0706,-0.11829 m 0.13705,0.23896 -0.0665,-0.12067 m 0.12872,0.24357 -0.0622,-0.1229 m 0.12011,0.24789 -0.0579,-0.12499 m 0.11145,0.25191 -0.0536,-0.12692 m 0.1027,0.25563 -0.0491,-0.12871 m 0.0937,0.25904 -0.0446,-0.13033 m 0.0847,0.26213 -0.0401,-0.1318 m 0.0756,0.26491 -0.0355,-0.13311 m 0.0663,0.26738 -0.0308,-0.13427 m 0.0569,0.26952 -0.0262,-0.13525 m 0.0476,0.27133 -0.0214,-0.13608 m 0.0381,0.27281 -0.0167,-0.13673 m 0.0286,0.27397 -0.0119,-0.13724 m 0.0191,0.27481 -0.007,-0.13757 m 0.009,0.2753 -0.002,-0.13773"
       style="fill:none;stroke:#0000ff;stroke-width:0.755906;stroke-linecap:round;stroke-miterlimit:4;stroke-dasharray:none;stroke-opacity:1"
       id="path740" />
    <path
       d="m 501.75745,313.72435 0.002,-0.13774 m -0.009,0.2753 0.007,-0.13756 m -0.0189,0.2748 0.0119,-0.13724 m -0.0286,0.27398 0.0167,-0.13674 m -0.0381,0.27282 0.0214,-0.13608 m -0.0475,0.27133 0.0261,-0.13525 m -0.0569,0.26951 0.0308,-0.13426 m -0.0663,0.26737 0.0355,-0.13311 m -0.0756,0.26492 0.0401,-0.13181 m -0.0847,0.26214 0.0446,-0.13033 m -0.0937,0.25903 0.0491,-0.1287 m -0.10265,0.25562 0.0535,-0.12692 m -0.11141,0.25191 0.0579,-0.12499 m -0.12012,0.2479 0.0622,-0.12291 m -0.12865,0.24357 0.0665,-0.12066 m -0.1371,0.23895 0.0706,-0.11829 m -0.14526,0.23406 0.0747,-0.11577 m -0.15333,0.22888 0.0786,-0.11311 m -0.16111,0.22342 0.0825,-0.11031 m -0.16879,0.21769 0.0863,-0.10738 m -0.17626,0.2117 0.09,-0.10432 m -0.18353,0.20546 0.0935,-0.10114 m -0.19048,0.19897 0.097,-0.0978 m -0.19732,0.1922 0.10032,-0.0944 m -0.20386,0.18527 0.10354,-0.0909 m -0.21017,0.17812 0.10663,-0.0872 m -0.21622,0.17066 0.10959,-0.0835 m -0.22201,0.16311 0.11242,-0.0796 m -0.22754,0.15526 0.11512,-0.0757 m -0.23279,0.14732 0.11767,-0.0716 m -0.23776,0.13909 0.12009,-0.0675 m -0.24245,0.13079 0.12236,-0.0633 m -0.24684,0.1223 0.12448,-0.059 m -0.25093,0.11364 0.12645,-0.0546 m -0.25472,0.10482 0.12827,-0.0502 m -0.25821,0.0959 0.12994,-0.0457 m -0.26139,0.0869 0.13145,-0.0412 m -0.26425,0.0778 0.1328,-0.0366 m -0.26679,0.0686 0.13399,-0.032 m -0.26901,0.0593 0.13502,-0.0273 m -0.27091,0.0499 0.13589,-0.0226 m -0.27248,0.0405 0.13659,-0.0179 m -0.27371,0.031 0.13712,-0.0131 m -0.27463,0.0215 0.13751,-0.008 m -0.27521,0.0116 0.1377,-0.004 m -0.27545,0.003 0.13775,10e-4 m -0.27538,-0.007 0.13763,0.006 m -0.27496,-0.0168 0.13733,0.0108 m -0.27421,-0.0263 0.13688,0.0155 m -0.27314,-0.0358 0.13626,0.0203 m -0.27173,-0.0453 0.13547,0.025 m -0.27,-0.0547 0.13453,0.0297 m -0.26794,-0.064 0.13341,0.0343 m -0.26556,-0.0732 0.13215,0.0389 m -0.26286,-0.0824 0.13071,0.0435 m -0.25984,-0.0915 0.12913,0.048 m -0.25651,-0.10044 0.12738,0.0524 m -0.25287,-0.10923 0.12549,0.0568 m -0.24892,-0.11795 0.12343,0.0611 m -0.24467,-0.1265 0.12124,0.0654 m -0.24014,-0.13497 0.1189,0.0696 m -0.23532,-0.14325 0.11642,0.0736 m -0.2302,-0.15125 0.11378,0.0777 m -0.2248,-0.15925 0.11102,0.0815 m -0.21915,-0.16685 0.10813,0.0854 m -0.21323,-0.17445 0.1051,0.089 m -0.20704,-0.18165 0.10194,0.0926 m -0.20061,-0.18873 0.0987,0.0961 m -0.19397,-0.1956 0.0953,0.0995 m -0.18706,-0.20225 0.0918,0.10275 m -0.17994,-0.20861 0.0881,0.10586 m -0.17251,-0.21472 0.0844,0.10886 m -0.16498,-0.22059 0.0806,0.11173 m -0.15726,-0.22619 0.0767,0.11446 m -0.14934,-0.2315 0.0726,0.11704 m -0.14113,-0.23654 0.0685,0.1195 m -0.13284,-0.24131 0.0643,0.12181 m -0.12438,-0.24577 0.0601,0.12396 m -0.11584,-0.24993 0.0557,0.12597 m -0.10703,-0.25381 0.0513,0.12784 m -0.0982,-0.25738 0.0469,0.12954 m -0.0892,-0.26062 0.0423,0.13108 m -0.0801,-0.26356 0.0378,0.13248 m -0.0709,-0.26619 0.0331,0.13371 m -0.0616,-0.26848 0.0285,0.13477 m -0.0523,-0.27046 0.0238,0.13569 m -0.0429,-0.27212 0.0191,0.13643 m -0.0334,-0.27344 0.0143,0.13701 m -0.0239,-0.27443 0.01,0.13742 m -0.0148,-0.27509 0.005,0.13767 m -0.005,-0.27542 v 0.13775 m 0.005,-0.27543 -0.005,0.13768 m 0.0146,-0.2751 -0.01,0.13742 m 0.0243,-0.27443 -0.0143,0.13701 m 0.0334,-0.27344 -0.0191,0.13643 m 0.0429,-0.27211 -0.0238,0.13568 m 0.0523,-0.27046 -0.0285,0.13478 m 0.0616,-0.26849 -0.0331,0.13371 m 0.0709,-0.26618 -0.0378,0.13247 m 0.0801,-0.26356 -0.0423,0.13109 m 0.0892,-0.26063 -0.0469,0.12954 m 0.0982,-0.25737 -0.0513,0.12783 m 0.10704,-0.2538 -0.0557,0.12597 m 0.11578,-0.24994 -0.0601,0.12397 m 0.12444,-0.24577 -0.0643,0.1218 m 0.13283,-0.2413 -0.0685,0.1195 m 0.14114,-0.23655 -0.0726,0.11705 m 0.14926,-0.2315 -0.0767,0.11445 m 0.15728,-0.22618 -0.0806,0.11173 m 0.16501,-0.22059 -0.0844,0.10886 m 0.17254,-0.21473 -0.0881,0.10587 m 0.17986,-0.20861 -0.0918,0.10274 m 0.18707,-0.20224 -0.0953,0.0995 m 0.19397,-0.19563 -0.0987,0.0961 m 0.20064,-0.18875 -0.10194,0.0926 m 0.20704,-0.18165 -0.1051,0.0891 m 0.21323,-0.17446 -0.10813,0.0854 m 0.21915,-0.16695 -0.11102,0.0815 m 0.2248,-0.15914 -0.11378,0.0776 m 0.2302,-0.15126 -0.11642,0.0737 m 0.23532,-0.14326 -0.1189,0.0696 m 0.24014,-0.135 -0.12124,0.0654 m 0.24467,-0.12655 -0.12343,0.0611 m 0.24892,-0.11793 -0.12549,0.0568 m 0.25287,-0.10924 -0.12738,0.0524 m 0.25651,-0.10039 -0.12913,0.048 m 0.25984,-0.0915 -0.13071,0.0435 m 0.26286,-0.0824 -0.13215,0.0389 m 0.26556,-0.0732 -0.13341,0.0343 m 0.26794,-0.064 -0.13453,0.0297 m 0.27,-0.0547 -0.13547,0.025 m 0.27173,-0.0453 -0.13626,0.0203 m 0.27314,-0.0358 -0.13688,0.0155 m 0.27421,-0.0263 -0.13733,0.0107 m 0.27496,-0.0167 -0.13763,0.006 m 0.27538,-0.007 -0.13775,10e-4 m 0.27545,0.003 -0.1377,-0.004 m 0.27521,0.0124 -0.13751,-0.008 m 0.27463,0.0211 -0.13712,-0.0131 m 0.27371,0.031 -0.13659,-0.0179 m 0.27248,0.0405 -0.13589,-0.0226 m 0.27091,0.0499 -0.13502,-0.0273 m 0.26901,0.0593 -0.13399,-0.032 m 0.26679,0.0686 -0.1328,-0.0366 m 0.26425,0.0778 -0.13145,-0.0412 m 0.26139,0.0869 -0.12994,-0.0457 m 0.25821,0.0959 -0.12827,-0.0502 m 0.25472,0.10484 -0.12645,-0.0546 m 0.25093,0.1136 -0.12448,-0.059 m 0.24684,0.12228 -0.12236,-0.0633 m 0.24245,0.1308 -0.12009,-0.0675 m 0.23776,0.13911 -0.11767,-0.0716 m 0.23279,0.14727 -0.11512,-0.0757 m 0.22754,0.15531 -0.11242,-0.0796 m 0.22201,0.16306 -0.10959,-0.0835 m 0.21622,0.17072 -0.10663,-0.0872 m 0.21017,0.17806 -0.10354,-0.0909 m 0.20386,0.18531 -0.10032,-0.0944 m 0.1973,0.19223 -0.097,-0.0978 m 0.19053,0.19893 -0.0935,-0.10113 m 0.18346,0.20545 -0.09,-0.10432 m 0.17629,0.2117 -0.0863,-0.10738 m 0.16881,0.21769 -0.0825,-0.11031 m 0.16113,0.22342 -0.0786,-0.11311 m 0.15326,0.22888 -0.0747,-0.11577 m 0.1453,0.23406 -0.0706,-0.11829 m 0.13705,0.23896 -0.0665,-0.12067 m 0.12872,0.24357 -0.0622,-0.1229 m 0.12011,0.24789 -0.0579,-0.12499 m 0.11145,0.25191 -0.0535,-0.12692 m 0.1026,0.25563 -0.0491,-0.12871 m 0.0937,0.25904 -0.0446,-0.13033 m 0.0847,0.26213 -0.0401,-0.1318 m 0.0756,0.26491 -0.0355,-0.13311 m 0.0663,0.26738 -0.0308,-0.13427 m 0.0569,0.26952 -0.0261,-0.13525 m 0.0475,0.27133 -0.0214,-0.13608 m 0.0381,0.27281 -0.0167,-0.13673 m 0.0286,0.27397 -0.0119,-0.13724 m 0.0191,0.27481 -0.007,-0.13757 m 0.009,0.2753 -0.002,-0.13773"
       style="fill:none;stroke:#0000ff;stroke-width:0.755906;stroke-linecap:round;stroke-miterlimit:4;stroke-dasharray:none;stroke-opacity:1"
       id="path1102" />
    <path
       d="m 205.91332,525.6205 -0.13773,-0.002 m 0.2753,0.009 -0.13757,-0.007 m 0.27481,0.0189 -0.13724,-0.0119 m 0.27398,0.0286 -0.13674,-0.0167 m 0.27281,0.0381 -0.13607,-0.0214 m 0.27133,0.0475 -0.13526,-0.0261 m 0.26952,0.0569 -0.13426,-0.0308 m 0.26737,0.0663 -0.13311,-0.0355 m 0.26491,0.0756 -0.1318,-0.0401 m 0.26213,0.0847 -0.13033,-0.0446 m 0.25904,0.0937 -0.12871,-0.0491 m 0.25563,0.10265 -0.12692,-0.0535 m 0.25191,0.11141 -0.12499,-0.0579 m 0.24789,0.12012 -0.1229,-0.0622 m 0.24357,0.12865 -0.12067,-0.0665 m 0.23896,0.1371 -0.11829,-0.0706 m 0.23406,0.14526 -0.11577,-0.0747 m 0.22888,0.15333 -0.11311,-0.0786 m 0.22342,0.16111 -0.11031,-0.0825 m 0.21769,0.16879 -0.10738,-0.0863 m 0.2117,0.17626 -0.10432,-0.09 m 0.20546,0.18353 -0.10114,-0.0935 m 0.19897,0.19048 -0.0978,-0.097 m 0.1922,0.19732 -0.0944,-0.10032 m 0.18527,0.20386 -0.0909,-0.10354 m 0.17811,0.21017 -0.0872,-0.10663 m 0.17067,0.21622 -0.0835,-0.10959 m 0.16311,0.22201 -0.0796,-0.11242 m 0.15526,0.22754 -0.0757,-0.11512 m 0.14732,0.23279 -0.0716,-0.11767 m 0.13909,0.23776 -0.0675,-0.12009 m 0.13078,0.24245 -0.0633,-0.12236 m 0.1223,0.24684 -0.059,-0.12448 m 0.11364,0.25093 -0.0546,-0.12645 m 0.10483,0.25472 -0.0502,-0.12827 m 0.0959,0.25821 -0.0457,-0.12994 m 0.0869,0.26139 -0.0412,-0.13145 m 0.0778,0.26425 -0.0366,-0.1328 m 0.0686,0.26679 -0.032,-0.13399 m 0.0593,0.26901 -0.0273,-0.13502 m 0.0499,0.27091 -0.0226,-0.13589 m 0.0405,0.27248 -0.0179,-0.13659 m 0.031,0.27371 -0.0131,-0.13712 m 0.0215,0.27463 -0.008,-0.13751 m 0.0116,0.27521 -0.004,-0.1377 m 0.003,0.27545 0.001,-0.13775 m -0.007,0.27538 0.006,-0.13763 m -0.0168,0.27496 0.0108,-0.13733 m -0.0263,0.27421 0.0155,-0.13688 m -0.0358,0.27314 0.0202,-0.13626 m -0.0452,0.27173 0.025,-0.13547 m -0.0547,0.27 0.0296,-0.13453 m -0.0639,0.26794 0.0343,-0.13341 m -0.0732,0.26556 0.0389,-0.13215 m -0.0824,0.26286 0.0435,-0.13071 m -0.0915,0.25984 0.048,-0.12913 m -0.10044,0.25651 0.0524,-0.12738 m -0.10923,0.25287 0.0568,-0.12549 m -0.11795,0.24892 0.0611,-0.12343 m -0.1265,0.24467 0.0654,-0.12124 m -0.13496,0.24014 0.0696,-0.1189 m -0.14325,0.23532 0.0736,-0.11642 m -0.15125,0.2302 0.0777,-0.11378 m -0.15925,0.2248 0.0815,-0.11102 m -0.16685,0.21915 0.0854,-0.10813 m -0.17446,0.21323 0.0891,-0.1051 m -0.18175,0.20704 0.0927,-0.10194 m -0.18883,0.20061 0.0961,-0.0987 m -0.1956,0.19397 0.0995,-0.0953 m -0.20224,0.18706 0.10274,-0.0918 m -0.20861,0.17994 0.10587,-0.0881 m -0.21473,0.17251 0.10886,-0.0844 m -0.22058,0.16498 0.11172,-0.0806 m -0.22618,0.15726 0.11446,-0.0767 m -0.23151,0.14934 0.11705,-0.0726 m -0.23655,0.14113 0.1195,-0.0685 m -0.2413,0.13284 0.1218,-0.0643 m -0.24576,0.12438 0.12396,-0.0601 m -0.24994,0.11584 0.12598,-0.0557 m -0.25381,0.10703 0.12783,-0.0513 m -0.25737,0.0982 0.12954,-0.0469 m -0.26063,0.0892 0.13109,-0.0423 m -0.26356,0.0801 0.13247,-0.0378 m -0.26618,0.0709 0.13371,-0.0331 m -0.26849,0.0616 0.13478,-0.0285 m -0.27046,0.0523 0.13568,-0.0238 m -0.27211,0.0429 0.13643,-0.0191 m -0.27344,0.0334 0.13701,-0.0143 m -0.27443,0.0239 0.13742,-0.01 m -0.27509,0.0148 0.13767,-0.005 m -0.27543,0.005 h 0.13776 m -0.27543,-0.005 0.13767,0.005 m -0.27509,-0.0146 0.13742,0.01 m -0.27443,-0.0243 0.13701,0.0143 m -0.27344,-0.0334 0.13643,0.0191 m -0.27211,-0.0429 0.13568,0.0238 m -0.27046,-0.0523 0.13478,0.0285 m -0.26849,-0.0616 0.13371,0.0331 m -0.26619,-0.0709 0.13248,0.0378 m -0.26356,-0.0801 0.13108,0.0423 m -0.26062,-0.0892 0.12954,0.0469 m -0.25737,-0.0982 0.12783,0.0513 m -0.25381,-0.10704 0.12598,0.0557 m -0.24994,-0.11578 0.12396,0.0601 m -0.24577,-0.12444 0.12181,0.0643 m -0.2413,-0.13283 0.11949,0.0685 m -0.23654,-0.14114 0.11705,0.0726 m -0.23151,-0.14926 0.11446,0.0767 m -0.22618,-0.15728 0.11172,0.0806 m -0.22059,-0.16501 0.10887,0.0844 m -0.21473,-0.17254 0.10586,0.0881 m -0.20861,-0.17986 0.10275,0.0918 m -0.20224,-0.18707 0.0995,0.0953 m -0.19564,-0.19397 0.0961,0.0987 m -0.18874,-0.20064 0.0926,0.10194 m -0.18166,-0.20704 0.0891,0.1051 m -0.17445,-0.21323 0.0853,0.10813 m -0.16685,-0.21915 0.0816,0.11102 m -0.15925,-0.2248 0.0776,0.11378 m -0.15125,-0.2302 0.0737,0.11642 m -0.14327,-0.23532 0.0696,0.1189 m -0.13499,-0.24014 0.0654,0.12124 m -0.12655,-0.24467 0.0611,0.12343 m -0.11793,-0.24892 0.0568,0.12549 m -0.10924,-0.25287 0.0524,0.12738 m -0.10039,-0.25651 0.048,0.12913 m -0.0915,-0.25984 0.0435,0.13071 m -0.0824,-0.26286 0.0389,0.13215 m -0.0732,-0.26556 0.0343,0.13341 m -0.064,-0.26794 0.0297,0.13453 m -0.0547,-0.27 0.025,0.13547 m -0.0452,-0.27173 0.0203,0.13626 m -0.0358,-0.27314 0.0155,0.13688 m -0.0262,-0.27421 0.0107,0.13733 m -0.0167,-0.27496 0.006,0.13763 m -0.007,-0.27538 0.001,0.13775 m 0.003,-0.27545 -0.004,0.1377 m 0.0124,-0.27521 -0.008,0.13751 m 0.0211,-0.27463 -0.0131,0.13712 m 0.031,-0.27371 -0.0179,0.13659 m 0.0405,-0.27248 -0.0226,0.13589 m 0.0499,-0.27091 -0.0273,0.13502 m 0.0593,-0.26901 -0.032,0.13399 m 0.0686,-0.26679 -0.0366,0.1328 m 0.0778,-0.26425 -0.0412,0.13145 m 0.0869,-0.26139 -0.0457,0.12994 m 0.0959,-0.25821 -0.0502,0.12827 m 0.10485,-0.25472 -0.0547,0.12645 m 0.1137,-0.25093 -0.059,0.12448 m 0.12228,-0.24684 -0.0633,0.12236 m 0.13079,-0.24245 -0.0675,0.12009 m 0.13912,-0.23776 -0.0716,0.11767 m 0.14726,-0.23279 -0.0757,0.11512 m 0.15531,-0.22754 -0.0796,0.11242 m 0.16307,-0.22201 -0.0835,0.10959 m 0.17071,-0.21622 -0.0872,0.10663 m 0.17807,-0.21017 -0.0909,0.10354 m 0.1853,-0.20386 -0.0944,0.10032 m 0.19223,-0.1973 -0.0978,0.097 m 0.19894,-0.19053 -0.10114,0.0935 m 0.20546,-0.18346 -0.10432,0.09 m 0.2117,-0.17629 -0.10738,0.0863 m 0.21769,-0.16881 -0.11031,0.0825 m 0.22342,-0.16113 -0.11311,0.0786 m 0.22888,-0.15326 -0.11577,0.0747 m 0.23406,-0.1453 -0.11829,0.0706 m 0.23896,-0.13705 -0.12067,0.0665 m 0.24357,-0.12872 -0.1229,0.0622 m 0.24789,-0.12011 -0.12499,0.0579 m 0.25191,-0.11145 -0.12692,0.0535 m 0.25563,-0.1026 -0.12871,0.0491 m 0.25904,-0.0937 -0.13033,0.0446 m 0.26213,-0.0847 -0.1318,0.0401 m 0.26491,-0.0756 -0.13311,0.0355 m 0.26737,-0.0663 -0.13426,0.0308 m 0.26951,-0.0569 -0.13525,0.0261 m 0.27133,-0.0475 -0.13608,0.0214 m 0.27282,-0.0381 -0.13674,0.0167 m 0.27398,-0.0286 -0.13724,0.0119 m 0.27481,-0.0191 -0.13757,0.007 m 0.2753,-0.009 -0.13773,0.002"
       style="fill:none;stroke:#0000ff;stroke-width:0.755906;stroke-linecap:round;stroke-miterlimit:4;stroke-dasharray:none;stroke-opacity:1"
       id="path1464" />
    <path
       d="m 299.74259,313.72503 0.002,-0.13773 m -0.009,0.2753 0.007,-0.13757 m -0.0189,0.27481 0.0119,-0.13724 m -0.0286,0.27398 0.0167,-0.13674 m -0.0381,0.27282 0.0214,-0.13608 m -0.0475,0.27133 0.0261,-0.13525 m -0.0569,0.26951 0.0308,-0.13426 m -0.0663,0.26737 0.0355,-0.13311 m -0.0756,0.26491 0.0401,-0.1318 m -0.0847,0.26213 0.0446,-0.13033 m -0.0937,0.25904 0.0491,-0.12871 m -0.10264,0.25563 0.0535,-0.12692 m -0.11142,0.25191 0.0579,-0.12499 m -0.12012,0.24789 0.0622,-0.1229 m -0.12865,0.24357 0.0665,-0.12067 m -0.13709,0.23896 0.0706,-0.11829 m -0.14526,0.23406 0.0747,-0.11577 m -0.15333,0.22888 0.0786,-0.11311 m -0.16111,0.22342 0.0825,-0.11031 m -0.16879,0.21769 0.0863,-0.10738 m -0.17626,0.2117 0.09,-0.10432 m -0.18353,0.20546 0.0935,-0.10114 m -0.19049,0.19897 0.097,-0.0978 m -0.19732,0.1922 0.10032,-0.0944 m -0.20385,0.18527 0.10353,-0.0909 m -0.21016,0.17811 0.10663,-0.0872 m -0.21622,0.17067 0.10959,-0.0835 m -0.22201,0.16311 0.11242,-0.0796 m -0.22754,0.15526 0.11512,-0.0757 m -0.23279,0.14732 0.11767,-0.0716 m -0.23776,0.13909 0.12009,-0.0675 m -0.24245,0.13078 0.12236,-0.0633 m -0.24684,0.1223 0.12448,-0.059 m -0.25093,0.11365 0.12645,-0.0546 m -0.25473,0.10482 0.12828,-0.0502 m -0.25822,0.0959 0.12994,-0.0457 m -0.26139,0.0869 0.13145,-0.0412 m -0.26425,0.0778 0.1328,-0.0366 m -0.26679,0.0686 0.13399,-0.032 m -0.26901,0.0593 0.13502,-0.0273 m -0.2709,0.0499 0.13588,-0.0226 m -0.27247,0.0405 0.13659,-0.0179 m -0.27372,0.031 0.13713,-0.0131 m -0.27463,0.0215 0.1375,-0.008 m -0.27521,0.0116 0.13771,-0.004 m -0.27546,0.003 0.13775,0.001 m -0.27537,-0.007 0.13762,0.006 m -0.27496,-0.0167 0.13734,0.0107 m -0.27421,-0.0262 0.13687,0.0155 m -0.27313,-0.0358 0.13626,0.0202 m -0.27174,-0.0452 0.13548,0.025 m -0.27,-0.0546 0.13452,0.0297 m -0.26794,-0.064 0.13342,0.0343 m -0.26556,-0.0732 0.13214,0.0389 m -0.26285,-0.0824 0.13071,0.0435 m -0.25984,-0.0915 0.12913,0.048 m -0.25651,-0.10044 0.12738,0.0524 m -0.25287,-0.10923 0.12549,0.0568 m -0.24893,-0.11795 0.12344,0.0611 m -0.24468,-0.12649 0.12124,0.0654 m -0.24014,-0.13497 0.1189,0.0696 m -0.23531,-0.14325 0.11641,0.0736 m -0.2302,-0.15125 0.11379,0.0777 m -0.22481,-0.15925 0.11102,0.0815 m -0.21914,-0.16685 0.10812,0.0854 m -0.21322,-0.17446 0.1051,0.0891 m -0.20705,-0.18175 0.10195,0.0926 m -0.20061,-0.18873 0.0987,0.0961 m -0.19397,-0.19559 0.0953,0.0995 m -0.18706,-0.20225 0.0918,0.10275 m -0.17994,-0.20861 0.0881,0.10586 m -0.17252,-0.21473 0.0844,0.10887 m -0.16498,-0.22059 0.0806,0.11172 m -0.15725,-0.22618 0.0767,0.11446 m -0.14934,-0.23151 0.0726,0.11705 m -0.14113,-0.23654 0.0685,0.11949 m -0.13285,-0.2413 0.0643,0.12181 m -0.12438,-0.24577 0.0601,0.12396 m -0.11583,-0.24994 0.0557,0.12598 m -0.10704,-0.25381 0.0513,0.12783 m -0.0982,-0.25737 0.0469,0.12954 m -0.0892,-0.26062 0.0423,0.13108 m -0.0801,-0.26356 0.0378,0.13248 m -0.0709,-0.26619 0.0331,0.13371 m -0.0616,-0.26849 0.0285,0.13478 m -0.0523,-0.27046 0.0238,0.13568 m -0.0429,-0.27211 0.0191,0.13643 m -0.0334,-0.27344 0.0143,0.13701 m -0.0238,-0.27443 0.01,0.13742 m -0.0148,-0.27509 0.005,0.13767 m -0.005,-0.27543 v 0.13776 m 0.005,-0.27543 -0.005,0.13767 m 0.0145,-0.27509 -0.01,0.13742 m 0.0243,-0.27443 -0.0143,0.13701 m 0.0334,-0.27344 -0.0191,0.13643 m 0.0429,-0.27211 -0.0238,0.13568 m 0.0523,-0.27046 -0.0285,0.13478 m 0.0616,-0.26849 -0.0331,0.13371 m 0.0709,-0.26618 -0.0378,0.13247 m 0.0801,-0.26356 -0.0423,0.13109 m 0.0892,-0.26063 -0.0469,0.12954 m 0.0982,-0.25737 -0.0513,0.12783 m 0.10703,-0.25381 -0.0557,0.12598 m 0.11578,-0.24994 -0.0601,0.12396 m 0.12445,-0.24576 -0.0643,0.1218 m 0.13283,-0.2413 -0.0685,0.1195 m 0.14114,-0.23655 -0.0726,0.11705 m 0.14925,-0.23151 -0.0767,0.11446 m 0.15728,-0.22618 -0.0806,0.11172 m 0.16502,-0.22058 -0.0844,0.10886 m 0.17254,-0.21473 -0.0881,0.10587 m 0.17986,-0.20861 -0.0918,0.10274 m 0.18707,-0.20224 -0.0953,0.0995 m 0.19396,-0.19563 -0.0987,0.0961 m 0.20065,-0.18875 -0.10195,0.0927 m 0.20705,-0.18176 -0.1051,0.0891 m 0.21322,-0.17445 -0.10812,0.0854 m 0.21914,-0.16695 -0.11102,0.0815 m 0.22481,-0.15915 -0.11379,0.0777 m 0.2302,-0.15135 -0.11641,0.0736 m 0.23531,-0.14316 -0.1189,0.0696 m 0.24014,-0.135 -0.12124,0.0654 m 0.24468,-0.12655 -0.12344,0.0611 m 0.24893,-0.11793 -0.12549,0.0568 m 0.25287,-0.10924 -0.12738,0.0524 m 0.25651,-0.10039 -0.12913,0.048 m 0.25984,-0.0915 -0.13071,0.0435 m 0.26285,-0.0824 -0.13214,0.0389 m 0.26556,-0.0732 -0.13342,0.0343 m 0.26794,-0.064 -0.13452,0.0297 m 0.27,-0.0547 -0.13548,0.025 m 0.27174,-0.0452 -0.13626,0.0203 m 0.27313,-0.0358 -0.13687,0.0155 m 0.27421,-0.0263 -0.13734,0.0107 m 0.27496,-0.0167 -0.13762,0.006 m 0.27537,-0.007 -0.13775,0.001 m 0.27546,0.003 -0.13771,-0.004 m 0.27521,0.0124 -0.1375,-0.008 m 0.27463,0.0211 -0.13713,-0.0131 m 0.27372,0.031 -0.13659,-0.0179 m 0.27247,0.0405 -0.13588,-0.0226 m 0.2709,0.0499 -0.13502,-0.0273 m 0.26901,0.0593 -0.13399,-0.032 m 0.26679,0.0686 -0.1328,-0.0366 m 0.26425,0.0778 -0.13145,-0.0412 m 0.26139,0.0869 -0.12994,-0.0457 m 0.25822,0.0959 -0.12828,-0.0502 m 0.25473,0.10485 -0.12645,-0.0547 m 0.25093,0.1137 -0.12448,-0.059 m 0.24684,0.12228 -0.12236,-0.0633 m 0.24245,0.13079 -0.12009,-0.0675 m 0.23776,0.13912 -0.11767,-0.0716 m 0.23279,0.14726 -0.11512,-0.0757 m 0.22754,0.15531 -0.11242,-0.0796 m 0.22201,0.16307 -0.10959,-0.0835 m 0.21622,0.17071 -0.10663,-0.0872 m 0.21016,0.17807 -0.10353,-0.0909 m 0.20385,0.1853 -0.10032,-0.0944 m 0.19731,0.19223 -0.097,-0.0978 m 0.19053,0.19894 -0.0935,-0.10114 m 0.18346,0.20546 -0.09,-0.10432 m 0.17629,0.2117 -0.0863,-0.10738 m 0.16881,0.21769 -0.0825,-0.11031 m 0.16113,0.22342 -0.0786,-0.11311 m 0.15326,0.22888 -0.0747,-0.11577 m 0.14529,0.23406 -0.0706,-0.11829 m 0.13705,0.23896 -0.0665,-0.12067 m 0.12872,0.24357 -0.0622,-0.1229 m 0.12012,0.24789 -0.0579,-0.12499 m 0.11144,0.25191 -0.0535,-0.12692 m 0.10261,0.25563 -0.0491,-0.12871 m 0.0937,0.25904 -0.0446,-0.13033 m 0.0847,0.26213 -0.0401,-0.1318 m 0.0756,0.26491 -0.0355,-0.13311 m 0.0663,0.26737 -0.0308,-0.13426 m 0.0569,0.26952 -0.0261,-0.13526 m 0.0475,0.27133 -0.0214,-0.13607 m 0.0381,0.27281 -0.0167,-0.13674 m 0.0286,0.27398 -0.0119,-0.13724 m 0.0191,0.27481 -0.007,-0.13757 m 0.009,0.2753 -0.002,-0.13773"
       style="fill:none;stroke:#0000ff;stroke-width:0.755906;stroke-linecap:round;stroke-miterlimit:4;stroke-dasharray:none;stroke-opacity:1"
       id="path1826" />
    <path
       d="m 501.84955,457.72503 0.002,-0.13773 m -0.009,0.2753 0.007,-0.13757 m -0.0189,0.27481 0.0119,-0.13724 m -0.0286,0.27398 0.0167,-0.13674 m -0.0381,0.27281 0.0214,-0.13607 m -0.0475,0.27133 0.0261,-0.13526 m -0.0569,0.26952 0.0308,-0.13426 m -0.0663,0.26737 0.0355,-0.13311 m -0.0756,0.26491 0.0401,-0.1318 m -0.0847,0.26213 0.0446,-0.13033 m -0.0937,0.25904 0.0491,-0.12871 m -0.10264,0.25563 0.0535,-0.12692 m -0.11142,0.25191 0.0579,-0.12499 m -0.12012,0.24789 0.0622,-0.1229 m -0.12865,0.24357 0.0664,-0.12067 m -0.13699,0.23896 0.0706,-0.11829 m -0.14526,0.23406 0.0747,-0.11577 m -0.15333,0.22888 0.0786,-0.11311 m -0.16111,0.22342 0.0825,-0.11031 m -0.16879,0.21769 0.0863,-0.10738 m -0.17626,0.2117 0.09,-0.10432 m -0.18353,0.20546 0.0935,-0.10114 m -0.19049,0.19897 0.097,-0.0978 m -0.19732,0.1922 0.10032,-0.0944 m -0.20386,0.18527 0.10354,-0.0909 m -0.21016,0.17811 0.10662,-0.0872 m -0.21621,0.17067 0.10959,-0.0835 m -0.22202,0.16311 0.11243,-0.0796 m -0.22754,0.15526 0.11511,-0.0757 m -0.23279,0.14732 0.11768,-0.0716 m -0.23776,0.13909 0.12008,-0.0675 m -0.24244,0.13078 0.12236,-0.0633 m -0.24684,0.1223 0.12448,-0.059 m -0.25094,0.11364 0.12646,-0.0546 m -0.25473,0.10483 0.12827,-0.0502 m -0.25821,0.0959 0.12994,-0.0457 m -0.26139,0.0869 0.13145,-0.0412 m -0.26425,0.0778 0.1328,-0.0366 m -0.26679,0.0686 0.13399,-0.032 m -0.26901,0.0593 0.13502,-0.0273 m -0.2709,0.0499 0.13588,-0.0226 m -0.27247,0.0405 0.13659,-0.0179 m -0.27372,0.031 0.13713,-0.0131 m -0.27463,0.0215 0.1375,-0.008 m -0.27521,0.0116 0.13771,-0.004 m -0.27546,0.003 0.13775,0.001 m -0.27537,-0.007 0.13762,0.006 m -0.27496,-0.0168 0.13734,0.0108 m -0.27422,-0.0263 0.13688,0.0155 m -0.27313,-0.0358 0.13625,0.0203 m -0.27173,-0.0453 0.13548,0.025 m -0.27,-0.0546 0.13452,0.0297 m -0.26794,-0.064 0.13342,0.0343 m -0.26556,-0.0732 0.13214,0.0389 m -0.26286,-0.0824 0.13072,0.0435 m -0.25984,-0.0915 0.12912,0.048 m -0.2565,-0.10044 0.12738,0.0524 m -0.25287,-0.10923 0.12549,0.0568 m -0.24893,-0.11795 0.12344,0.0611 m -0.24468,-0.1265 0.12124,0.0654 m -0.24014,-0.13496 0.1189,0.0696 m -0.23531,-0.14325 0.11641,0.0737 m -0.2302,-0.15135 0.11379,0.0776 m -0.22481,-0.15915 0.11102,0.0815 m -0.21915,-0.16685 0.10813,0.0854 m -0.21322,-0.17446 0.10509,0.0891 m -0.20704,-0.18175 0.10195,0.0927 m -0.20061,-0.18883 0.0987,0.0961 m -0.19398,-0.1956 0.0953,0.0995 m -0.18706,-0.20224 0.0918,0.10274 m -0.17994,-0.20861 0.0881,0.10587 m -0.17251,-0.21473 0.0844,0.10886 m -0.16498,-0.22058 0.0806,0.11172 m -0.15726,-0.22618 0.0767,0.11446 m -0.14933,-0.23151 0.0726,0.11705 m -0.14114,-0.23655 0.0685,0.1195 m -0.13284,-0.2413 0.0643,0.1218 m -0.12438,-0.24576 0.0601,0.12396 m -0.11584,-0.24994 0.0557,0.12598 m -0.10703,-0.25381 0.0513,0.12783 m -0.0982,-0.25737 0.0469,0.12954 m -0.0892,-0.26063 0.0423,0.13109 m -0.0801,-0.26356 0.0378,0.13247 m -0.0709,-0.26618 0.0331,0.13371 m -0.0616,-0.26849 0.0285,0.13478 m -0.0523,-0.27046 0.0238,0.13568 m -0.0429,-0.27211 0.0191,0.13643 m -0.0334,-0.27344 0.0143,0.13701 m -0.0238,-0.27443 0.01,0.13742 m -0.0148,-0.27509 0.005,0.13767 m -0.005,-0.27543 v 0.13776 m 0.005,-0.27543 -0.005,0.13767 m 0.0145,-0.27509 -0.01,0.13742 m 0.0243,-0.27443 -0.0143,0.13701 m 0.0334,-0.27344 -0.0191,0.13643 m 0.0429,-0.27211 -0.0238,0.13568 m 0.0523,-0.27046 -0.0285,0.13478 m 0.0616,-0.26849 -0.0331,0.13371 m 0.0709,-0.26619 -0.0378,0.13248 m 0.0801,-0.26356 -0.0423,0.13108 m 0.0892,-0.26062 -0.0469,0.12954 m 0.0982,-0.25737 -0.0513,0.12783 m 0.10704,-0.25381 -0.0557,0.12598 m 0.11578,-0.24994 -0.0601,0.12396 m 0.12444,-0.24577 -0.0643,0.12181 m 0.13284,-0.2413 -0.0685,0.11949 m 0.14113,-0.23654 -0.0726,0.11705 m 0.14926,-0.23151 -0.0767,0.11446 m 0.15728,-0.22618 -0.0806,0.11172 m 0.16501,-0.22059 -0.0844,0.10887 m 0.17254,-0.21473 -0.0881,0.10586 m 0.17986,-0.20861 -0.0918,0.10275 m 0.18708,-0.20224 -0.0953,0.0995 m 0.19396,-0.19564 -0.0987,0.0961 m 0.20065,-0.18874 -0.10195,0.0926 m 0.20704,-0.18166 -0.10509,0.0891 m 0.21322,-0.17445 -0.10813,0.0854 m 0.21915,-0.16695 -0.11102,0.0815 m 0.22481,-0.15915 -0.11379,0.0776 m 0.2302,-0.15125 -0.11641,0.0737 m 0.23531,-0.14327 -0.1189,0.0696 m 0.24014,-0.13499 -0.12124,0.0654 m 0.24468,-0.12655 -0.12344,0.0611 m 0.24893,-0.11793 -0.12549,0.0568 m 0.25287,-0.10924 -0.12738,0.0524 m 0.2565,-0.10039 -0.12912,0.048 m 0.25984,-0.0915 -0.13072,0.0435 m 0.26286,-0.0824 -0.13214,0.0389 m 0.26556,-0.0732 -0.13342,0.0343 m 0.26794,-0.064 -0.13452,0.0297 m 0.27,-0.0547 -0.13548,0.025 m 0.27173,-0.0452 -0.13625,0.0203 m 0.27313,-0.0358 -0.13688,0.0155 m 0.27422,-0.0262 -0.13734,0.0107 m 0.27496,-0.0167 -0.13762,0.006 m 0.27537,-0.007 -0.13775,0.001 m 0.27546,0.003 -0.13771,-0.004 m 0.27521,0.0124 -0.1375,-0.008 m 0.27463,0.0211 -0.13713,-0.0131 m 0.27372,0.031 -0.13659,-0.0179 m 0.27247,0.0405 -0.13588,-0.0226 m 0.2709,0.0499 -0.13502,-0.0273 m 0.26901,0.0593 -0.13399,-0.032 m 0.26679,0.0686 -0.1328,-0.0366 m 0.26425,0.0778 -0.13145,-0.0412 m 0.26139,0.0869 -0.12994,-0.0457 m 0.25821,0.0959 -0.12827,-0.0502 m 0.25473,0.10485 -0.12646,-0.0547 m 0.25094,0.1137 -0.12448,-0.059 m 0.24684,0.12228 -0.12236,-0.0633 m 0.24244,0.13079 -0.12008,-0.0675 m 0.23776,0.13912 -0.11768,-0.0716 m 0.23279,0.14726 -0.11511,-0.0757 m 0.22754,0.15531 -0.11243,-0.0796 m 0.22202,0.16307 -0.10959,-0.0835 m 0.21621,0.17071 -0.10662,-0.0872 m 0.21016,0.17807 -0.10354,-0.0909 m 0.20386,0.1853 -0.10032,-0.0944 m 0.19731,0.19223 -0.097,-0.0978 m 0.19053,0.19894 -0.0935,-0.10114 m 0.18346,0.20546 -0.09,-0.10432 m 0.17629,0.2117 -0.0863,-0.10738 m 0.16881,0.21769 -0.0825,-0.11031 m 0.16113,0.22342 -0.0786,-0.11311 m 0.15326,0.22888 -0.0747,-0.11577 m 0.14529,0.23406 -0.0706,-0.11829 m 0.13705,0.23896 -0.0664,-0.12067 m 0.12862,0.24357 -0.0622,-0.1229 m 0.12012,0.24789 -0.0579,-0.12499 m 0.11144,0.25191 -0.0535,-0.12692 m 0.10261,0.25563 -0.0491,-0.12871 m 0.0937,0.25904 -0.0446,-0.13033 m 0.0847,0.26213 -0.0401,-0.1318 m 0.0756,0.26491 -0.0355,-0.13311 m 0.0663,0.26737 -0.0308,-0.13426 m 0.0569,0.26951 -0.0261,-0.13525 m 0.0475,0.27133 -0.0214,-0.13608 m 0.0381,0.27282 -0.0167,-0.13674 m 0.0286,0.27398 -0.0119,-0.13724 m 0.0191,0.27481 -0.007,-0.13757 m 0.009,0.2753 -0.002,-0.13773"
       style="fill:none;stroke:#0000ff;stroke-width:0.755906;stroke-linecap:round;stroke-miterlimit:4;stroke-dasharray:none;stroke-opacity:1"
       id="path2188" />
    <path
       d="m 403.91332,553.42058 -0.13773,-0.002 m 0.2753,0.009 -0.13757,-0.007 m 0.27481,0.0189 -0.13724,-0.0119 m 0.27398,0.0286 -0.13674,-0.0167 m 0.27281,0.0381 -0.13607,-0.0214 m 0.27133,0.0475 -0.13526,-0.0261 m 0.26952,0.0569 -0.13426,-0.0308 m 0.26737,0.0663 -0.13311,-0.0355 m 0.26491,0.0756 -0.1318,-0.0401 m 0.26213,0.0847 -0.13033,-0.0446 m 0.25904,0.0937 -0.12871,-0.0491 m 0.25563,0.10265 -0.12692,-0.0535 m 0.25191,0.11141 -0.12499,-0.0579 m 0.24789,0.12012 -0.1229,-0.0622 m 0.24357,0.12865 -0.12067,-0.0665 m 0.23896,0.1371 -0.11829,-0.0706 m 0.23406,0.14526 -0.11577,-0.0747 m 0.22888,0.15333 -0.11311,-0.0786 m 0.22342,0.16111 -0.11031,-0.0825 m 0.21769,0.16879 -0.10738,-0.0863 m 0.2117,0.17626 -0.10432,-0.09 m 0.20546,0.18353 -0.10114,-0.0935 m 0.19897,0.19048 -0.0978,-0.097 m 0.1922,0.19732 -0.0944,-0.10032 m 0.18527,0.20386 -0.0909,-0.10354 m 0.17811,0.21017 -0.0872,-0.10663 m 0.17067,0.21622 -0.0835,-0.10959 m 0.16311,0.22201 -0.0796,-0.11242 m 0.15526,0.22754 -0.0757,-0.11512 m 0.14732,0.23279 -0.0716,-0.11767 m 0.13909,0.23776 -0.0675,-0.12009 m 0.13078,0.24245 -0.0633,-0.12236 m 0.1223,0.24684 -0.059,-0.12448 m 0.11364,0.25093 -0.0546,-0.12645 m 0.10483,0.25472 -0.0502,-0.12827 m 0.0959,0.25821 -0.0457,-0.12994 m 0.0869,0.26139 -0.0412,-0.13145 m 0.0778,0.26425 -0.0366,-0.1328 m 0.0686,0.26679 -0.032,-0.13399 m 0.0593,0.26901 -0.0273,-0.13502 m 0.0499,0.27091 -0.0226,-0.13589 m 0.0405,0.27248 -0.0179,-0.13659 m 0.031,0.27371 -0.0131,-0.13712 m 0.0215,0.27462 -0.008,-0.1375 m 0.0116,0.27521 -0.004,-0.13771 m 0.003,0.27546 10e-4,-0.13775 m -0.007,0.27538 0.006,-0.13763 m -0.0168,0.27496 0.0108,-0.13733 m -0.0263,0.27421 0.0155,-0.13688 m -0.0358,0.27314 0.0203,-0.13626 m -0.0453,0.27173 0.025,-0.13547 m -0.0546,0.27 0.0297,-0.13453 m -0.064,0.26794 0.0343,-0.13341 m -0.0732,0.26556 0.0389,-0.13215 m -0.0824,0.26286 0.0435,-0.13071 m -0.0915,0.25984 0.048,-0.12913 m -0.10044,0.25651 0.0524,-0.12738 m -0.10923,0.25286 0.0568,-0.12548 m -0.11795,0.24892 0.0611,-0.12344 m -0.1265,0.24468 0.0654,-0.12124 m -0.13496,0.24014 0.0696,-0.1189 m -0.14325,0.23531 0.0737,-0.11641 m -0.15135,0.2302 0.0776,-0.11379 m -0.15915,0.22481 0.0816,-0.11102 m -0.16695,0.21915 0.0854,-0.10813 m -0.17446,0.21323 0.0891,-0.1051 m -0.18175,0.20704 0.0926,-0.10194 m -0.18873,0.20061 0.0961,-0.0987 m -0.1956,0.19397 0.0995,-0.0953 m -0.20224,0.18706 0.10274,-0.0918 m -0.20861,0.17994 0.10587,-0.0881 m -0.21473,0.17251 0.10886,-0.0844 m -0.22058,0.16498 0.11172,-0.0806 m -0.22618,0.15726 0.11446,-0.0767 m -0.23151,0.14934 0.11705,-0.0726 m -0.23655,0.14113 0.1195,-0.0685 m -0.2413,0.13284 0.1218,-0.0643 m -0.24576,0.12438 0.12396,-0.0601 m -0.24994,0.11584 0.12598,-0.0557 m -0.25381,0.10703 0.12783,-0.0513 m -0.25737,0.0982 0.12954,-0.0469 m -0.26063,0.0892 0.13109,-0.0423 m -0.26356,0.0801 0.13247,-0.0378 m -0.26618,0.071 0.13371,-0.0332 m -0.26849,0.0617 0.13478,-0.0285 m -0.27046,0.0523 0.13568,-0.0238 m -0.27211,0.0429 0.13643,-0.0191 m -0.27344,0.0334 0.13701,-0.0143 m -0.27443,0.0239 0.13742,-0.01 m -0.27509,0.0148 0.13767,-0.005 m -0.27543,0.005 h 0.13776 m -0.27543,-0.005 0.13767,0.005 m -0.27509,-0.0146 0.13742,0.01 m -0.27443,-0.0243 0.13701,0.0143 m -0.27344,-0.0334 0.13643,0.0191 m -0.27211,-0.0429 0.13568,0.0238 m -0.27046,-0.0523 0.13478,0.0285 m -0.26849,-0.0616 0.13371,0.0332 m -0.26619,-0.071 0.13248,0.0378 m -0.26356,-0.0801 0.13108,0.0423 m -0.26062,-0.0892 0.12954,0.0469 m -0.25737,-0.0982 0.12783,0.0513 m -0.25381,-0.10704 0.12598,0.0557 m -0.24994,-0.11578 0.12396,0.0601 m -0.24577,-0.12444 0.12181,0.0643 m -0.2413,-0.13283 0.11949,0.0685 m -0.23654,-0.14114 0.11705,0.0726 m -0.23151,-0.14926 0.11446,0.0767 m -0.22618,-0.15728 0.11172,0.0806 m -0.22059,-0.16501 0.10887,0.0844 m -0.21473,-0.17254 0.10586,0.0881 m -0.20861,-0.17986 0.10275,0.0918 m -0.20224,-0.18707 0.0995,0.0953 m -0.19564,-0.19397 0.0961,0.0987 m -0.18874,-0.20064 0.0926,0.10194 m -0.18166,-0.20704 0.0891,0.1051 m -0.17445,-0.21323 0.0854,0.10813 m -0.16695,-0.21915 0.0815,0.11102 m -0.15915,-0.22481 0.0777,0.11379 m -0.15135,-0.2302 0.0736,0.11641 m -0.14317,-0.23531 0.0696,0.1189 m -0.13499,-0.24014 0.0654,0.12124 m -0.12655,-0.24468 0.0611,0.12344 m -0.11793,-0.24892 0.0568,0.12548 m -0.10924,-0.25286 0.0524,0.12738 m -0.10039,-0.25651 0.048,0.12913 m -0.0915,-0.25984 0.0435,0.13071 m -0.0824,-0.26286 0.0389,0.13215 m -0.0732,-0.26556 0.0343,0.13341 m -0.064,-0.26794 0.0297,0.13453 m -0.0547,-0.27 0.025,0.13547 m -0.0453,-0.27173 0.0202,0.13626 m -0.0357,-0.27314 0.0155,0.13688 m -0.0262,-0.27421 0.0107,0.13733 m -0.0167,-0.27496 0.006,0.13763 m -0.007,-0.27538 10e-4,0.13775 m 0.003,-0.27546 -0.004,0.13771 m 0.0124,-0.27521 -0.008,0.1375 m 0.0211,-0.27462 -0.0131,0.13712 m 0.031,-0.27371 -0.0179,0.13659 m 0.0405,-0.27248 -0.0226,0.13589 m 0.0499,-0.27091 -0.0273,0.13502 m 0.0593,-0.26901 -0.032,0.13399 m 0.0686,-0.26679 -0.0366,0.1328 m 0.0778,-0.26425 -0.0412,0.13145 m 0.0869,-0.26139 -0.0457,0.12994 m 0.0959,-0.25821 -0.0502,0.12827 m 0.10485,-0.25472 -0.0546,0.12645 m 0.1136,-0.25093 -0.059,0.12448 m 0.12228,-0.24684 -0.0633,0.12236 m 0.13079,-0.24245 -0.0675,0.12009 m 0.13912,-0.23776 -0.0716,0.11767 m 0.14726,-0.23279 -0.0757,0.11512 m 0.15531,-0.22754 -0.0796,0.11242 m 0.16307,-0.22201 -0.0835,0.10959 m 0.17071,-0.21622 -0.0872,0.10663 m 0.17807,-0.21017 -0.0909,0.10354 m 0.1853,-0.20386 -0.0944,0.10032 m 0.19223,-0.1973 -0.0978,0.097 m 0.19894,-0.19053 -0.10114,0.0935 m 0.20546,-0.18346 -0.10432,0.09 m 0.2117,-0.17629 -0.10738,0.0863 m 0.21769,-0.16881 -0.11031,0.0825 m 0.22342,-0.16113 -0.11311,0.0786 m 0.22888,-0.15326 -0.11577,0.0747 m 0.23406,-0.1453 -0.11829,0.0706 m 0.23896,-0.13705 -0.12067,0.0665 m 0.24357,-0.12872 -0.1229,0.0622 m 0.24789,-0.12011 -0.12499,0.0579 m 0.25191,-0.11145 -0.12692,0.0535 m 0.25563,-0.1026 -0.12871,0.0491 m 0.25904,-0.0937 -0.13033,0.0446 m 0.26213,-0.0847 -0.1318,0.0401 m 0.26491,-0.0756 -0.13311,0.0355 m 0.26737,-0.0663 -0.13426,0.0308 m 0.26951,-0.0569 -0.13525,0.0261 m 0.27133,-0.0475 -0.13608,0.0214 m 0.27282,-0.0381 -0.13674,0.0167 m 0.27398,-0.0286 -0.13724,0.0119 m 0.27481,-0.0191 -0.13757,0.007 m 0.2753,-0.009 -0.13773,0.002"
       style="fill:none;stroke:#0000ff;stroke-width:0.755906;stroke-linecap:round;stroke-miterlimit:4;stroke-dasharray:none;stroke-opacity:1"
       id="path2550" />
    <path
       d="m 219.6205,187.72435 -0.002,-0.13774 m 0.009,0.2753 -0.007,-0.13756 m 0.0189,0.2748 -0.0119,-0.13724 m 0.0286,0.27398 -0.0167,-0.13674 m 0.0381,0.27282 -0.0214,-0.13608 m 0.0475,0.27133 -0.0261,-0.13525 m 0.0569,0.26951 -0.0308,-0.13426 m 0.0663,0.26737 -0.0355,-0.13311 m 0.0756,0.26492 -0.0401,-0.13181 m 0.0847,0.26214 -0.0446,-0.13033 m 0.0937,0.25903 -0.0491,-0.1287 m 0.10265,0.25562 -0.0536,-0.12692 m 0.11151,0.25191 -0.0579,-0.12499 m 0.12012,0.2479 -0.0622,-0.12291 m 0.12865,0.24357 -0.0665,-0.12066 m 0.1371,0.23895 -0.0706,-0.11829 m 0.14526,0.23406 -0.0747,-0.11577 m 0.15333,0.22888 -0.0786,-0.11311 m 0.16111,0.22342 -0.0825,-0.11031 m 0.16879,0.21769 -0.0863,-0.10738 m 0.17626,0.2117 -0.09,-0.10432 m 0.18353,0.20546 -0.0935,-0.10114 m 0.19048,0.19897 -0.097,-0.0978 m 0.19732,0.1922 -0.10032,-0.0944 m 0.20386,0.18527 -0.10354,-0.0909 m 0.21017,0.17812 -0.10663,-0.0872 m 0.21622,0.17066 -0.10959,-0.0835 m 0.22201,0.16311 -0.11242,-0.0796 m 0.22754,0.15526 -0.11512,-0.0757 m 0.23279,0.14732 -0.11767,-0.0716 m 0.23776,0.13909 -0.12009,-0.0675 m 0.24245,0.13079 -0.12236,-0.0633 m 0.24684,0.1223 -0.12448,-0.059 m 0.25093,0.11364 -0.12645,-0.0546 m 0.25472,0.10482 -0.12827,-0.0502 m 0.25821,0.0959 -0.12994,-0.0457 m 0.26139,0.0869 -0.13145,-0.0412 m 0.26425,0.0778 -0.1328,-0.0366 m 0.26679,0.0686 -0.13399,-0.032 m 0.26901,0.0593 -0.13502,-0.0273 m 0.27091,0.0499 -0.13589,-0.0226 m 0.27248,0.0405 -0.13659,-0.0179 m 0.27371,0.031 -0.13712,-0.0131 m 0.27462,0.0215 -0.1375,-0.008 m 0.27521,0.0116 -0.13771,-0.004 m 0.27546,0.003 -0.13775,10e-4 m 0.27538,-0.007 -0.13763,0.006 m 0.27496,-0.0168 -0.13733,0.0108 m 0.27421,-0.0263 -0.13688,0.0155 m 0.27314,-0.0357 -0.13626,0.0203 m 0.27173,-0.0453 -0.13547,0.025 m 0.27,-0.0546 -0.13453,0.0297 m 0.26794,-0.064 -0.13341,0.0343 m 0.26556,-0.0732 -0.13215,0.0389 m 0.26286,-0.0824 -0.13071,0.0435 m 0.25984,-0.0915 -0.12913,0.048 m 0.25651,-0.10044 -0.12738,0.0524 m 0.25286,-0.10923 -0.12548,0.0568 m 0.24892,-0.11795 -0.12344,0.0611 m 0.24468,-0.1265 -0.12124,0.0654 m 0.24014,-0.13497 -0.1189,0.0696 m 0.23532,-0.14325 -0.11642,0.0736 m 0.2302,-0.15125 -0.11378,0.0777 m 0.2248,-0.15925 -0.11102,0.0815 m 0.21915,-0.16685 -0.10813,0.0854 m 0.21323,-0.17445 -0.1051,0.089 m 0.20704,-0.18165 -0.10194,0.0926 m 0.20061,-0.18873 -0.0987,0.0961 m 0.19397,-0.1956 -0.0953,0.0995 m 0.18706,-0.20225 -0.0918,0.10275 m 0.17994,-0.20861 -0.0881,0.10586 m 0.17251,-0.21472 -0.0844,0.10886 m 0.16498,-0.22059 -0.0806,0.11173 m 0.15726,-0.22619 -0.0767,0.11446 m 0.14934,-0.2315 -0.0726,0.11704 m 0.14113,-0.23654 -0.0685,0.1195 m 0.13284,-0.24131 -0.0643,0.12181 m 0.12438,-0.24577 -0.0601,0.12396 m 0.11584,-0.24993 -0.0557,0.12597 m 0.10703,-0.25381 -0.0513,0.12784 m 0.0982,-0.25738 -0.0469,0.12954 m 0.0892,-0.26062 -0.0423,0.13108 m 0.0801,-0.26356 -0.0378,0.13248 m 0.071,-0.26619 -0.0331,0.13371 m 0.0616,-0.26848 -0.0285,0.13477 m 0.0523,-0.27046 -0.0238,0.13569 m 0.0429,-0.27212 -0.0191,0.13643 m 0.0334,-0.27344 -0.0143,0.13701 m 0.0239,-0.27443 -0.01,0.13742 m 0.0148,-0.27509 -0.005,0.13767 m 0.005,-0.27542 v 0.13775 m -0.005,-0.27543 0.005,0.13768 m -0.0146,-0.2751 0.01,0.13742 m -0.0243,-0.27443 0.0143,0.13701 m -0.0334,-0.27344 0.0191,0.13643 m -0.0429,-0.27211 0.0238,0.13568 m -0.0523,-0.27046 0.0285,0.13478 m -0.0617,-0.26849 0.0331,0.13371 m -0.0709,-0.26618 0.0378,0.13247 m -0.0801,-0.26356 0.0423,0.13109 m -0.0892,-0.26063 0.0469,0.12954 m -0.0982,-0.25737 0.0513,0.12783 m -0.10704,-0.2538 0.0557,0.12597 m -0.11578,-0.24994 0.0601,0.12397 m -0.12444,-0.24577 0.0643,0.1218 m -0.13283,-0.2413 0.0685,0.1195 m -0.14114,-0.23655 0.0726,0.11705 m -0.14926,-0.2315 0.0767,0.11445 m -0.15728,-0.22618 0.0806,0.11173 m -0.16501,-0.22059 0.0844,0.10886 m -0.17254,-0.21473 0.0881,0.10587 m -0.17986,-0.20861 0.0918,0.10274 m -0.18707,-0.20224 0.0953,0.0995 m -0.19397,-0.19563 0.0987,0.0961 m -0.20064,-0.18875 0.10194,0.0926 m -0.20704,-0.18165 0.1051,0.0891 m -0.21323,-0.17446 0.10813,0.0854 m -0.21915,-0.16695 0.11102,0.0815 m -0.2248,-0.15914 0.11378,0.0776 m -0.2302,-0.15126 0.11642,0.0737 m -0.23532,-0.14326 0.1189,0.0696 m -0.24014,-0.135 0.12124,0.0654 m -0.24468,-0.12655 0.12344,0.0611 m -0.24892,-0.11793 0.12548,0.0568 m -0.25286,-0.10924 0.12738,0.0524 m -0.25651,-0.10039 0.12913,0.048 m -0.25984,-0.0915 0.13071,0.0435 m -0.26286,-0.0824 0.13215,0.0389 m -0.26556,-0.0732 0.13341,0.0343 m -0.26794,-0.064 0.13453,0.0297 m -0.27,-0.0547 0.13547,0.025 m -0.27173,-0.0453 0.13626,0.0203 m -0.27314,-0.0358 0.13688,0.0155 m -0.27421,-0.0263 0.13733,0.0107 m -0.27496,-0.0167 0.13763,0.006 m -0.27538,-0.007 0.13775,0.001 m -0.27546,0.003 0.13771,-0.004 m -0.27521,0.0124 0.1375,-0.008 m -0.27462,0.0211 0.13712,-0.0131 m -0.27371,0.031 0.13659,-0.0179 m -0.27248,0.0405 0.13589,-0.0226 m -0.27091,0.0499 0.13502,-0.0273 m -0.26901,0.0593 0.13399,-0.032 m -0.26679,0.0686 0.1328,-0.0366 m -0.26425,0.0778 0.13145,-0.0412 m -0.26139,0.0869 0.12994,-0.0457 m -0.25821,0.0959 0.12827,-0.0502 m -0.25472,0.10484 0.12645,-0.0546 m -0.25093,0.1136 0.12448,-0.059 m -0.24684,0.12228 0.12236,-0.0633 m -0.24245,0.1308 0.12009,-0.0675 m -0.23776,0.13911 0.11767,-0.0716 m -0.23279,0.14727 0.11512,-0.0757 m -0.22754,0.15531 0.11242,-0.0796 m -0.22201,0.16306 0.10959,-0.0835 m -0.21622,0.17072 0.10663,-0.0872 m -0.21017,0.17806 0.10354,-0.0909 m -0.20386,0.18531 0.10032,-0.0944 m -0.1973,0.19223 0.097,-0.0978 m -0.19053,0.19893 0.0935,-0.10113 m -0.18346,0.20545 0.09,-0.10432 m -0.17629,0.2117 0.0863,-0.10738 m -0.16881,0.21769 0.0825,-0.11031 m -0.16113,0.22342 0.0786,-0.11311 m -0.15326,0.22888 0.0747,-0.11577 m -0.1453,0.23406 0.0706,-0.11829 m -0.13705,0.23896 0.0665,-0.12067 m -0.12872,0.24357 0.0622,-0.1229 m -0.12011,0.24789 0.0579,-0.12499 m -0.11145,0.25191 0.0536,-0.12692 m -0.1027,0.25563 0.0491,-0.12871 m -0.0937,0.25904 0.0446,-0.13033 m -0.0847,0.26213 0.0401,-0.1318 m -0.0756,0.26491 0.0355,-0.13311 m -0.0663,0.26738 0.0308,-0.13427 m -0.0569,0.26952 0.0261,-0.13525 m -0.0475,0.27133 0.0214,-0.13608 m -0.0381,0.27281 0.0167,-0.13673 m -0.0286,0.27397 0.0119,-0.13724 m -0.0191,0.27481 0.007,-0.13757 m -0.009,0.2753 0.002,-0.13773"
       style="fill:none;stroke:#0000ff;stroke-width:0.755906;stroke-linecap:round;stroke-miterlimit:4;stroke-dasharray:none;stroke-opacity:1"
       id="path4360" />
    <path
       d="m 363.6205,187.72435 -0.002,-0.13774 m 0.009,0.2753 -0.007,-0.13756 m 0.0189,0.2748 -0.0119,-0.13724 m 0.0286,0.27398 -0.0167,-0.13674 m 0.0381,0.27282 -0.0214,-0.13608 m 0.0475,0.27133 -0.0261,-0.13525 m 0.0569,0.26951 -0.0308,-0.13426 m 0.0663,0.26737 -0.0355,-0.13311 m 0.0756,0.26492 -0.0401,-0.13181 m 0.0847,0.26214 -0.0446,-0.13033 m 0.0937,0.25903 -0.0491,-0.1287 m 0.10265,0.25562 -0.0536,-0.12692 m 0.11151,0.25191 -0.0579,-0.12499 m 0.12012,0.2479 -0.0622,-0.12291 m 0.12865,0.24357 -0.0665,-0.12066 m 0.1371,0.23895 -0.0706,-0.11829 m 0.14526,0.23406 -0.0747,-0.11577 m 0.15333,0.22888 -0.0786,-0.11311 m 0.16111,0.22342 -0.0825,-0.11031 m 0.16879,0.21769 -0.0863,-0.10738 m 0.17626,0.2117 -0.09,-0.10432 m 0.18353,0.20546 -0.0935,-0.10114 m 0.19048,0.19897 -0.097,-0.0978 m 0.19732,0.1922 -0.10032,-0.0944 m 0.20386,0.18527 -0.10354,-0.0909 m 0.21017,0.17812 -0.10663,-0.0872 m 0.21622,0.17066 -0.10959,-0.0835 m 0.22201,0.16311 -0.11242,-0.0796 m 0.22754,0.15526 -0.11512,-0.0757 m 0.23279,0.14732 -0.11767,-0.0716 m 0.23776,0.13909 -0.12009,-0.0675 m 0.24245,0.13079 -0.12236,-0.0633 m 0.24684,0.1223 -0.12448,-0.059 m 0.25093,0.11364 -0.12645,-0.0546 m 0.25472,0.10482 -0.12827,-0.0502 m 0.25821,0.0959 -0.12994,-0.0457 m 0.26139,0.0869 -0.13145,-0.0412 m 0.26425,0.0778 -0.1328,-0.0366 m 0.26679,0.0686 -0.13399,-0.032 m 0.26901,0.0593 -0.13502,-0.0273 m 0.27091,0.0499 -0.13589,-0.0226 m 0.27248,0.0405 -0.13659,-0.0179 m 0.27371,0.031 -0.13712,-0.0131 m 0.27462,0.0215 -0.1375,-0.008 m 0.27521,0.0116 -0.13771,-0.004 m 0.27546,0.003 -0.13775,10e-4 m 0.27538,-0.007 -0.13763,0.006 m 0.27496,-0.0168 -0.13733,0.0108 m 0.27421,-0.0263 -0.13688,0.0155 m 0.27314,-0.0357 -0.13626,0.0203 m 0.27173,-0.0453 -0.13547,0.025 m 0.27,-0.0546 -0.13453,0.0297 m 0.26794,-0.064 -0.13341,0.0343 m 0.26556,-0.0732 -0.13215,0.0389 m 0.26286,-0.0824 -0.13071,0.0435 m 0.25984,-0.0915 -0.12913,0.048 m 0.25651,-0.10044 -0.12738,0.0524 m 0.25286,-0.10923 -0.12548,0.0568 m 0.24892,-0.11795 -0.12344,0.0611 m 0.24468,-0.1265 -0.12124,0.0654 m 0.24014,-0.13497 -0.1189,0.0696 m 0.23532,-0.14325 -0.11642,0.0736 m 0.2302,-0.15125 -0.11378,0.0777 m 0.2248,-0.15925 -0.11102,0.0815 m 0.21915,-0.16685 -0.10813,0.0854 m 0.21323,-0.17445 -0.1051,0.089 m 0.20704,-0.18165 -0.10194,0.0926 m 0.20061,-0.18873 -0.0987,0.0961 m 0.19397,-0.1956 -0.0953,0.0995 m 0.18706,-0.20225 -0.0918,0.10275 m 0.17994,-0.20861 -0.0881,0.10586 m 0.17251,-0.21472 -0.0844,0.10886 m 0.16498,-0.22059 -0.0806,0.11173 m 0.15726,-0.22619 -0.0767,0.11446 m 0.14934,-0.2315 -0.0726,0.11704 m 0.14113,-0.23654 -0.0685,0.1195 m 0.13284,-0.24131 -0.0643,0.12181 m 0.12438,-0.24577 -0.0601,0.12396 m 0.11584,-0.24993 -0.0557,0.12597 m 0.10703,-0.25381 -0.0513,0.12784 m 0.0982,-0.25738 -0.0469,0.12954 m 0.0892,-0.26062 -0.0423,0.13108 m 0.0801,-0.26356 -0.0378,0.13248 m 0.0709,-0.26619 -0.0331,0.13371 m 0.0616,-0.26848 -0.0285,0.13477 m 0.0523,-0.27046 -0.0238,0.13569 m 0.0429,-0.27212 -0.0191,0.13643 m 0.0334,-0.27344 -0.0143,0.13701 m 0.0239,-0.27443 -0.01,0.13742 m 0.0148,-0.27509 -0.005,0.13767 m 0.005,-0.27542 v 0.13775 m -0.005,-0.27543 0.005,0.13768 m -0.0146,-0.2751 0.01,0.13742 m -0.0243,-0.27443 0.0143,0.13701 m -0.0334,-0.27344 0.0191,0.13643 m -0.0429,-0.27211 0.0238,0.13568 m -0.0523,-0.27046 0.0285,0.13478 m -0.0616,-0.26849 0.0331,0.13371 m -0.0709,-0.26618 0.0378,0.13247 m -0.0801,-0.26356 0.0423,0.13109 m -0.0892,-0.26063 0.0469,0.12954 m -0.0982,-0.25737 0.0513,0.12783 m -0.10704,-0.2538 0.0557,0.12597 m -0.11578,-0.24994 0.0601,0.12397 m -0.12444,-0.24577 0.0643,0.1218 m -0.13283,-0.2413 0.0685,0.1195 m -0.14114,-0.23655 0.0726,0.11705 m -0.14926,-0.2315 0.0767,0.11445 m -0.15728,-0.22618 0.0806,0.11173 m -0.16501,-0.22059 0.0844,0.10886 m -0.17254,-0.21473 0.0881,0.10587 m -0.17986,-0.20861 0.0918,0.10274 m -0.18707,-0.20224 0.0953,0.0995 m -0.19397,-0.19563 0.0987,0.0961 m -0.20064,-0.18875 0.10194,0.0926 m -0.20704,-0.18165 0.1051,0.0891 m -0.21323,-0.17446 0.10813,0.0854 m -0.21915,-0.16695 0.11102,0.0815 m -0.2248,-0.15914 0.11378,0.0776 m -0.2302,-0.15126 0.11642,0.0737 m -0.23532,-0.14326 0.1189,0.0696 m -0.24014,-0.135 0.12124,0.0654 m -0.24468,-0.12655 0.12344,0.0611 m -0.24892,-0.11793 0.12548,0.0568 m -0.25286,-0.10924 0.12738,0.0524 m -0.25651,-0.10039 0.12913,0.048 m -0.25984,-0.0915 0.13071,0.0435 m -0.26286,-0.0824 0.13215,0.0389 m -0.26556,-0.0732 0.13341,0.0343 m -0.26794,-0.064 0.13453,0.0297 m -0.27,-0.0547 0.13547,0.025 m -0.27173,-0.0453 0.13626,0.0203 m -0.27314,-0.0358 0.13688,0.0155 m -0.27421,-0.0263 0.13733,0.0107 m -0.27496,-0.0167 0.13763,0.006 m -0.27538,-0.007 0.13775,0.001 m -0.27546,0.003 0.13771,-0.004 m -0.27521,0.0124 0.1375,-0.008 m -0.27462,0.0211 0.13712,-0.0131 m -0.27371,0.031 0.13659,-0.0179 m -0.27248,0.0405 0.13589,-0.0226 m -0.27091,0.0499 0.13502,-0.0273 m -0.26901,0.0593 0.13399,-0.032 m -0.26679,0.0686 0.1328,-0.0366 m -0.26425,0.0778 0.13145,-0.0412 m -0.26139,0.0869 0.12994,-0.0457 m -0.25821,0.0959 0.12827,-0.0502 m -0.25472,0.10484 0.12645,-0.0546 m -0.25093,0.1136 0.12448,-0.059 m -0.24684,0.12228 0.12236,-0.0633 m -0.24245,0.1308 0.12009,-0.0675 m -0.23776,0.13911 0.11767,-0.0716 m -0.23279,0.14727 0.11512,-0.0757 m -0.22754,0.15531 0.11242,-0.0796 m -0.22201,0.16306 0.10959,-0.0835 m -0.21622,0.17072 0.10663,-0.0872 m -0.21017,0.17806 0.10354,-0.0909 m -0.20386,0.18531 0.10032,-0.0944 m -0.1973,0.19223 0.097,-0.0978 m -0.19053,0.19893 0.0935,-0.10113 m -0.18346,0.20545 0.09,-0.10432 m -0.17629,0.2117 0.0863,-0.10738 m -0.16881,0.21769 0.0825,-0.11031 m -0.16113,0.22342 0.0786,-0.11311 m -0.15326,0.22888 0.0747,-0.11577 m -0.1453,0.23406 0.0706,-0.11829 m -0.13705,0.23896 0.0665,-0.12067 m -0.12872,0.24357 0.0622,-0.1229 m -0.12011,0.24789 0.0579,-0.12499 m -0.11145,0.25191 0.0536,-0.12692 m -0.1027,0.25563 0.0491,-0.12871 m -0.0937,0.25904 0.0446,-0.13033 m -0.0847,0.26213 0.0401,-0.1318 m -0.0756,0.26491 0.0355,-0.13311 m -0.0663,0.26738 0.0308,-0.13427 m -0.0569,0.26952 0.0261,-0.13525 m -0.0475,0.27133 0.0214,-0.13608 m -0.0381,0.27281 0.0167,-0.13673 m -0.0286,0.27397 0.0119,-0.13724 m -0.0191,0.27481 0.007,-0.13757 m -0.009,0.2753 0.002,-0.13773"
       style="fill:none;stroke:#0000ff;stroke-width:0.755906;stroke-linecap:round;stroke-miterlimit:4;stroke-dasharray:none;stroke-opacity:1"
       id="path4722" />
    <path
       d="m 197.60475,313.72435 -0.002,-0.13774 m 0.009,0.2753 -0.007,-0.13756 m 0.0189,0.2748 -0.0119,-0.13724 m 0.0286,0.27398 -0.0167,-0.13674 m 0.0381,0.27282 -0.0214,-0.13608 m 0.0475,0.27133 -0.0261,-0.13525 m 0.0569,0.26951 -0.0308,-0.13426 m 0.0663,0.26737 -0.0355,-0.13311 m 0.0756,0.26492 -0.0401,-0.13181 m 0.0847,0.26214 -0.0446,-0.13033 m 0.0937,0.25903 -0.0491,-0.1287 m 0.10264,0.25562 -0.0535,-0.12692 m 0.11142,0.25191 -0.0579,-0.12499 m 0.12012,0.2479 -0.0622,-0.12291 m 0.12864,0.24357 -0.0664,-0.12066 m 0.137,0.23895 -0.0706,-0.11829 m 0.14526,0.23406 -0.0747,-0.11577 m 0.15333,0.22888 -0.0786,-0.11311 m 0.16111,0.22342 -0.0825,-0.11031 m 0.16879,0.21769 -0.0863,-0.10738 m 0.17626,0.2117 -0.09,-0.10432 m 0.18353,0.20546 -0.0935,-0.10114 m 0.19048,0.19897 -0.097,-0.0978 m 0.19733,0.1922 -0.10033,-0.0944 m 0.20386,0.18527 -0.10353,-0.0909 m 0.21016,0.17812 -0.10663,-0.0872 m 0.21622,0.17066 -0.10959,-0.0835 m 0.22201,0.16311 -0.11242,-0.0796 m 0.22754,0.15526 -0.11512,-0.0757 m 0.23279,0.14732 -0.11767,-0.0716 m 0.23776,0.13909 -0.12009,-0.0675 m 0.24245,0.13079 -0.12236,-0.0633 m 0.24684,0.1223 -0.12448,-0.059 m 0.25093,0.11364 -0.12645,-0.0546 m 0.25473,0.10482 -0.12828,-0.0502 m 0.25822,0.0959 -0.12994,-0.0457 m 0.26138,0.0869 -0.13144,-0.0412 m 0.26424,0.0778 -0.1328,-0.0366 m 0.26679,0.0686 -0.13399,-0.032 m 0.26901,0.0593 -0.13502,-0.0273 m 0.27091,0.0499 -0.13589,-0.0226 m 0.27248,0.0405 -0.13659,-0.0179 m 0.27372,0.031 -0.13713,-0.0131 m 0.27463,0.0215 -0.1375,-0.008 m 0.2752,0.0116 -0.1377,-0.004 m 0.27545,0.003 -0.13775,10e-4 m 0.27538,-0.007 -0.13763,0.006 m 0.27496,-0.0168 -0.13733,0.0108 m 0.27421,-0.0263 -0.13688,0.0155 m 0.27314,-0.0358 -0.13626,0.0203 m 0.27173,-0.0453 -0.13547,0.025 m 0.27,-0.0547 -0.13453,0.0297 m 0.26794,-0.064 -0.13341,0.0343 m 0.26556,-0.0732 -0.13215,0.0389 m 0.26286,-0.0824 -0.13071,0.0435 m 0.25984,-0.0915 -0.12913,0.048 m 0.25651,-0.10044 -0.12738,0.0524 m 0.25287,-0.10923 -0.12549,0.0568 m 0.24892,-0.11795 -0.12343,0.0611 m 0.24468,-0.1265 -0.12125,0.0654 m 0.24014,-0.13497 -0.11889,0.0696 m 0.23531,-0.14325 -0.11642,0.0736 m 0.2302,-0.15125 -0.11378,0.0777 m 0.22481,-0.15925 -0.11103,0.0815 m 0.21915,-0.16685 -0.10812,0.0854 m 0.21322,-0.17445 -0.1051,0.089 m 0.20704,-0.18165 -0.10194,0.0926 m 0.20061,-0.18873 -0.0987,0.0961 m 0.19397,-0.1956 -0.0953,0.0995 m 0.18706,-0.20225 -0.0918,0.10275 m 0.17994,-0.20861 -0.0881,0.10586 m 0.17251,-0.21472 -0.0844,0.10886 m 0.16499,-0.22059 -0.0806,0.11173 m 0.15725,-0.22619 -0.0767,0.11446 m 0.14934,-0.2315 -0.0726,0.11704 m 0.14113,-0.23654 -0.0685,0.1195 m 0.13285,-0.24131 -0.0643,0.12181 m 0.12437,-0.24577 -0.0601,0.12396 m 0.11584,-0.24993 -0.0557,0.12597 m 0.10703,-0.25381 -0.0513,0.12784 m 0.0982,-0.25738 -0.0469,0.12954 m 0.0892,-0.26062 -0.0423,0.13108 m 0.0801,-0.26356 -0.0378,0.13248 m 0.0709,-0.26619 -0.0331,0.13371 m 0.0616,-0.26848 -0.0285,0.13477 m 0.0523,-0.27046 -0.0238,0.13569 m 0.0429,-0.27212 -0.0191,0.13643 m 0.0334,-0.27344 -0.0143,0.13701 m 0.0239,-0.27443 -0.01,0.13742 m 0.0148,-0.27509 -0.005,0.13767 m 0.005,-0.27542 v 0.13775 m -0.005,-0.27543 0.005,0.13768 m -0.0146,-0.2751 0.01,0.13742 m -0.0243,-0.27443 0.0143,0.13701 m -0.0334,-0.27344 0.0191,0.13643 m -0.0429,-0.27211 0.0238,0.13568 m -0.0523,-0.27046 0.0285,0.13478 m -0.0616,-0.26849 0.0331,0.13371 m -0.0709,-0.26618 0.0378,0.13247 m -0.0801,-0.26356 0.0423,0.13109 m -0.0892,-0.26063 0.0469,0.12954 m -0.0982,-0.25737 0.0513,0.12783 m -0.10704,-0.2538 0.0557,0.12597 m -0.11577,-0.24994 0.0601,0.12397 m -0.12445,-0.24577 0.0643,0.1218 m -0.13283,-0.2413 0.0685,0.1195 m -0.14114,-0.23655 0.0726,0.11705 m -0.14925,-0.2315 0.0767,0.11445 m -0.15729,-0.22618 0.0806,0.11173 m -0.16501,-0.22059 0.0844,0.10886 m -0.17254,-0.21473 0.0881,0.10587 m -0.17986,-0.20861 0.0918,0.10274 m -0.18707,-0.20224 0.0953,0.0995 m -0.19397,-0.19563 0.0987,0.0961 m -0.20064,-0.18875 0.10194,0.0926 m -0.20704,-0.18165 0.1051,0.0891 m -0.21322,-0.17446 0.10812,0.0854 m -0.21915,-0.16695 0.11103,0.0815 m -0.22481,-0.15914 0.11378,0.0776 m -0.2302,-0.15126 0.11642,0.0737 m -0.23531,-0.14326 0.11889,0.0696 m -0.24014,-0.135 0.12125,0.0654 m -0.24468,-0.12655 0.12343,0.0611 m -0.24892,-0.11793 0.12549,0.0568 m -0.25287,-0.10924 0.12738,0.0524 m -0.25651,-0.10039 0.12913,0.048 m -0.25984,-0.0915 0.13071,0.0435 m -0.26286,-0.0824 0.13215,0.0389 m -0.26556,-0.0732 0.13341,0.0343 m -0.26794,-0.064 0.13453,0.0297 m -0.27,-0.0547 0.13547,0.025 m -0.27173,-0.0453 0.13626,0.0203 m -0.27314,-0.0358 0.13688,0.0155 m -0.27421,-0.0263 0.13733,0.0107 m -0.27496,-0.0167 0.13763,0.006 m -0.27538,-0.007 0.13775,10e-4 m -0.27545,0.003 0.1377,-0.004 m -0.2752,0.0124 0.1375,-0.008 m -0.27463,0.0211 0.13713,-0.0131 m -0.27372,0.031 0.13659,-0.0179 m -0.27248,0.0405 0.13589,-0.0226 m -0.27091,0.0499 0.13502,-0.0273 m -0.26901,0.0593 0.13399,-0.032 m -0.26679,0.0686 0.1328,-0.0366 m -0.26424,0.0778 0.13144,-0.0412 m -0.26138,0.0869 0.12994,-0.0457 m -0.25822,0.0959 0.12828,-0.0502 m -0.25473,0.10484 0.12645,-0.0546 m -0.25093,0.1136 0.12448,-0.059 m -0.24684,0.12228 0.12236,-0.0633 m -0.24245,0.1308 0.12009,-0.0675 m -0.23776,0.13911 0.11767,-0.0716 m -0.23279,0.14727 0.11512,-0.0757 m -0.22754,0.15531 0.11242,-0.0796 m -0.22201,0.16306 0.10959,-0.0835 m -0.21622,0.17072 0.10663,-0.0872 m -0.21016,0.17806 0.10353,-0.0909 m -0.20386,0.18531 0.10033,-0.0944 m -0.19731,0.19223 0.097,-0.0978 m -0.19053,0.19893 0.0935,-0.10113 m -0.18346,0.20545 0.09,-0.10432 m -0.17629,0.2117 0.0863,-0.10738 m -0.16881,0.21769 0.0825,-0.11031 m -0.16113,0.22342 0.0786,-0.11311 m -0.15326,0.22888 0.0747,-0.11577 m -0.1453,0.23406 0.0706,-0.11829 m -0.13704,0.23896 0.0664,-0.12067 m -0.12862,0.24357 0.0622,-0.1229 m -0.12012,0.24789 0.0579,-0.12499 m -0.11144,0.25191 0.0535,-0.12692 m -0.10261,0.25563 0.0491,-0.12871 m -0.0937,0.25904 0.0446,-0.13033 m -0.0847,0.26213 0.0401,-0.1318 m -0.0756,0.26491 0.0355,-0.13311 m -0.0663,0.26738 0.0308,-0.13427 m -0.0569,0.26952 0.0261,-0.13525 m -0.0475,0.27133 0.0214,-0.13608 m -0.0381,0.27281 0.0167,-0.13673 m -0.0286,0.27397 0.0119,-0.13724 m -0.0191,0.27481 0.007,-0.13757 m -0.009,0.2753 0.002,-0.13773"
       style="fill:none;stroke:#0000ff;stroke-width:0.755906;stroke-linecap:round;stroke-miterlimit:4;stroke-dasharray:none;stroke-opacity:1"
       id="path5084" />
    <path
       d="m 493.44888,525.6205 0.13773,-0.002 m -0.2753,0.009 0.13757,-0.007 m -0.27481,0.0189 0.13724,-0.0119 m -0.27397,0.0286 0.13673,-0.0167 m -0.27281,0.0381 0.13608,-0.0214 m -0.27133,0.0475 0.13525,-0.0261 m -0.26952,0.0569 0.13427,-0.0308 m -0.26738,0.0663 0.13311,-0.0355 m -0.26491,0.0756 0.1318,-0.0401 m -0.26213,0.0847 0.13033,-0.0446 m -0.25904,0.0937 0.12871,-0.0491 m -0.25563,0.10265 0.12692,-0.0535 m -0.25191,0.11141 0.12499,-0.0579 m -0.24789,0.12012 0.1229,-0.0622 m -0.24357,0.12865 0.12067,-0.0665 m -0.23896,0.1371 0.11829,-0.0706 m -0.23406,0.14526 0.11577,-0.0747 m -0.22888,0.15333 0.11311,-0.0786 m -0.22342,0.16111 0.11031,-0.0825 m -0.21769,0.16879 0.10738,-0.0863 m -0.2117,0.17626 0.10432,-0.09 m -0.20546,0.18353 0.10114,-0.0935 m -0.19896,0.19048 0.0978,-0.097 m -0.19221,0.19732 0.0944,-0.10032 m -0.18526,0.20386 0.0909,-0.10354 m -0.17812,0.21017 0.0872,-0.10663 m -0.17066,0.21622 0.0835,-0.10959 m -0.16312,0.22201 0.0796,-0.11242 m -0.15526,0.22754 0.0757,-0.11512 m -0.14732,0.23279 0.0716,-0.11767 m -0.13909,0.23776 0.0675,-0.12009 m -0.13078,0.24245 0.0633,-0.12236 m -0.1223,0.24684 0.059,-0.12448 m -0.11364,0.25093 0.0546,-0.12645 m -0.10482,0.25472 0.0502,-0.12827 m -0.0959,0.25821 0.0457,-0.12994 m -0.0869,0.26139 0.0412,-0.13145 m -0.0778,0.26425 0.0366,-0.1328 m -0.0686,0.26679 0.032,-0.13399 m -0.0593,0.26901 0.0273,-0.13502 m -0.0499,0.27091 0.0226,-0.13589 m -0.0405,0.27248 0.0179,-0.13659 m -0.031,0.27371 0.0131,-0.13712 m -0.0215,0.27463 0.008,-0.13751 m -0.0116,0.27521 0.004,-0.1377 m -0.003,0.27545 -10e-4,-0.13775 m 0.007,0.27538 -0.006,-0.13763 m 0.0168,0.27496 -0.0107,-0.13733 m 0.0262,0.27421 -0.0155,-0.13688 m 0.0358,0.27314 -0.0203,-0.13626 m 0.0453,0.27173 -0.025,-0.13547 m 0.0547,0.27 -0.0297,-0.13453 m 0.064,0.26794 -0.0343,-0.13341 m 0.0732,0.26556 -0.0389,-0.13215 m 0.0824,0.26286 -0.0435,-0.13071 m 0.0915,0.25984 -0.048,-0.12913 m 0.10044,0.25651 -0.0524,-0.12738 m 0.10923,0.25287 -0.0568,-0.12549 m 0.11795,0.24892 -0.0611,-0.12343 m 0.1265,0.24467 -0.0654,-0.12124 m 0.13496,0.24014 -0.0696,-0.1189 m 0.14326,0.23532 -0.0737,-0.11642 m 0.15134,0.2302 -0.0776,-0.11378 m 0.15915,0.2248 -0.0815,-0.11102 m 0.16686,0.21915 -0.0854,-0.10813 m 0.17445,0.21323 -0.0891,-0.1051 m 0.18175,0.20704 -0.0927,-0.10194 m 0.18883,0.20061 -0.0961,-0.0987 m 0.1956,0.19397 -0.0995,-0.0953 m 0.20224,0.18706 -0.10274,-0.0918 m 0.20861,0.17994 -0.10587,-0.0881 m 0.21473,0.17251 -0.10886,-0.0844 m 0.22059,0.16498 -0.11173,-0.0806 m 0.22618,0.15726 -0.11445,-0.0767 m 0.2315,0.14934 -0.11705,-0.0726 m 0.23655,0.14113 -0.1195,-0.0685 m 0.2413,0.13284 -0.1218,-0.0643 m 0.24577,0.12438 -0.12397,-0.0601 m 0.24994,0.11584 -0.12597,-0.0557 m 0.2538,0.10703 -0.12783,-0.0513 m 0.25737,0.0982 -0.12954,-0.0469 m 0.26063,0.0892 -0.13109,-0.0423 m 0.26356,0.0801 -0.13247,-0.0378 m 0.26618,0.0709 -0.13371,-0.0331 m 0.26849,0.0616 -0.13478,-0.0285 m 0.27046,0.0523 -0.13568,-0.0238 m 0.27211,0.0429 -0.13643,-0.0191 m 0.27344,0.0334 -0.13701,-0.0143 m 0.27443,0.0239 -0.13742,-0.01 m 0.2751,0.0148 -0.13768,-0.005 m 0.27543,0.005 h -0.13775 m 0.27542,-0.005 -0.13767,0.005 m 0.27509,-0.0146 -0.13742,0.01 m 0.27443,-0.0243 -0.13701,0.0143 m 0.27344,-0.0334 -0.13643,0.0191 m 0.27212,-0.0429 -0.13569,0.0238 m 0.27046,-0.0523 -0.13477,0.0285 m 0.26848,-0.0616 -0.13371,0.0331 m 0.26619,-0.0709 -0.13248,0.0378 m 0.26356,-0.0801 -0.13108,0.0423 m 0.26062,-0.0892 -0.12954,0.0469 m 0.25738,-0.0982 -0.12784,0.0513 m 0.25381,-0.10704 -0.12597,0.0557 m 0.24993,-0.11578 -0.12396,0.0601 m 0.24577,-0.12444 -0.12181,0.0643 m 0.24131,-0.13283 -0.1195,0.0685 m 0.23654,-0.14114 -0.11704,0.0726 m 0.2315,-0.14926 -0.11446,0.0767 m 0.22619,-0.15728 -0.11173,0.0806 m 0.22059,-0.16501 -0.10886,0.0844 m 0.21472,-0.17254 -0.10586,0.0881 m 0.20861,-0.17986 -0.10275,0.0918 m 0.20225,-0.18707 -0.0995,0.0953 m 0.19563,-0.19397 -0.0961,0.0987 m 0.18875,-0.20064 -0.0926,0.10194 m 0.18165,-0.20704 -0.0891,0.1051 m 0.17445,-0.21323 -0.0853,0.10813 m 0.16685,-0.21915 -0.0815,0.11102 m 0.15915,-0.2248 -0.0777,0.11378 m 0.15135,-0.2302 -0.0736,0.11642 m 0.14317,-0.23532 -0.0696,0.1189 m 0.135,-0.24014 -0.0654,0.12124 m 0.12655,-0.24467 -0.0611,0.12343 m 0.11793,-0.24892 -0.0568,0.12549 m 0.10924,-0.25287 -0.0524,0.12738 m 0.10038,-0.25651 -0.048,0.12913 m 0.0915,-0.25984 -0.0435,0.13071 m 0.0824,-0.26286 -0.0389,0.13215 m 0.0732,-0.26556 -0.0343,0.13341 m 0.0639,-0.26794 -0.0296,0.13453 m 0.0546,-0.27 -0.025,0.13547 m 0.0453,-0.27173 -0.0202,0.13626 m 0.0357,-0.27314 -0.0155,0.13688 m 0.0263,-0.27421 -0.0108,0.13733 m 0.0168,-0.27496 -0.006,0.13763 m 0.007,-0.27538 -10e-4,0.13775 m -0.003,-0.27545 0.004,0.1377 m -0.0124,-0.27521 0.008,0.13751 m -0.0211,-0.27463 0.0131,0.13712 m -0.031,-0.27371 0.0179,0.13659 m -0.0405,-0.27248 0.0226,0.13589 m -0.0499,-0.27091 0.0273,0.13502 m -0.0593,-0.26901 0.032,0.13399 m -0.0686,-0.26679 0.0366,0.1328 m -0.0778,-0.26425 0.0412,0.13145 m -0.0869,-0.26139 0.0457,0.12994 m -0.0959,-0.25821 0.0502,0.12827 m -0.10484,-0.25472 0.0546,0.12645 m -0.1136,-0.25093 0.059,0.12448 m -0.12229,-0.24684 0.0633,0.12236 m -0.13079,-0.24245 0.0675,0.12009 m -0.13912,-0.23776 0.0716,0.11767 m -0.14726,-0.23279 0.0757,0.11512 m -0.15531,-0.22754 0.0796,0.11242 m -0.16306,-0.22201 0.0835,0.10959 m -0.17072,-0.21622 0.0872,0.10663 m -0.17807,-0.21017 0.0909,0.10354 m -0.1853,-0.20386 0.0944,0.10032 m -0.19223,-0.1973 0.0978,0.097 m -0.19894,-0.19053 0.10114,0.0935 m -0.20546,-0.18346 0.10432,0.09 m -0.2117,-0.17629 0.10738,0.0863 m -0.21769,-0.16881 0.11031,0.0825 m -0.22342,-0.16113 0.11311,0.0786 m -0.22888,-0.15326 0.11577,0.0747 m -0.23406,-0.1453 0.11829,0.0706 m -0.23895,-0.13705 0.12066,0.0665 m -0.24357,-0.12872 0.12291,0.0622 m -0.2479,-0.12011 0.12499,0.0579 m -0.25191,-0.11145 0.12692,0.0535 m -0.25562,-0.1026 0.1287,0.0491 m -0.25904,-0.0937 0.13034,0.0446 m -0.26214,-0.0847 0.1318,0.0401 m -0.26491,-0.0756 0.13311,0.0355 m -0.26737,-0.0663 0.13426,0.0308 m -0.26951,-0.0569 0.13525,0.0261 m -0.27133,-0.0475 0.13608,0.0214 m -0.27282,-0.0381 0.13674,0.0167 m -0.27398,-0.0286 0.13724,0.0119 m -0.2748,-0.0191 0.13756,0.007 m -0.2753,-0.009 0.13774,0.002"
       style="fill:none;stroke:#0000ff;stroke-width:0.755906;stroke-linecap:round;stroke-miterlimit:4;stroke-dasharray:none;stroke-opacity:1"
       id="path5446" />
    <path
       d="m 399.61962,313.72503 -0.002,-0.13773 m 0.009,0.2753 -0.007,-0.13757 m 0.0189,0.27481 -0.0119,-0.13724 m 0.0286,0.27398 -0.0167,-0.13674 m 0.0381,0.27282 -0.0214,-0.13608 m 0.0475,0.27133 -0.0261,-0.13525 m 0.0569,0.26951 -0.0308,-0.13426 m 0.0663,0.26737 -0.0355,-0.13311 m 0.0756,0.26491 -0.0401,-0.1318 m 0.0847,0.26213 -0.0446,-0.13033 m 0.0937,0.25904 -0.0491,-0.12871 m 0.10264,0.25563 -0.0535,-0.12692 m 0.11142,0.25191 -0.0579,-0.12499 m 0.12012,0.24789 -0.0622,-0.1229 m 0.12865,0.24357 -0.0665,-0.12067 m 0.13709,0.23896 -0.0706,-0.11829 m 0.14526,0.23406 -0.0747,-0.11577 m 0.15333,0.22888 -0.0786,-0.11311 m 0.16111,0.22342 -0.0825,-0.11031 m 0.16879,0.21769 -0.0863,-0.10738 m 0.17626,0.2117 -0.09,-0.10432 m 0.18353,0.20546 -0.0935,-0.10114 m 0.19049,0.19897 -0.097,-0.0978 m 0.19732,0.1922 -0.10032,-0.0944 m 0.20386,0.18527 -0.10354,-0.0909 m 0.21016,0.17811 -0.10662,-0.0872 m 0.21621,0.17067 -0.10959,-0.0835 m 0.22202,0.16311 -0.11243,-0.0796 m 0.22754,0.15526 -0.11511,-0.0757 m 0.23279,0.14732 -0.11768,-0.0716 m 0.23776,0.13909 -0.12008,-0.0675 m 0.24244,0.13078 -0.12236,-0.0633 m 0.24684,0.1223 -0.12448,-0.059 m 0.25094,0.11365 -0.12646,-0.0546 m 0.25473,0.10482 -0.12827,-0.0502 m 0.25821,0.0959 -0.12994,-0.0457 m 0.26139,0.0869 -0.13145,-0.0412 m 0.26425,0.0778 -0.1328,-0.0366 m 0.26679,0.0686 -0.13399,-0.032 m 0.26901,0.0593 -0.13502,-0.0273 m 0.2709,0.0499 -0.13588,-0.0226 m 0.27247,0.0405 -0.13659,-0.0179 m 0.27372,0.031 -0.13713,-0.0131 m 0.27463,0.0215 -0.1375,-0.008 m 0.27521,0.0116 -0.13771,-0.004 m 0.27546,0.003 -0.13775,0.001 m 0.27537,-0.007 -0.13762,0.006 m 0.27496,-0.0167 -0.13734,0.0107 m 0.27422,-0.0262 -0.13688,0.0155 m 0.27313,-0.0358 -0.13625,0.0202 m 0.27173,-0.0452 -0.13548,0.025 m 0.27,-0.0546 -0.13452,0.0297 m 0.26794,-0.064 -0.13342,0.0343 m 0.26556,-0.0732 -0.13214,0.0389 m 0.26286,-0.0824 -0.13072,0.0435 m 0.25984,-0.0915 -0.12912,0.048 m 0.2565,-0.10044 -0.12738,0.0524 m 0.25287,-0.10923 -0.12549,0.0568 m 0.24893,-0.11795 -0.12344,0.0611 m 0.24468,-0.12649 -0.12124,0.0654 m 0.24014,-0.13497 -0.1189,0.0696 m 0.23531,-0.14325 -0.11641,0.0736 m 0.2302,-0.15125 -0.11379,0.0777 m 0.22481,-0.15925 -0.11102,0.0815 m 0.21915,-0.16685 -0.10813,0.0854 m 0.21322,-0.17446 -0.10509,0.0891 m 0.20704,-0.18175 -0.10195,0.0926 m 0.20061,-0.18873 -0.0987,0.0961 m 0.19398,-0.19559 -0.0953,0.0995 m 0.18706,-0.20225 -0.0918,0.10275 m 0.17994,-0.20861 -0.0881,0.10586 m 0.17251,-0.21473 -0.0844,0.10887 m 0.16498,-0.22059 -0.0806,0.11172 m 0.15726,-0.22618 -0.0767,0.11446 m 0.14933,-0.23151 -0.0726,0.11705 m 0.14114,-0.23654 -0.0685,0.11949 m 0.13284,-0.2413 -0.0643,0.12181 m 0.12438,-0.24577 -0.0601,0.12396 m 0.11584,-0.24994 -0.0557,0.12598 m 0.10703,-0.25381 -0.0513,0.12783 m 0.0982,-0.25737 -0.0469,0.12954 m 0.0892,-0.26062 -0.0423,0.13108 m 0.0801,-0.26356 -0.0378,0.13248 m 0.0709,-0.26619 -0.0331,0.13371 m 0.0616,-0.26849 -0.0285,0.13478 m 0.0523,-0.27046 -0.0238,0.13568 m 0.0429,-0.27211 -0.0191,0.13643 m 0.0334,-0.27344 -0.0143,0.13701 m 0.0239,-0.27443 -0.01,0.13742 m 0.0148,-0.27509 -0.005,0.13767 m 0.005,-0.27543 v 0.13776 m -0.005,-0.27543 0.005,0.13767 m -0.0145,-0.27509 0.01,0.13742 m -0.0243,-0.27443 0.0143,0.13701 m -0.0334,-0.27344 0.0191,0.13643 m -0.0429,-0.27211 0.0238,0.13568 m -0.0523,-0.27046 0.0285,0.13478 m -0.0617,-0.26849 0.0331,0.13371 m -0.0709,-0.26618 0.0378,0.13247 m -0.0801,-0.26356 0.0423,0.13109 m -0.0892,-0.26063 0.0469,0.12954 m -0.0982,-0.25737 0.0513,0.12783 m -0.10704,-0.25381 0.0557,0.12598 m -0.11578,-0.24994 0.0601,0.12396 m -0.12444,-0.24576 0.0643,0.1218 m -0.13284,-0.2413 0.0685,0.1195 m -0.14113,-0.23655 0.0726,0.11705 m -0.14926,-0.23151 0.0767,0.11446 m -0.15728,-0.22618 0.0806,0.11172 m -0.16501,-0.22058 0.0844,0.10886 m -0.17254,-0.21473 0.0881,0.10587 m -0.17986,-0.20861 0.0918,0.10274 m -0.18708,-0.20224 0.0953,0.0995 m -0.19396,-0.19563 0.0987,0.0961 m -0.20065,-0.18875 0.10195,0.0927 m -0.20704,-0.18176 0.10509,0.0891 m -0.21322,-0.17445 0.10813,0.0854 m -0.21915,-0.16695 0.11102,0.0815 m -0.22481,-0.15915 0.11379,0.0777 m -0.2302,-0.15135 0.11641,0.0736 m -0.23531,-0.14316 0.1189,0.0696 m -0.24014,-0.135 0.12124,0.0654 m -0.24468,-0.12655 0.12344,0.0611 m -0.24893,-0.11793 0.12549,0.0568 m -0.25287,-0.10924 0.12738,0.0524 m -0.2565,-0.10039 0.12912,0.048 m -0.25984,-0.0915 0.13072,0.0435 m -0.26286,-0.0824 0.13214,0.0389 m -0.26556,-0.0732 0.13342,0.0343 m -0.26794,-0.064 0.13452,0.0297 m -0.27,-0.0547 0.13548,0.025 m -0.27173,-0.0452 0.13625,0.0203 m -0.27313,-0.0358 0.13688,0.0155 m -0.27422,-0.0263 0.13734,0.0107 m -0.27496,-0.0167 0.13762,0.006 m -0.27537,-0.007 0.13775,0.001 m -0.27546,0.003 0.13771,-0.004 m -0.27521,0.0124 0.1375,-0.008 m -0.27463,0.0211 0.13713,-0.0131 m -0.27372,0.031 0.13659,-0.0179 m -0.27247,0.0405 0.13588,-0.0226 m -0.2709,0.0499 0.13502,-0.0273 m -0.26901,0.0593 0.13399,-0.032 m -0.26679,0.0686 0.1328,-0.0366 m -0.26425,0.0778 0.13145,-0.0412 m -0.26139,0.0869 0.12994,-0.0457 m -0.25821,0.0959 0.12827,-0.0502 m -0.25473,0.10485 0.12646,-0.0547 m -0.25094,0.1137 0.12448,-0.059 m -0.24684,0.12228 0.12236,-0.0633 m -0.24244,0.13079 0.12008,-0.0675 m -0.23776,0.13912 0.11768,-0.0716 m -0.23279,0.14726 0.11511,-0.0757 m -0.22754,0.15531 0.11243,-0.0796 m -0.22202,0.16307 0.10959,-0.0835 m -0.21621,0.17071 0.10662,-0.0872 m -0.21016,0.17807 0.10354,-0.0909 m -0.20386,0.1853 0.10032,-0.0944 m -0.19731,0.19223 0.097,-0.0978 m -0.19053,0.19894 0.0935,-0.10114 m -0.18346,0.20546 0.09,-0.10432 m -0.17629,0.2117 0.0863,-0.10738 m -0.16881,0.21769 0.0825,-0.11031 m -0.16113,0.22342 0.0786,-0.11311 m -0.15326,0.22888 0.0747,-0.11577 m -0.14529,0.23406 0.0706,-0.11829 m -0.13705,0.23896 0.0665,-0.12067 m -0.12872,0.24357 0.0622,-0.1229 m -0.12012,0.24789 0.0579,-0.12499 m -0.11144,0.25191 0.0535,-0.12692 m -0.10261,0.25563 0.0491,-0.12871 m -0.0937,0.25904 0.0446,-0.13033 m -0.0847,0.26213 0.0401,-0.1318 m -0.0756,0.26491 0.0355,-0.13311 m -0.0663,0.26737 0.0308,-0.13426 m -0.0569,0.26952 0.0261,-0.13526 m -0.0475,0.27133 0.0214,-0.13607 m -0.0381,0.27281 0.0167,-0.13674 m -0.0286,0.27398 0.0119,-0.13724 m -0.0191,0.27481 0.007,-0.13757 m -0.009,0.2753 0.002,-0.13773"
       style="fill:none;stroke:#0000ff;stroke-width:0.755906;stroke-linecap:round;stroke-miterlimit:4;stroke-dasharray:none;stroke-opacity:1"
       id="path5808" />
    <path
       d="m 197.51265,457.72503 -0.002,-0.13773 m 0.009,0.2753 -0.007,-0.13757 m 0.0189,0.27481 -0.0119,-0.13724 m 0.0286,0.27398 -0.0167,-0.13674 m 0.0381,0.27281 -0.0214,-0.13607 m 0.0476,0.27133 -0.0262,-0.13526 m 0.057,0.26952 -0.0308,-0.13426 m 0.0663,0.26737 -0.0355,-0.13311 m 0.0756,0.26491 -0.0401,-0.1318 m 0.0847,0.26213 -0.0446,-0.13033 m 0.0937,0.25904 -0.0491,-0.12871 m 0.10265,0.25563 -0.0536,-0.12692 m 0.11151,0.25191 -0.0579,-0.12499 m 0.12012,0.24789 -0.0622,-0.1229 m 0.12865,0.24357 -0.0665,-0.12067 m 0.13709,0.23896 -0.0706,-0.11829 m 0.14526,0.23406 -0.0747,-0.11577 m 0.15333,0.22888 -0.0786,-0.11311 m 0.16111,0.22342 -0.0825,-0.11031 m 0.16879,0.21769 -0.0863,-0.10738 m 0.17627,0.2117 -0.09,-0.10432 m 0.18353,0.20546 -0.0935,-0.10114 m 0.19048,0.19897 -0.097,-0.0978 m 0.19732,0.1922 -0.10032,-0.0944 m 0.20386,0.18527 -0.10354,-0.0909 m 0.21017,0.17811 -0.10663,-0.0872 m 0.21622,0.17067 -0.10959,-0.0835 m 0.22201,0.16311 -0.11242,-0.0796 m 0.22753,0.15526 -0.11511,-0.0757 m 0.23279,0.14732 -0.11768,-0.0716 m 0.23777,0.13909 -0.12009,-0.0675 m 0.24244,0.13078 -0.12235,-0.0633 m 0.24683,0.1223 -0.12448,-0.059 m 0.25094,0.11364 -0.12646,-0.0546 m 0.25473,0.10483 -0.12827,-0.0502 m 0.25821,0.0959 -0.12994,-0.0457 m 0.26139,0.0869 -0.13145,-0.0412 m 0.26425,0.0778 -0.1328,-0.0366 m 0.26679,0.0686 -0.13399,-0.032 m 0.26901,0.0593 -0.13502,-0.0273 m 0.2709,0.0499 -0.13588,-0.0226 m 0.27247,0.0405 -0.13659,-0.0179 m 0.27372,0.031 -0.13713,-0.0131 m 0.27463,0.0215 -0.1375,-0.008 m 0.27521,0.0116 -0.13771,-0.004 m 0.27546,0.003 -0.13775,0.001 m 0.27537,-0.007 -0.13762,0.006 m 0.27496,-0.0168 -0.13734,0.0108 m 0.27422,-0.0263 -0.13688,0.0155 m 0.27314,-0.0358 -0.13626,0.0203 m 0.27173,-0.0453 -0.13547,0.025 m 0.26999,-0.0546 -0.13452,0.0297 m 0.26794,-0.064 -0.13342,0.0343 m 0.26556,-0.0732 -0.13214,0.0389 m 0.26286,-0.0824 -0.13072,0.0435 m 0.25984,-0.0915 -0.12912,0.048 m 0.25651,-0.10044 -0.12739,0.0524 m 0.25287,-0.10923 -0.12548,0.0568 m 0.24892,-0.11795 -0.12344,0.0611 m 0.24468,-0.1265 -0.12124,0.0654 m 0.24014,-0.13496 -0.1189,0.0696 m 0.23531,-0.14325 -0.11641,0.0737 m 0.2302,-0.15135 -0.11379,0.0776 m 0.22481,-0.15915 -0.11102,0.0815 m 0.21915,-0.16685 -0.10813,0.0854 m 0.21323,-0.17446 -0.1051,0.0891 m 0.20704,-0.18175 -0.10194,0.0927 m 0.20061,-0.18883 -0.0987,0.0961 m 0.19397,-0.1956 -0.0953,0.0995 m 0.18706,-0.20224 -0.0918,0.10274 m 0.17994,-0.20861 -0.0881,0.10587 m 0.17251,-0.21473 -0.0844,0.10886 m 0.16498,-0.22058 -0.0806,0.11172 m 0.15726,-0.22618 -0.0767,0.11446 m 0.14934,-0.23151 -0.0726,0.11705 m 0.14113,-0.23655 -0.0685,0.1195 m 0.13284,-0.2413 -0.0643,0.1218 m 0.12438,-0.24576 -0.0601,0.12396 m 0.11584,-0.24994 -0.0557,0.12598 m 0.10703,-0.25381 -0.0513,0.12783 m 0.0982,-0.25737 -0.0469,0.12954 m 0.0892,-0.26063 -0.0423,0.13109 m 0.0801,-0.26356 -0.0378,0.13247 m 0.0709,-0.26618 -0.0332,0.13371 m 0.0617,-0.26849 -0.0285,0.13478 m 0.0523,-0.27046 -0.0238,0.13568 m 0.0429,-0.27211 -0.0191,0.13643 m 0.0334,-0.27344 -0.0143,0.13701 m 0.0239,-0.27443 -0.01,0.13742 m 0.0148,-0.27509 -0.005,0.13767 m 0.005,-0.27543 v 0.13776 m -0.005,-0.27543 0.005,0.13767 m -0.0146,-0.27509 0.01,0.13742 m -0.0243,-0.27443 0.0143,0.13701 m -0.0334,-0.27344 0.0191,0.13643 m -0.0429,-0.27211 0.0238,0.13568 m -0.0523,-0.27046 0.0285,0.13478 m -0.0616,-0.26849 0.0332,0.13371 m -0.071,-0.26619 0.0378,0.13248 m -0.0802,-0.26356 0.0423,0.13108 m -0.0892,-0.26062 0.0469,0.12954 m -0.0982,-0.25737 0.0513,0.12783 m -0.10704,-0.25381 0.0557,0.12598 m -0.11578,-0.24994 0.0601,0.12396 m -0.12444,-0.24577 0.0643,0.12181 m -0.13283,-0.2413 0.0685,0.11949 m -0.14114,-0.23654 0.0726,0.11705 m -0.14926,-0.23151 0.0767,0.11446 m -0.15728,-0.22618 0.0806,0.11172 m -0.16501,-0.22059 0.0844,0.10887 m -0.17254,-0.21473 0.0881,0.10586 m -0.17986,-0.20861 0.0918,0.10275 m -0.18707,-0.20224 0.0953,0.0995 m -0.19397,-0.19564 0.0987,0.0961 m -0.20064,-0.18874 0.10194,0.0926 m -0.20704,-0.18166 0.1051,0.0891 m -0.21323,-0.17445 0.10813,0.0854 m -0.21915,-0.16695 0.11102,0.0815 m -0.22481,-0.15915 0.11379,0.0776 m -0.2302,-0.15125 0.11641,0.0737 m -0.23531,-0.14327 0.1189,0.0696 m -0.24014,-0.13499 0.12124,0.0654 m -0.24468,-0.12655 0.12344,0.0611 m -0.24892,-0.11793 0.12548,0.0568 m -0.25287,-0.10924 0.12739,0.0524 m -0.25651,-0.10039 0.12912,0.048 m -0.25984,-0.0915 0.13072,0.0435 m -0.26286,-0.0824 0.13214,0.0389 m -0.26556,-0.0732 0.13342,0.0343 m -0.26794,-0.064 0.13452,0.0297 m -0.26999,-0.0547 0.13547,0.025 m -0.27173,-0.0452 0.13626,0.0203 m -0.27314,-0.0358 0.13688,0.0155 m -0.27422,-0.0262 0.13734,0.0107 m -0.27496,-0.0167 0.13762,0.006 m -0.27537,-0.007 0.13775,0.001 m -0.27546,0.003 0.13771,-0.004 m -0.27521,0.0124 0.1375,-0.008 m -0.27463,0.0211 0.13713,-0.0131 m -0.27372,0.031 0.13659,-0.0179 m -0.27247,0.0405 0.13588,-0.0226 m -0.2709,0.0499 0.13502,-0.0273 m -0.26901,0.0593 0.13399,-0.032 m -0.26679,0.0686 0.1328,-0.0366 m -0.26425,0.0778 0.13145,-0.0412 m -0.26139,0.0869 0.12994,-0.0457 m -0.25821,0.0959 0.12827,-0.0502 m -0.25473,0.10485 0.12646,-0.0547 m -0.25094,0.1137 0.12448,-0.059 m -0.24683,0.12228 0.12235,-0.0633 m -0.24244,0.13079 0.12009,-0.0675 m -0.23777,0.13912 0.11768,-0.0716 m -0.23279,0.14726 0.11511,-0.0757 m -0.22753,0.15531 0.11242,-0.0796 m -0.22201,0.16307 0.10959,-0.0835 m -0.21622,0.17071 0.10663,-0.0872 m -0.21017,0.17807 0.10354,-0.0909 m -0.20386,0.1853 0.10032,-0.0944 m -0.1973,0.19223 0.097,-0.0978 m -0.19053,0.19894 0.0935,-0.10114 m -0.18347,0.20546 0.09,-0.10432 m -0.17629,0.2117 0.0863,-0.10738 m -0.16881,0.21769 0.0825,-0.11031 m -0.16113,0.22342 0.0786,-0.11311 m -0.15326,0.22888 0.0747,-0.11577 m -0.14529,0.23406 0.0706,-0.11829 m -0.13705,0.23896 0.0665,-0.12067 m -0.12872,0.24357 0.0622,-0.1229 m -0.12011,0.24789 0.0579,-0.12499 m -0.11145,0.25191 0.0536,-0.12692 m -0.1027,0.25563 0.0491,-0.12871 m -0.0937,0.25904 0.0446,-0.13033 m -0.0847,0.26213 0.0401,-0.1318 m -0.0756,0.26491 0.0355,-0.13311 m -0.0663,0.26737 0.0308,-0.13426 m -0.057,0.26951 0.0262,-0.13525 m -0.0476,0.27133 0.0214,-0.13608 m -0.0381,0.27282 0.0167,-0.13674 m -0.0286,0.27398 0.0119,-0.13724 m -0.0191,0.27481 0.007,-0.13757 m -0.009,0.2753 0.002,-0.13773"
       style="fill:none;stroke:#0000ff;stroke-width:0.755906;stroke-linecap:round;stroke-miterlimit:4;stroke-dasharray:none;stroke-opacity:1"
       id="path6170" />
    <path
       d="m 295.44888,553.42058 0.13773,-0.002 m -0.2753,0.009 0.13757,-0.007 m -0.27481,0.0189 0.13724,-0.0119 m -0.27397,0.0286 0.13673,-0.0167 m -0.27281,0.0381 0.13608,-0.0214 m -0.27133,0.0475 0.13525,-0.0261 m -0.26952,0.0569 0.13427,-0.0308 m -0.26738,0.0663 0.13311,-0.0355 m -0.26491,0.0756 0.1318,-0.0401 m -0.26213,0.0847 0.13033,-0.0446 m -0.25904,0.0937 0.12871,-0.0491 m -0.25563,0.10265 0.12692,-0.0535 m -0.25191,0.11141 0.12499,-0.0579 m -0.24789,0.12012 0.1229,-0.0622 m -0.24357,0.12865 0.12067,-0.0665 m -0.23896,0.1371 0.11829,-0.0706 m -0.23406,0.14526 0.11577,-0.0747 m -0.22888,0.15333 0.11311,-0.0786 m -0.22342,0.16111 0.11031,-0.0825 m -0.21769,0.16879 0.10738,-0.0863 m -0.2117,0.17626 0.10432,-0.09 m -0.20546,0.18353 0.10114,-0.0935 m -0.19896,0.19048 0.0978,-0.097 m -0.19221,0.19732 0.0944,-0.10032 m -0.18526,0.20386 0.0909,-0.10354 m -0.17812,0.21017 0.0872,-0.10663 m -0.17066,0.21622 0.0835,-0.10959 m -0.16312,0.22201 0.0796,-0.11242 m -0.15526,0.22754 0.0757,-0.11512 m -0.14732,0.23279 0.0716,-0.11767 m -0.13909,0.23776 0.0675,-0.12009 m -0.13078,0.24245 0.0633,-0.12236 m -0.1223,0.24684 0.059,-0.12448 m -0.11364,0.25093 0.0546,-0.12645 m -0.10482,0.25472 0.0502,-0.12827 m -0.0959,0.25821 0.0457,-0.12994 m -0.0869,0.26139 0.0412,-0.13145 m -0.0778,0.26425 0.0366,-0.1328 m -0.0686,0.26679 0.032,-0.13399 m -0.0593,0.26901 0.0273,-0.13502 m -0.0499,0.27091 0.0226,-0.13589 m -0.0405,0.27248 0.0179,-0.13659 m -0.031,0.27371 0.0131,-0.13712 m -0.0215,0.27462 0.008,-0.1375 m -0.0116,0.27521 0.004,-0.13771 m -0.003,0.27546 -10e-4,-0.13775 m 0.007,0.27538 -0.006,-0.13763 m 0.0168,0.27496 -0.0108,-0.13733 m 0.0263,0.27421 -0.0155,-0.13688 m 0.0358,0.27314 -0.0202,-0.13626 m 0.0452,0.27173 -0.025,-0.13547 m 0.0547,0.27 -0.0297,-0.13453 m 0.064,0.26794 -0.0343,-0.13341 m 0.0732,0.26556 -0.0389,-0.13215 m 0.0824,0.26286 -0.0435,-0.13071 m 0.0915,0.25984 -0.048,-0.12913 m 0.10044,0.25651 -0.0524,-0.12738 m 0.10923,0.25286 -0.0568,-0.12548 m 0.11795,0.24892 -0.0611,-0.12344 m 0.1265,0.24468 -0.0654,-0.12124 m 0.13496,0.24014 -0.0696,-0.1189 m 0.14326,0.23531 -0.0737,-0.11641 m 0.15134,0.2302 -0.0776,-0.11379 m 0.15915,0.22481 -0.0816,-0.11102 m 0.16696,0.21915 -0.0854,-0.10813 m 0.17445,0.21323 -0.089,-0.1051 m 0.18165,0.20704 -0.0926,-0.10194 m 0.18873,0.20061 -0.0961,-0.0987 m 0.1956,0.19397 -0.0995,-0.0953 m 0.20224,0.18706 -0.10274,-0.0918 m 0.20861,0.17994 -0.10587,-0.0881 m 0.21473,0.17251 -0.10886,-0.0844 m 0.22059,0.16498 -0.11173,-0.0806 m 0.22618,0.15726 -0.11445,-0.0767 m 0.2315,0.14934 -0.11705,-0.0726 m 0.23655,0.14113 -0.1195,-0.0685 m 0.2413,0.13284 -0.1218,-0.0643 m 0.24577,0.12438 -0.12397,-0.0601 m 0.24994,0.11584 -0.12597,-0.0557 m 0.2538,0.10703 -0.12783,-0.0513 m 0.25737,0.0982 -0.12954,-0.0469 m 0.26063,0.0892 -0.13109,-0.0423 m 0.26356,0.0801 -0.13247,-0.0378 m 0.26618,0.071 -0.13371,-0.0332 m 0.26849,0.0617 -0.13478,-0.0285 m 0.27046,0.0523 -0.13568,-0.0238 m 0.27211,0.0429 -0.13643,-0.0191 m 0.27344,0.0334 -0.13701,-0.0143 m 0.27443,0.0239 -0.13742,-0.01 m 0.2751,0.0148 -0.13768,-0.005 m 0.27543,0.005 h -0.13775 m 0.27542,-0.005 -0.13767,0.005 m 0.27509,-0.0146 -0.13742,0.01 m 0.27443,-0.0243 -0.13701,0.0143 m 0.27344,-0.0334 -0.13643,0.0191 m 0.27212,-0.0429 -0.13569,0.0238 m 0.27046,-0.0523 -0.13477,0.0285 m 0.26848,-0.0616 -0.13371,0.0332 m 0.26619,-0.071 -0.13248,0.0378 m 0.26356,-0.0801 -0.13108,0.0423 m 0.26062,-0.0892 -0.12954,0.0469 m 0.25738,-0.0982 -0.12784,0.0513 m 0.25381,-0.10704 -0.12597,0.0557 m 0.24993,-0.11578 -0.12396,0.0601 m 0.24577,-0.12444 -0.12181,0.0643 m 0.24131,-0.13283 -0.1195,0.0685 m 0.23654,-0.14114 -0.11704,0.0726 m 0.2315,-0.14926 -0.11446,0.0767 m 0.22619,-0.15728 -0.11173,0.0806 m 0.22059,-0.16501 -0.10886,0.0844 m 0.21472,-0.17254 -0.10586,0.0881 m 0.20861,-0.17986 -0.10275,0.0918 m 0.20225,-0.18707 -0.0995,0.0953 m 0.19563,-0.19397 -0.0961,0.0987 m 0.18875,-0.20064 -0.0926,0.10194 m 0.18165,-0.20704 -0.0891,0.1051 m 0.17445,-0.21323 -0.0854,0.10813 m 0.16695,-0.21915 -0.0815,0.11102 m 0.15915,-0.22481 -0.0777,0.11379 m 0.15135,-0.2302 -0.0736,0.11641 m 0.14317,-0.23531 -0.0696,0.1189 m 0.135,-0.24014 -0.0654,0.12124 m 0.12655,-0.24468 -0.0611,0.12344 m 0.11793,-0.24892 -0.0568,0.12548 m 0.10924,-0.25286 -0.0524,0.12738 m 0.10038,-0.25651 -0.048,0.12913 m 0.0915,-0.25984 -0.0435,0.13071 m 0.0824,-0.26286 -0.0389,0.13215 m 0.0732,-0.26556 -0.0343,0.13341 m 0.0639,-0.26794 -0.0296,0.13453 m 0.0546,-0.27 -0.025,0.13547 m 0.0453,-0.27173 -0.0202,0.13626 m 0.0357,-0.27314 -0.0155,0.13688 m 0.0263,-0.27421 -0.0107,0.13733 m 0.0167,-0.27496 -0.006,0.13763 m 0.007,-0.27538 -10e-4,0.13775 m -0.003,-0.27546 0.004,0.13771 m -0.0124,-0.27521 0.008,0.1375 m -0.0211,-0.27462 0.0131,0.13712 m -0.031,-0.27371 0.0179,0.13659 m -0.0405,-0.27248 0.0226,0.13589 m -0.0499,-0.27091 0.0273,0.13502 m -0.0593,-0.26901 0.032,0.13399 m -0.0686,-0.26679 0.0366,0.1328 m -0.0778,-0.26425 0.0412,0.13145 m -0.0869,-0.26139 0.0457,0.12994 m -0.0959,-0.25821 0.0502,0.12827 m -0.10484,-0.25472 0.0546,0.12645 m -0.1136,-0.25093 0.059,0.12448 m -0.12229,-0.24684 0.0633,0.12236 m -0.13079,-0.24245 0.0675,0.12009 m -0.13912,-0.23776 0.0716,0.11767 m -0.14726,-0.23279 0.0757,0.11512 m -0.15531,-0.22754 0.0796,0.11242 m -0.16306,-0.22201 0.0835,0.10959 m -0.17072,-0.21622 0.0872,0.10663 m -0.17807,-0.21017 0.0909,0.10354 m -0.1853,-0.20386 0.0944,0.10032 m -0.19223,-0.1973 0.0978,0.097 m -0.19894,-0.19053 0.10114,0.0935 m -0.20546,-0.18346 0.10432,0.09 m -0.2117,-0.17629 0.10738,0.0863 m -0.21769,-0.16881 0.11031,0.0825 m -0.22342,-0.16113 0.11311,0.0786 m -0.22888,-0.15326 0.11577,0.0747 m -0.23406,-0.1453 0.11829,0.0706 m -0.23895,-0.13705 0.12066,0.0665 m -0.24357,-0.12872 0.12291,0.0622 m -0.2479,-0.12011 0.12499,0.0579 m -0.25191,-0.11145 0.12692,0.0535 m -0.25562,-0.1026 0.1287,0.0491 m -0.25904,-0.0937 0.13034,0.0446 m -0.26214,-0.0847 0.1318,0.0401 m -0.26491,-0.0756 0.13311,0.0355 m -0.26737,-0.0663 0.13426,0.0308 m -0.26951,-0.0569 0.13525,0.0261 m -0.27133,-0.0475 0.13608,0.0214 m -0.27282,-0.0381 0.13674,0.0167 m -0.27398,-0.0286 0.13724,0.0119 m -0.2748,-0.0191 0.13756,0.007 m -0.2753,-0.009 0.13774,0.002"
       style="fill:none;stroke:#0000ff;stroke-width:0.755906;stroke-linecap:round;stroke-miterlimit:4;stroke-dasharray:none;stroke-opacity:1"
       id="path6532" />
    <g
       transform="matrix(1.1904161,0,0,1.1842076,-110.60986,-243.59512)"
       id="g9241"
       style="stroke:#0000ff;stroke-width:0.636655;stroke-miterlimit:4;stroke-dasharray:none;stroke-opacity:1">
      <path
         d="m 188.66899,309.25359 -0.004,0.25808 m 0.0172,-0.51585 -0.0132,0.25777 m 0.0352,-0.51494 -0.022,0.25717 m 0.0528,-0.51344 -0.0308,0.25627 m 0.0703,-0.51135 -0.0395,0.25508 m 0.0877,-0.50865 -0.0482,0.25357 m 0.10502,-0.50535 -0.0568,0.25178 m 0.12218,-0.50147 -0.0654,0.24969 m 0.13927,-0.49701 -0.0739,0.24732 m 0.15617,-0.49197 -0.0823,0.24465 m 0.17288,-0.48635 -0.0906,0.2417 m 0.18938,-0.48016 -0.0988,0.23846 m 0.20565,-0.47341 -0.10685,0.23495 m 0.22167,-0.46612 -0.11482,0.23117 m 0.23747,-0.45828 -0.12265,0.22711 m 0.25297,-0.44991 -0.13032,0.2228 m 0.26818,-0.44101 -0.13786,0.21821 m 0.28309,-0.43159 -0.14523,0.21338 m 0.29765,-0.42168 -0.15242,0.2083 m 0.31187,-0.41127 -0.15945,0.20297 m 0.32574,-0.40038 -0.16629,0.19741 m 0.33922,-0.38903 -0.17293,0.19162 m 0.3523,-0.37722 -0.17937,0.1856 m 0.36497,-0.36497 -0.1856,0.17937 m 0.37722,-0.3523 -0.19162,0.17293 m 0.38903,-0.33922 -0.19741,0.16629 m 0.40038,-0.32574 -0.20297,0.15945 m 0.41127,-0.31187 -0.2083,0.15242 m 0.42168,-0.29765 -0.21338,0.14523 m 0.43159,-0.28309 -0.21821,0.13786 m 0.44101,-0.26818 -0.2228,0.13032 m 0.44991,-0.25297 -0.22711,0.12265 m 0.45828,-0.23747 -0.23117,0.11482 m 0.46612,-0.22167 -0.23495,0.10685 m 0.47341,-0.20563 -0.23846,0.0988 m 0.48016,-0.18938 -0.2417,0.0906 m 0.48635,-0.17287 -0.24465,0.0823 m 0.49197,-0.15617 -0.24732,0.0739 m 0.49701,-0.13928 -0.24969,0.0654 m 0.50147,-0.12222 -0.25178,0.0568 m 0.50535,-0.105 -0.25357,0.0482 m 0.50864,-0.0877 -0.25507,0.0395 m 0.51135,-0.0703 -0.25628,0.0308 m 0.51345,-0.0528 -0.25717,0.022 m 0.51494,-0.0352 -0.25777,0.0132 m 0.51585,-0.0176 -0.25808,0.004 m 381.13997,-0.004 H 196.22364 m 381.13996,0.004 -0.25807,-0.004 m 0.51584,0.0172 -0.25777,-0.0132 m 0.51495,0.0352 -0.25718,-0.022 m 0.51345,0.0528 -0.25627,-0.0308 m 0.51134,0.0703 -0.25507,-0.0395 m 0.50864,0.0877 -0.25357,-0.0482 m 0.50535,0.10502 -0.25178,-0.0568 m 0.50147,0.12218 -0.24969,-0.0654 m 0.49701,0.13927 -0.24732,-0.0739 m 0.49197,0.15617 -0.24465,-0.0823 m 0.48635,0.17288 -0.2417,-0.0906 m 0.48016,0.18938 -0.23846,-0.0988 m 0.47341,0.20565 -0.23495,-0.10685 m 0.46612,0.22167 -0.23117,-0.11482 m 0.45829,0.23747 -0.22712,-0.12265 m 0.44991,0.25297 -0.22279,-0.13032 m 0.441,0.26818 -0.21821,-0.13786 m 0.43159,0.28309 -0.21338,-0.14523 m 0.42168,0.29765 -0.2083,-0.15242 m 0.41127,0.31187 -0.20297,-0.15945 m 0.40038,0.32574 -0.19741,-0.16629 m 0.38903,0.33922 -0.19162,-0.17293 m 0.37722,0.3523 -0.1856,-0.17937 m 0.36498,0.36497 -0.17938,-0.1856 m 0.3523,0.37722 -0.17292,-0.19162 m 0.33921,0.38903 -0.16629,-0.19741 m 0.32574,0.40038 -0.15945,-0.20297 m 0.31188,0.41127 -0.15243,-0.2083 m 0.29765,0.42168 -0.14522,-0.21338 m 0.28308,0.43159 -0.13786,-0.21821 m 0.26819,0.44101 -0.13033,-0.2228 m 0.25297,0.44991 -0.12264,-0.22711 m 0.23746,0.45828 -0.11482,-0.23117 m 0.22168,0.46612 -0.10686,-0.23495 m 0.20563,0.47341 -0.0988,-0.23846 m 0.18938,0.48016 -0.0906,-0.2417 m 0.17287,0.48635 -0.0823,-0.24465 m 0.15617,0.49197 -0.0739,-0.24732 m 0.13928,0.49701 -0.0654,-0.24969 m 0.12223,0.50147 -0.0568,-0.25178 m 0.10499,0.50535 -0.0482,-0.25357 m 0.0877,0.50865 -0.0395,-0.25508 m 0.0703,0.51135 -0.0308,-0.25627 m 0.0528,0.51344 -0.022,-0.25717 m 0.0352,0.51494 -0.0132,-0.25777 m 0.0176,0.51585 -0.004,-0.25808 m 0.004,428.65104 V 309.67636 m -0.004,428.48634 0.004,-0.25807 m -0.0172,0.51585 0.0132,-0.25778 m -0.0352,0.51495 0.022,-0.25717 m -0.0528,0.51344 0.0308,-0.25627 m -0.0703,0.51134 0.0395,-0.25507 m -0.0877,0.50864 0.0482,-0.25357 m -0.10503,0.50535 0.0568,-0.25178 m -0.12218,0.50148 0.0654,-0.2497 m -0.13927,0.49701 0.0739,-0.24731 m -0.15617,0.49196 0.0823,-0.24465 m -0.17288,0.48635 0.0906,-0.2417 m -0.18937,0.48017 0.0988,-0.23847 m -0.20566,0.47342 0.10686,-0.23495 m -0.22168,0.46612 0.11482,-0.23117 m -0.23746,0.45828 0.12264,-0.22711 m -0.25297,0.4499 0.13033,-0.22279 m -0.26819,0.44101 0.13786,-0.21822 m -0.28308,0.4316 0.14522,-0.21338 m -0.29765,0.42168 0.15243,-0.2083 m -0.31188,0.41127 0.15945,-0.20297 m -0.32574,0.40038 0.16629,-0.19741 m -0.33921,0.38903 0.17292,-0.19162 m -0.3523,0.37722 0.17938,-0.1856 m -0.36498,0.36497 0.1856,-0.17937 m -0.37722,0.3523 0.19162,-0.17293 m -0.38903,0.33921 0.19741,-0.16628 m -0.40038,0.32573 0.20297,-0.15945 m -0.41127,0.31188 0.2083,-0.15243 m -0.42168,0.29766 0.21338,-0.14523 m -0.43159,0.28308 0.21821,-0.13785 m -0.441,0.26818 0.22279,-0.13033 m -0.44991,0.25297 0.22712,-0.12264 m -0.45829,0.23746 0.23117,-0.11482 m -0.46612,0.22168 0.23495,-0.10686 m -0.47341,0.20564 0.23846,-0.0988 m -0.48016,0.18937 0.2417,-0.0906 m -0.48635,0.17287 0.24465,-0.0823 m -0.49197,0.15617 0.24732,-0.0739 m -0.49701,0.13929 0.24969,-0.0654 m -0.50147,0.12222 0.25178,-0.0568 m -0.50535,0.10499 0.25357,-0.0482 m -0.50864,0.0877 0.25507,-0.0395 m -0.51134,0.0703 0.25627,-0.0308 m -0.51345,0.0528 0.25718,-0.022 m -0.51495,0.0352 0.25777,-0.0132 m -0.51584,0.0176 0.25807,-0.004 m -381.13996,0.004 h 380.88189 m -381.13997,-0.004 0.25808,0.004 m -0.51585,-0.0172 0.25777,0.0132 m -0.51494,-0.0352 0.25717,0.022 m -0.51345,-0.0528 0.25628,0.0308 m -0.51135,-0.0703 0.25507,0.0395 m -0.50864,-0.0877 0.25357,0.0482 m -0.50535,-0.10502 0.25178,0.0568 m -0.50147,-0.12219 0.24969,0.0654 m -0.49701,-0.13927 0.24732,0.0739 m -0.49197,-0.15617 0.24465,0.0823 m -0.48635,-0.17287 0.2417,0.0906 m -0.48016,-0.18938 0.23846,0.0988 m -0.47341,-0.20566 0.23495,0.10686 m -0.46612,-0.22168 0.23117,0.11482 m -0.45828,-0.23746 0.22711,0.12264 m -0.44991,-0.25297 0.2228,0.13033 m -0.44101,-0.26818 0.21821,0.13785 m -0.43159,-0.28308 0.21338,0.14523 m -0.42168,-0.29766 0.2083,0.15243 m -0.41127,-0.31188 0.20297,0.15945 m -0.40038,-0.32573 0.19741,0.16628 m -0.38903,-0.33921 0.19162,0.17293 m -0.37722,-0.3523 0.1856,0.17937 m -0.36497,-0.36497 0.17937,0.1856 m -0.3523,-0.37722 0.17293,0.19162 m -0.33922,-0.38903 0.16629,0.19741 m -0.32574,-0.40038 0.15945,0.20297 m -0.31187,-0.41127 0.15242,0.2083 m -0.29765,-0.42168 0.14523,0.21338 m -0.28309,-0.4316 0.13786,0.21822 m -0.26818,-0.44101 0.13032,0.22279 m -0.25297,-0.4499 0.12265,0.22711 m -0.23747,-0.45828 0.11482,0.23117 m -0.22167,-0.46612 0.10685,0.23495 m -0.20563,-0.47342 0.0988,0.23847 m -0.18938,-0.48017 0.0906,0.2417 m -0.17287,-0.48635 0.0823,0.24465 m -0.15617,-0.49196 0.0739,0.24731 m -0.13928,-0.49701 0.0654,0.2497 m -0.12222,-0.50148 0.0568,0.25178 m -0.105,-0.50535 0.0482,0.25357 m -0.0877,-0.50864 0.0395,0.25507 m -0.0703,-0.51134 0.0308,0.25627 m -0.0528,-0.51344 0.022,0.25717 m -0.0352,-0.51495 0.0132,0.25778 m -0.0176,-0.51585 0.004,0.25807 m -0.004,-428.48634 v 428.22827"
         style="fill:none;stroke:#0000ff;stroke-width:0.636655;stroke-linecap:round;stroke-miterlimit:4;stroke-dasharray:none;stroke-opacity:1"
         id="path9051" />
    </g>
  </g>
  <desc
     id="desc7274">bottom_plate.dxf - scale = 1.000000, origin = (0.000000, 0.000000), method = file</desc>
</svg>
