<?xml version="1.0" encoding="UTF-8" standalone="no"?>
<svg
   xmlns:lc="https://librecad.org"
   xmlns:dc="http://purl.org/dc/elements/1.1/"
   xmlns:cc="http://creativecommons.org/ns#"
   xmlns:rdf="http://www.w3.org/1999/02/22-rdf-syntax-ns#"
   xmlns:svg="http://www.w3.org/2000/svg"
   xmlns="http://www.w3.org/2000/svg"
   viewBox="0 0 472.18153 525.98163"
   width="124.93137mm"
   height="139.16597mm"
   version="1.1"
   id="svg7276">
  <metadata
     id="metadata7280">
    <rdf:RDF>
      <cc:Work
         rdf:about="">
        <dc:format>image/svg+xml</dc:format>
        <dc:type
           rdf:resource="http://purl.org/dc/dcmitype/StillImage" />
        <dc:title></dc:title>
      </cc:Work>
    </rdf:RDF>
  </metadata>
  <defs
     id="defs14">
    <marker
       id="DistanceX"
       orient="auto"
       refX="0"
       refY="0"
       style="overflow:visible">
      <path
         d="M 3,-3 -3,3 M 0,-5 V 5"
         style="stroke:#000000;stroke-width:0.5"
         id="path2" />
    </marker>
    <pattern
       id="Hatch"
       patternUnits="userSpaceOnUse"
       width="8"
       height="8"
       x="0"
       y="0">
      <path
         d="M8 4 l-4,4"
         stroke="#000000"
         stroke-width="0.25"
         linecap="square"
         id="path5" />
      <path
         d="M6 2 l-4,4"
         stroke="#000000"
         stroke-width="0.25"
         linecap="square"
         id="path7" />
      <path
         d="M4 0 l-4,4"
         stroke="#000000"
         stroke-width="0.25"
         linecap="square"
         id="path9" />
    </pattern>
    <symbol
       id="*Model_Space" />
    <symbol
       id="*Paper_Space" />
  </defs>
  <g
     transform="translate(-50,-49.99997)"
     id="g16" />
  <g
     transform="translate(-50,-49.99997)"
     id="g7272">
    <g
       id="g19036"
       style="stroke:#808080;stroke-width:0.755906;stroke-miterlimit:4;stroke-dasharray:none;stroke-opacity:1"
       transform="translate(6.0907671,-1525.0089)">
      <g
         id="g25182">
        <circle
           r="39.907703"
           transform="scale(-1,1)"
           style="color:#000000;overflow:visible;fill:none;fill-opacity:1;stroke:#0000ff;stroke-width:0.658297;stroke-linecap:round;stroke-linejoin:round;stroke-miterlimit:4;stroke-dasharray:none;stroke-opacity:1"
           id="circle27016"
           cx="-136.09442"
           cy="1847.0024" />
      </g>
      <g
         transform="matrix(3.7795275,0,0,3.7795275,82.000006,1613.0945)"
         lc:layername="0"
         lc:is_locked="false"
         lc:is_construction="false"
         fill="none"
         stroke="#000000"
         stroke-width="0.02"
         id="g2"
         style="stroke:#808080;stroke-width:0.2;stroke-miterlimit:4;stroke-dasharray:none;stroke-opacity:1" />
    </g>
    <g
       id="g25278"
       transform="translate(-63.38583,-1348.4253)">
      <g
         style="stroke:#0000ff;stroke-width:0.636735;stroke-miterlimit:4;stroke-dasharray:none;stroke-opacity:1"
         id="g25218"
         transform="matrix(1.1904161,0,0,1.1842076,-110.81551,1041.2364)">
        <path
           id="path25216"
           style="color:#000000;overflow:visible;fill:none;stroke:#0000ff;stroke-width:0.636735;stroke-linecap:round;stroke-linejoin:round;stroke-miterlimit:4;stroke-dasharray:none"
           transform="rotate(-90)"
           d="m -325.25964,584.67279 -396.89587,-2.5e-4 c -12.87727,0 -23.31637,-10.3832 -23.31637,-23.19152 l 2.6e-4,-349.62926 c 0,-12.81011 10.43764,-23.19476 23.31311,-23.19476 l 396.89687,2.4e-4 c 12.87728,0 23.31637,10.3832 23.31637,23.19153 l -0.001,349.62925 c 0,12.81012 -10.43763,23.19477 -23.31311,23.19477 z" />
      </g>
      <path
         d="m 133.05162,1422.1945 -0.002,-0.1378 m 0.009,0.2753 -0.007,-0.1375 m 0.0189,0.2748 -0.0119,-0.1373 m 0.0286,0.274 -0.0167,-0.1367 m 0.0381,0.2728 -0.0214,-0.1361 m 0.0475,0.2713 -0.0261,-0.1352 m 0.0569,0.2695 -0.0308,-0.1343 m 0.0663,0.2674 -0.0355,-0.1331 m 0.0756,0.2649 -0.0401,-0.1318 m 0.0847,0.2621 -0.0446,-0.1303 m 0.0937,0.259 -0.0491,-0.1287 m 0.10265,0.2557 -0.0536,-0.127 m 0.11151,0.2519 -0.0579,-0.1249 m 0.12012,0.2479 -0.0622,-0.123 m 0.12865,0.2436 -0.0665,-0.1206 m 0.1371,0.2389 -0.0706,-0.1183 m 0.14526,0.2341 -0.0747,-0.1158 m 0.15333,0.2289 -0.0786,-0.1131 m 0.16111,0.2234 -0.0825,-0.1103 m 0.16879,0.2177 -0.0863,-0.1074 m 0.17626,0.2117 -0.09,-0.1043 m 0.18353,0.2054 -0.0935,-0.1011 m 0.19048,0.199 -0.097,-0.098 m 0.19732,0.1922 -0.10032,-0.094 m 0.20386,0.1852 -0.10354,-0.091 m 0.21017,0.1782 -0.10663,-0.087 m 0.21622,0.1706 -0.10959,-0.084 m 0.22201,0.1631 -0.11242,-0.08 m 0.22754,0.1553 -0.11512,-0.076 m 0.23279,0.1473 -0.11767,-0.072 m 0.23776,0.1391 -0.12009,-0.068 m 0.24245,0.1308 -0.12236,-0.063 m 0.24684,0.1223 -0.12448,-0.059 m 0.25093,0.1136 -0.12645,-0.055 m 0.25472,0.1048 -0.12827,-0.05 m 0.25821,0.096 -0.12994,-0.046 m 0.26139,0.087 -0.13145,-0.041 m 0.26425,0.078 -0.1328,-0.037 m 0.26679,0.069 -0.13399,-0.032 m 0.26901,0.059 -0.13502,-0.027 m 0.27091,0.05 -0.13589,-0.023 m 0.27248,0.041 -0.13659,-0.018 m 0.27371,0.031 -0.13712,-0.013 m 0.27462,0.022 -0.1375,-0.01 m 0.27521,0.012 h -0.13771 m 0.27546,0 h -0.13775 m 0.27538,-0.01 -0.13763,0.01 m 0.27496,-0.017 -0.13733,0.011 m 0.27421,-0.026 -0.13688,0.015 m 0.27314,-0.036 -0.13626,0.02 m 0.27173,-0.045 -0.13547,0.025 m 0.27,-0.055 -0.13453,0.03 m 0.26794,-0.064 -0.13341,0.034 m 0.26556,-0.073 -0.13215,0.039 m 0.26286,-0.082 -0.13071,0.043 m 0.25984,-0.091 -0.12913,0.048 m 0.25651,-0.1004 -0.12738,0.052 m 0.25286,-0.1092 -0.12548,0.057 m 0.24892,-0.118 -0.12344,0.061 m 0.24468,-0.1265 -0.12124,0.065 m 0.24014,-0.1349 -0.1189,0.07 m 0.23532,-0.1433 -0.11642,0.074 m 0.2302,-0.1512 -0.11378,0.078 m 0.2248,-0.1593 -0.11102,0.082 m 0.21915,-0.1668 -0.10813,0.085 m 0.21323,-0.1745 -0.1051,0.089 m 0.20704,-0.1816 -0.10194,0.093 m 0.20061,-0.1888 -0.0987,0.096 m 0.19397,-0.1956 -0.0953,0.1 m 0.18706,-0.2022 -0.0918,0.1027 m 0.17994,-0.2086 -0.0881,0.1059 m 0.17251,-0.2147 -0.0844,0.1088 m 0.16498,-0.2206 -0.0806,0.1118 m 0.15726,-0.2262 -0.0767,0.1144 m 0.14934,-0.2315 -0.0726,0.1171 m 0.14113,-0.2366 -0.0685,0.1195 m 0.13284,-0.2413 -0.0643,0.1218 m 0.12438,-0.2457 -0.0601,0.1239 m 0.11584,-0.2499 -0.0557,0.126 m 0.10703,-0.2538 -0.0513,0.1278 m 0.0982,-0.2574 -0.0469,0.1296 m 0.0892,-0.2607 -0.0423,0.1311 m 0.0801,-0.2635 -0.0378,0.1324 m 0.071,-0.2662 -0.0331,0.1338 m 0.0616,-0.2685 -0.0285,0.1347 m 0.0523,-0.2704 -0.0238,0.1357 m 0.0429,-0.2721 -0.0191,0.1364 m 0.0334,-0.2735 -0.0143,0.1371 m 0.0239,-0.2745 -0.01,0.1374 m 0.0148,-0.275 -0.005,0.1376 m 0.005,-0.2754 v 0.1378 m -0.005,-0.2755 0.005,0.1377 m -0.0146,-0.2751 0.01,0.1374 m -0.0243,-0.2744 0.0143,0.137 m -0.0334,-0.2734 0.0191,0.1364 m -0.0429,-0.2721 0.0238,0.1357 m -0.0523,-0.2705 0.0285,0.1348 m -0.0617,-0.2685 0.0331,0.1337 m -0.0709,-0.2662 0.0378,0.1325 m -0.0801,-0.2636 0.0423,0.1311 m -0.0892,-0.2606 0.0469,0.1295 m -0.0982,-0.2573 0.0513,0.1278 m -0.10704,-0.2538 0.0557,0.126 m -0.11578,-0.25 0.0601,0.124 m -0.12444,-0.2458 0.0643,0.1218 m -0.13283,-0.2413 0.0685,0.1195 m -0.14114,-0.2365 0.0726,0.117 m -0.14926,-0.2315 0.0767,0.1145 m -0.15728,-0.2262 0.0806,0.1117 m -0.16501,-0.2206 0.0844,0.1089 m -0.17254,-0.2147 0.0881,0.1058 m -0.17986,-0.2086 0.0918,0.1028 m -0.18707,-0.2023 0.0953,0.1 m -0.19397,-0.1956 0.0987,0.096 m -0.20064,-0.1888 0.10194,0.093 m -0.20704,-0.1816 0.1051,0.089 m -0.21323,-0.1745 0.10813,0.085 m -0.21915,-0.1669 0.11102,0.082 m -0.2248,-0.1592 0.11378,0.078 m -0.2302,-0.1512 0.11642,0.074 m -0.23532,-0.1433 0.1189,0.07 m -0.24014,-0.135 0.12124,0.065 m -0.24468,-0.1265 0.12344,0.061 m -0.24892,-0.118 0.12548,0.057 m -0.25286,-0.1092 0.12738,0.052 m -0.25651,-0.1004 0.12913,0.048 m -0.25984,-0.091 0.13071,0.043 m -0.26286,-0.082 0.13215,0.039 m -0.26556,-0.073 0.13341,0.034 m -0.26794,-0.064 0.13453,0.03 m -0.27,-0.055 0.13547,0.025 m -0.27173,-0.045 0.13626,0.02 m -0.27314,-0.036 0.13688,0.015 m -0.27421,-0.026 0.13733,0.011 m -0.27496,-0.017 0.13763,0.01 m -0.27538,-0.01 0.13775,10e-4 m -0.27546,0 h 0.13771 m -0.27521,0.012 0.1375,-0.01 m -0.27462,0.021 0.13712,-0.013 m -0.27371,0.031 0.13659,-0.018 m -0.27248,0.041 0.13589,-0.023 m -0.27091,0.05 0.13502,-0.027 m -0.26901,0.059 0.13399,-0.032 m -0.26679,0.069 0.1328,-0.037 m -0.26425,0.078 0.13145,-0.041 m -0.26139,0.087 0.12994,-0.046 m -0.25821,0.096 0.12827,-0.05 m -0.25472,0.1049 0.12645,-0.055 m -0.25093,0.1136 0.12448,-0.059 m -0.24684,0.1222 0.12236,-0.063 m -0.24245,0.1308 0.12009,-0.068 m -0.23776,0.1391 0.11767,-0.072 m -0.23279,0.1473 0.11512,-0.076 m -0.22754,0.1553 0.11242,-0.08 m -0.22201,0.1631 0.10959,-0.083 m -0.21622,0.1707 0.10663,-0.087 m -0.21017,0.1781 0.10354,-0.091 m -0.20386,0.1853 0.10032,-0.094 m -0.1973,0.1922 0.097,-0.098 m -0.19053,0.1989 0.0935,-0.1011 m -0.18346,0.2055 0.09,-0.1044 m -0.17629,0.2117 0.0863,-0.1073 m -0.16881,0.2176 0.0825,-0.1103 m -0.16113,0.2234 0.0786,-0.1131 m -0.15326,0.2289 0.0747,-0.1158 m -0.1453,0.2341 0.0706,-0.1183 m -0.13705,0.239 0.0665,-0.1207 m -0.12872,0.2436 0.0622,-0.1229 m -0.12011,0.2479 0.0579,-0.125 m -0.11145,0.2519 0.0536,-0.1269 m -0.1027,0.2556 0.0491,-0.1287 m -0.0937,0.259 0.0446,-0.1303 m -0.0847,0.2621 0.0401,-0.1318 m -0.0756,0.2649 0.0355,-0.1331 m -0.0663,0.2674 0.0308,-0.1343 m -0.0569,0.2696 0.0261,-0.1353 m -0.0475,0.2713 0.0214,-0.136 m -0.0381,0.2728 0.0167,-0.1368 m -0.0286,0.274 0.0119,-0.1372 m -0.0191,0.2748 0.007,-0.1376 m -0.009,0.2753 0.002,-0.1377"
         style="fill:none;stroke:#0000ff;stroke-width:0.756;stroke-linecap:round;stroke-miterlimit:4;stroke-dasharray:none;stroke-opacity:1"
         id="path25220" />
      <path
         id="path25222"
         style="fill:none;stroke:#0000ff;stroke-width:0.756;stroke-linecap:round;stroke-miterlimit:4;stroke-dasharray:none;stroke-opacity:1"
         d="m 557.96997,1422.1945 -0.002,-0.1378 m 0.009,0.2753 -0.007,-0.1375 m 0.0189,0.2748 -0.0119,-0.1373 m 0.0286,0.274 -0.0167,-0.1367 m 0.0381,0.2728 -0.0214,-0.1361 m 0.0475,0.2713 -0.0261,-0.1352 m 0.0569,0.2695 -0.0308,-0.1343 m 0.0663,0.2674 -0.0355,-0.1331 m 0.0756,0.2649 -0.0401,-0.1318 m 0.0847,0.2621 -0.0446,-0.1303 m 0.0937,0.259 -0.0491,-0.1287 m 0.10265,0.2557 -0.0536,-0.127 m 0.11151,0.2519 -0.0579,-0.1249 m 0.12012,0.2479 -0.0622,-0.123 m 0.12865,0.2436 -0.0665,-0.1206 m 0.1371,0.2389 -0.0706,-0.1183 m 0.14526,0.2341 -0.0747,-0.1158 m 0.15333,0.2289 -0.0786,-0.1131 m 0.16111,0.2234 -0.0825,-0.1103 m 0.16879,0.2177 -0.0863,-0.1074 m 0.17626,0.2117 -0.09,-0.1043 m 0.18353,0.2054 -0.0935,-0.1011 m 0.19048,0.199 -0.097,-0.098 m 0.19732,0.1922 -0.10032,-0.094 m 0.20386,0.1852 -0.10354,-0.091 m 0.21017,0.1782 -0.10663,-0.087 m 0.21622,0.1706 -0.10959,-0.084 m 0.22201,0.1631 -0.11242,-0.08 m 0.22754,0.1553 -0.11512,-0.076 m 0.23279,0.1473 -0.11767,-0.072 m 0.23776,0.1391 -0.12009,-0.068 m 0.24245,0.1308 -0.12236,-0.063 m 0.24684,0.1223 -0.12448,-0.059 m 0.25093,0.1136 -0.12645,-0.055 m 0.25472,0.1048 -0.12827,-0.05 m 0.25821,0.096 -0.12994,-0.046 m 0.26139,0.087 -0.13145,-0.041 m 0.26425,0.078 -0.1328,-0.037 m 0.26679,0.069 -0.13399,-0.032 m 0.26901,0.059 -0.13502,-0.027 m 0.27091,0.05 -0.13589,-0.023 m 0.27248,0.041 -0.13659,-0.018 m 0.27371,0.031 -0.13712,-0.013 m 0.27462,0.022 -0.1375,-0.01 m 0.27521,0.012 h -0.13771 m 0.27546,0 h -0.13775 m 0.27538,-0.01 -0.13763,0.01 m 0.27496,-0.017 -0.13733,0.011 m 0.27421,-0.026 -0.13688,0.015 m 0.27314,-0.036 -0.13626,0.02 m 0.27173,-0.045 -0.13547,0.025 m 0.27,-0.055 -0.13453,0.03 m 0.26794,-0.064 -0.13341,0.034 m 0.26556,-0.073 -0.13215,0.039 m 0.26286,-0.082 -0.13071,0.043 m 0.25984,-0.091 -0.12913,0.048 m 0.25651,-0.1004 -0.12738,0.052 m 0.25286,-0.1092 -0.12548,0.057 m 0.24892,-0.118 -0.12344,0.061 m 0.24468,-0.1265 -0.12124,0.065 m 0.24014,-0.1349 -0.1189,0.07 m 0.23532,-0.1433 -0.11642,0.074 m 0.2302,-0.1512 -0.11378,0.078 m 0.2248,-0.1593 -0.11102,0.082 m 0.21915,-0.1668 -0.10813,0.085 m 0.21323,-0.1745 -0.1051,0.089 m 0.20704,-0.1816 -0.10194,0.093 m 0.20061,-0.1888 -0.0987,0.096 m 0.19397,-0.1956 -0.0953,0.1 m 0.18706,-0.2022 -0.0918,0.1027 m 0.17994,-0.2086 -0.0881,0.1059 m 0.17251,-0.2147 -0.0844,0.1088 m 0.16498,-0.2206 -0.0806,0.1118 m 0.15726,-0.2262 -0.0767,0.1144 m 0.14934,-0.2315 -0.0726,0.1171 m 0.14113,-0.2366 -0.0685,0.1195 m 0.13284,-0.2413 -0.0643,0.1218 m 0.12438,-0.2457 -0.0601,0.1239 m 0.11584,-0.2499 -0.0557,0.126 m 0.10703,-0.2538 -0.0513,0.1278 m 0.0982,-0.2574 -0.0469,0.1296 m 0.0892,-0.2607 -0.0423,0.1311 m 0.0801,-0.2635 -0.0378,0.1324 m 0.071,-0.2662 -0.0331,0.1338 m 0.0616,-0.2685 -0.0285,0.1347 m 0.0523,-0.2704 -0.0238,0.1357 m 0.0429,-0.2721 -0.0191,0.1364 m 0.0334,-0.2735 -0.0143,0.1371 m 0.0239,-0.2745 -0.01,0.1374 m 0.0148,-0.275 -0.005,0.1376 m 0.005,-0.2754 v 0.1378 m -0.005,-0.2755 0.005,0.1377 m -0.0146,-0.2751 0.01,0.1374 m -0.0243,-0.2744 0.0143,0.137 m -0.0334,-0.2734 0.0191,0.1364 m -0.0429,-0.2721 0.0238,0.1357 m -0.0523,-0.2705 0.0285,0.1348 m -0.0617,-0.2685 0.0331,0.1337 m -0.0709,-0.2662 0.0378,0.1325 m -0.0801,-0.2636 0.0423,0.1311 m -0.0892,-0.2606 0.0469,0.1295 m -0.0982,-0.2573 0.0513,0.1278 m -0.10704,-0.2538 0.0557,0.126 m -0.11578,-0.25 0.0601,0.124 m -0.12444,-0.2458 0.0643,0.1218 m -0.13283,-0.2413 0.0685,0.1195 m -0.14114,-0.2365 0.0726,0.117 m -0.14926,-0.2315 0.0767,0.1145 m -0.15728,-0.2262 0.0806,0.1117 m -0.16501,-0.2206 0.0844,0.1089 m -0.17254,-0.2147 0.0881,0.1058 m -0.17986,-0.2086 0.0918,0.1028 m -0.18707,-0.2023 0.0953,0.1 m -0.19397,-0.1956 0.0987,0.096 m -0.20064,-0.1888 0.10194,0.093 m -0.20704,-0.1816 0.1051,0.089 m -0.21323,-0.1745 0.10813,0.085 m -0.21915,-0.1669 0.11102,0.082 m -0.2248,-0.1592 0.11378,0.078 m -0.2302,-0.1512 0.11642,0.074 m -0.23532,-0.1433 0.1189,0.07 m -0.24014,-0.135 0.12124,0.065 m -0.24468,-0.1265 0.12344,0.061 m -0.24892,-0.118 0.12548,0.057 m -0.25286,-0.1092 0.12738,0.052 m -0.25651,-0.1004 0.12913,0.048 m -0.25984,-0.091 0.13071,0.043 m -0.26286,-0.082 0.13215,0.039 m -0.26556,-0.073 0.13341,0.034 m -0.26794,-0.064 0.13453,0.03 m -0.27,-0.055 0.13547,0.025 m -0.27173,-0.045 0.13626,0.02 m -0.27314,-0.036 0.13688,0.015 m -0.27421,-0.026 0.13733,0.011 m -0.27496,-0.017 0.13763,0.01 m -0.27538,-0.01 0.13775,10e-4 m -0.27546,0 h 0.13771 m -0.27521,0.012 0.1375,-0.01 m -0.27462,0.021 0.13712,-0.013 m -0.27371,0.031 0.13659,-0.018 m -0.27248,0.041 0.13589,-0.023 m -0.27091,0.05 0.13502,-0.027 m -0.26901,0.059 0.13399,-0.032 m -0.26679,0.069 0.1328,-0.037 m -0.26425,0.078 0.13145,-0.041 m -0.26139,0.087 0.12994,-0.046 m -0.25821,0.096 0.12827,-0.05 m -0.25472,0.1049 0.12645,-0.055 m -0.25093,0.1136 0.12448,-0.059 m -0.24684,0.1222 0.12236,-0.063 m -0.24245,0.1308 0.12009,-0.068 m -0.23776,0.1391 0.11767,-0.072 m -0.23279,0.1473 0.11512,-0.076 m -0.22754,0.1553 0.11242,-0.08 m -0.22201,0.1631 0.10959,-0.083 m -0.21622,0.1707 0.10663,-0.087 m -0.21017,0.1781 0.10354,-0.091 m -0.20386,0.1853 0.10032,-0.094 m -0.1973,0.1922 0.097,-0.098 m -0.19053,0.1989 0.0935,-0.1011 m -0.18346,0.2055 0.09,-0.1044 m -0.17629,0.2117 0.0863,-0.1073 m -0.16881,0.2176 0.0825,-0.1103 m -0.16113,0.2234 0.0786,-0.1131 m -0.15326,0.2289 0.0747,-0.1158 m -0.1453,0.2341 0.0706,-0.1183 m -0.13705,0.239 0.0665,-0.1207 m -0.12872,0.2436 0.0622,-0.1229 m -0.12011,0.2479 0.0579,-0.125 m -0.11145,0.2519 0.0536,-0.1269 m -0.1027,0.2556 0.0491,-0.1287 m -0.0937,0.259 0.0446,-0.1303 m -0.0847,0.2621 0.0401,-0.1318 m -0.0756,0.2649 0.0355,-0.1331 m -0.0663,0.2674 0.0308,-0.1343 m -0.0569,0.2696 0.0261,-0.1353 m -0.0475,0.2713 0.0214,-0.136 m -0.0381,0.2728 0.0167,-0.1368 m -0.0286,0.274 0.0119,-0.1372 m -0.0191,0.2748 0.007,-0.1376 m -0.009,0.2753 0.002,-0.1377" />
      <path
         d="m 557.96997,1900.913 -0.002,-0.1378 m 0.009,0.2753 -0.007,-0.1375 m 0.0189,0.2748 -0.0119,-0.1373 m 0.0286,0.274 -0.0167,-0.1367 m 0.0381,0.2728 -0.0214,-0.1361 m 0.0475,0.2713 -0.0261,-0.1352 m 0.0569,0.2695 -0.0308,-0.1343 m 0.0663,0.2674 -0.0355,-0.1331 m 0.0756,0.2649 -0.0401,-0.1318 m 0.0847,0.2621 -0.0446,-0.1303 m 0.0937,0.259 -0.0491,-0.1287 m 0.10265,0.2557 -0.0536,-0.127 m 0.11151,0.2519 -0.0579,-0.1249 m 0.12012,0.2479 -0.0622,-0.123 m 0.12865,0.2436 -0.0665,-0.1207 m 0.1371,0.239 -0.0706,-0.1183 m 0.14526,0.2341 -0.0747,-0.1158 m 0.15333,0.2289 -0.0786,-0.1131 m 0.16111,0.2234 -0.0825,-0.1103 m 0.16879,0.2177 -0.0863,-0.1074 m 0.17626,0.2117 -0.09,-0.1043 m 0.18353,0.2054 -0.0935,-0.1011 m 0.19048,0.199 -0.097,-0.098 m 0.19732,0.1922 -0.10032,-0.094 m 0.20386,0.1852 -0.10354,-0.091 m 0.21017,0.1781 -0.10663,-0.087 m 0.21622,0.1707 -0.10959,-0.083 m 0.22201,0.1631 -0.11242,-0.08 m 0.22754,0.1553 -0.11512,-0.076 m 0.23279,0.1473 -0.11767,-0.072 m 0.23776,0.1391 -0.12009,-0.068 m 0.24245,0.1308 -0.12236,-0.063 m 0.24684,0.1223 -0.12448,-0.059 m 0.25093,0.1136 -0.12645,-0.055 m 0.25472,0.1048 -0.12827,-0.05 m 0.25821,0.096 -0.12994,-0.046 m 0.26139,0.087 -0.13145,-0.041 m 0.26425,0.078 -0.1328,-0.037 m 0.26679,0.069 -0.13399,-0.032 m 0.26901,0.059 -0.13502,-0.027 m 0.27091,0.05 -0.13589,-0.023 m 0.27248,0.041 -0.13659,-0.018 m 0.27371,0.031 -0.13712,-0.013 m 0.27462,0.022 -0.1375,-0.01 m 0.27521,0.012 h -0.13771 m 0.27546,0 -0.13775,10e-4 m 0.27538,-0.01 -0.13763,0.01 m 0.27496,-0.017 -0.13733,0.011 m 0.27421,-0.026 -0.13688,0.015 m 0.27314,-0.036 -0.13626,0.02 m 0.27173,-0.045 -0.13547,0.025 m 0.27,-0.055 -0.13453,0.03 m 0.26794,-0.064 -0.13341,0.034 m 0.26556,-0.073 -0.13215,0.039 m 0.26286,-0.082 -0.13071,0.043 m 0.25984,-0.091 -0.12913,0.048 m 0.25651,-0.1004 -0.12738,0.052 m 0.25286,-0.1092 -0.12548,0.057 m 0.24892,-0.118 -0.12344,0.061 m 0.24468,-0.1265 -0.12124,0.065 m 0.24014,-0.135 -0.1189,0.07 m 0.23532,-0.1432 -0.11642,0.074 m 0.2302,-0.1513 -0.11378,0.078 m 0.2248,-0.1592 -0.11102,0.082 m 0.21915,-0.1669 -0.10813,0.085 m 0.21323,-0.1744 -0.1051,0.089 m 0.20704,-0.1816 -0.10194,0.093 m 0.20061,-0.1888 -0.0987,0.096 m 0.19397,-0.1956 -0.0953,0.1 m 0.18706,-0.2022 -0.0918,0.1027 m 0.17994,-0.2086 -0.0881,0.1059 m 0.17251,-0.2148 -0.0844,0.1089 m 0.16498,-0.2206 -0.0806,0.1117 m 0.15726,-0.2261 -0.0767,0.1144 m 0.14934,-0.2315 -0.0726,0.1171 m 0.14113,-0.2366 -0.0685,0.1195 m 0.13284,-0.2413 -0.0643,0.1218 m 0.12438,-0.2458 -0.0601,0.124 m 0.11584,-0.2499 -0.0557,0.1259 m 0.10703,-0.2538 -0.0513,0.1279 m 0.0982,-0.2574 -0.0469,0.1295 m 0.0892,-0.2606 -0.0423,0.1311 m 0.0801,-0.2636 -0.0378,0.1325 m 0.071,-0.2662 -0.0331,0.1337 m 0.0616,-0.2684 -0.0285,0.1347 m 0.0523,-0.2704 -0.0238,0.1357 m 0.0429,-0.2722 -0.0191,0.1365 m 0.0334,-0.2735 -0.0143,0.137 m 0.0239,-0.2744 -0.01,0.1374 m 0.0148,-0.2751 -0.005,0.1377 m 0.005,-0.2754 v 0.1377 m -0.005,-0.2754 0.005,0.1377 m -0.0146,-0.2751 0.01,0.1374 m -0.0243,-0.2744 0.0143,0.137 m -0.0334,-0.2735 0.0191,0.1365 m -0.0429,-0.2721 0.0238,0.1356 m -0.0523,-0.2704 0.0285,0.1348 m -0.0617,-0.2685 0.0331,0.1337 m -0.0709,-0.2662 0.0378,0.1325 m -0.0801,-0.2636 0.0423,0.1311 m -0.0892,-0.2606 0.0469,0.1295 m -0.0982,-0.2574 0.0513,0.1279 m -0.10704,-0.2538 0.0557,0.1259 m -0.11578,-0.2499 0.0601,0.124 m -0.12444,-0.2458 0.0643,0.1218 m -0.13283,-0.2413 0.0685,0.1195 m -0.14114,-0.2365 0.0726,0.117 m -0.14926,-0.2315 0.0767,0.1145 m -0.15728,-0.2262 0.0806,0.1117 m -0.16501,-0.2206 0.0844,0.1089 m -0.17254,-0.2148 0.0881,0.1059 m -0.17986,-0.2086 0.0918,0.1027 m -0.18707,-0.2022 0.0953,0.1 m -0.19397,-0.1956 0.0987,0.096 m -0.20064,-0.1888 0.10194,0.093 m -0.20704,-0.1816 0.1051,0.089 m -0.21323,-0.1745 0.10813,0.085 m -0.21915,-0.1669 0.11102,0.081 m -0.2248,-0.1592 0.11378,0.078 m -0.2302,-0.1512 0.11642,0.074 m -0.23532,-0.1433 0.1189,0.07 m -0.24014,-0.135 0.12124,0.065 m -0.24468,-0.1265 0.12344,0.061 m -0.24892,-0.118 0.12548,0.057 m -0.25286,-0.1092 0.12738,0.052 m -0.25651,-0.1004 0.12913,0.048 m -0.25984,-0.091 0.13071,0.043 m -0.26286,-0.082 0.13215,0.039 m -0.26556,-0.073 0.13341,0.034 m -0.26794,-0.064 0.13453,0.03 m -0.27,-0.055 0.13547,0.025 m -0.27173,-0.045 0.13626,0.02 m -0.27314,-0.036 0.13688,0.015 m -0.27421,-0.026 0.13733,0.011 m -0.27496,-0.017 0.13763,0.01 m -0.27538,-0.01 0.13775,10e-4 m -0.27546,0 h 0.13771 m -0.27521,0.012 0.1375,-0.01 m -0.27462,0.021 0.13712,-0.013 m -0.27371,0.031 0.13659,-0.018 m -0.27248,0.041 0.13589,-0.023 m -0.27091,0.05 0.13502,-0.027 m -0.26901,0.059 0.13399,-0.032 m -0.26679,0.069 0.1328,-0.037 m -0.26425,0.078 0.13145,-0.041 m -0.26139,0.087 0.12994,-0.046 m -0.25821,0.096 0.12827,-0.05 m -0.25472,0.1048 0.12645,-0.055 m -0.25093,0.1136 0.12448,-0.059 m -0.24684,0.1223 0.12236,-0.063 m -0.24245,0.1308 0.12009,-0.068 m -0.23776,0.1391 0.11767,-0.072 m -0.23279,0.1473 0.11512,-0.076 m -0.22754,0.1553 0.11242,-0.08 m -0.22201,0.1631 0.10959,-0.084 m -0.21622,0.1707 0.10663,-0.087 m -0.21017,0.178 0.10354,-0.091 m -0.20386,0.1854 0.10032,-0.094 m -0.1973,0.1922 0.097,-0.098 m -0.19053,0.1989 0.0935,-0.1011 m -0.18346,0.2054 0.09,-0.1043 m -0.17629,0.2117 0.0863,-0.1074 m -0.16881,0.2177 0.0825,-0.1103 m -0.16113,0.2234 0.0786,-0.1131 m -0.15326,0.2289 0.0747,-0.1158 m -0.1453,0.2341 0.0706,-0.1183 m -0.13705,0.239 0.0665,-0.1207 m -0.12872,0.2436 0.0622,-0.1229 m -0.12011,0.2479 0.0579,-0.125 m -0.11145,0.2519 0.0536,-0.1269 m -0.1027,0.2556 0.0491,-0.1287 m -0.0937,0.259 0.0446,-0.1303 m -0.0847,0.2621 0.0401,-0.1318 m -0.0756,0.2649 0.0355,-0.1331 m -0.0663,0.2674 0.0308,-0.1343 m -0.0569,0.2695 0.0261,-0.1352 m -0.0475,0.2713 0.0214,-0.1361 m -0.0381,0.2729 0.0167,-0.1368 m -0.0286,0.274 0.0119,-0.1372 m -0.0191,0.2748 0.007,-0.1376 m -0.009,0.2753 0.002,-0.1377"
         style="fill:none;stroke:#0000ff;stroke-width:0.756;stroke-linecap:round;stroke-miterlimit:4;stroke-dasharray:none;stroke-opacity:1"
         id="path25224" />
      <path
         id="path25226"
         style="fill:none;stroke:#0000ff;stroke-width:0.756;stroke-linecap:round;stroke-miterlimit:4;stroke-dasharray:none;stroke-opacity:1"
         d="m 133.05162,1900.913 -0.002,-0.1378 m 0.009,0.2753 -0.007,-0.1375 m 0.0189,0.2748 -0.0119,-0.1373 m 0.0286,0.274 -0.0167,-0.1367 m 0.0381,0.2728 -0.0214,-0.1361 m 0.0475,0.2713 -0.0261,-0.1352 m 0.0569,0.2695 -0.0308,-0.1343 m 0.0663,0.2674 -0.0355,-0.1331 m 0.0756,0.2649 -0.0401,-0.1318 m 0.0847,0.2621 -0.0446,-0.1303 m 0.0937,0.259 -0.0491,-0.1287 m 0.10265,0.2557 -0.0536,-0.127 m 0.11151,0.2519 -0.0579,-0.1249 m 0.12012,0.2479 -0.0622,-0.123 m 0.12865,0.2436 -0.0665,-0.1207 m 0.1371,0.239 -0.0706,-0.1183 m 0.14526,0.2341 -0.0747,-0.1158 m 0.15333,0.2289 -0.0786,-0.1131 m 0.16111,0.2234 -0.0825,-0.1103 m 0.16879,0.2177 -0.0863,-0.1074 m 0.17626,0.2117 -0.09,-0.1043 m 0.18353,0.2054 -0.0935,-0.1011 m 0.19048,0.199 -0.097,-0.098 m 0.19732,0.1922 -0.10032,-0.094 m 0.20386,0.1852 -0.10354,-0.091 m 0.21017,0.1781 -0.10663,-0.087 m 0.21622,0.1707 -0.10959,-0.083 m 0.22201,0.1631 -0.11242,-0.08 m 0.22754,0.1553 -0.11512,-0.076 m 0.23279,0.1473 -0.11767,-0.072 m 0.23776,0.1391 -0.12009,-0.068 m 0.24245,0.1308 -0.12236,-0.063 m 0.24684,0.1223 -0.12448,-0.059 m 0.25093,0.1136 -0.12645,-0.055 m 0.25472,0.1048 -0.12827,-0.05 m 0.25821,0.096 -0.12994,-0.046 m 0.26139,0.087 -0.13145,-0.041 m 0.26425,0.078 -0.1328,-0.037 m 0.26679,0.069 -0.13399,-0.032 m 0.26901,0.059 -0.13502,-0.027 m 0.27091,0.05 -0.13589,-0.023 m 0.27248,0.041 -0.13659,-0.018 m 0.27371,0.031 -0.13712,-0.013 m 0.27462,0.022 -0.1375,-0.01 m 0.27521,0.012 h -0.13771 m 0.27546,0 -0.13775,10e-4 m 0.27538,-0.01 -0.13763,0.01 m 0.27496,-0.017 -0.13733,0.011 m 0.27421,-0.026 -0.13688,0.015 m 0.27314,-0.036 -0.13626,0.02 m 0.27173,-0.045 -0.13547,0.025 m 0.27,-0.055 -0.13453,0.03 m 0.26794,-0.064 -0.13341,0.034 m 0.26556,-0.073 -0.13215,0.039 m 0.26286,-0.082 -0.13071,0.043 m 0.25984,-0.091 -0.12913,0.048 m 0.25651,-0.1004 -0.12738,0.052 m 0.25286,-0.1092 -0.12548,0.057 m 0.24892,-0.118 -0.12344,0.061 m 0.24468,-0.1265 -0.12124,0.065 m 0.24014,-0.135 -0.1189,0.07 m 0.23532,-0.1432 -0.11642,0.074 m 0.2302,-0.1513 -0.11378,0.078 m 0.2248,-0.1592 -0.11102,0.082 m 0.21915,-0.1669 -0.10813,0.085 m 0.21323,-0.1744 -0.1051,0.089 m 0.20704,-0.1816 -0.10194,0.093 m 0.20061,-0.1888 -0.0987,0.096 m 0.19397,-0.1956 -0.0953,0.1 m 0.18706,-0.2022 -0.0918,0.1027 m 0.17994,-0.2086 -0.0881,0.1059 m 0.17251,-0.2148 -0.0844,0.1089 m 0.16498,-0.2206 -0.0806,0.1117 m 0.15726,-0.2261 -0.0767,0.1144 m 0.14934,-0.2315 -0.0726,0.1171 m 0.14113,-0.2366 -0.0685,0.1195 m 0.13284,-0.2413 -0.0643,0.1218 m 0.12438,-0.2458 -0.0601,0.124 m 0.11584,-0.2499 -0.0557,0.1259 m 0.10703,-0.2538 -0.0513,0.1279 m 0.0982,-0.2574 -0.0469,0.1295 m 0.0892,-0.2606 -0.0423,0.1311 m 0.0801,-0.2636 -0.0378,0.1325 m 0.071,-0.2662 -0.0331,0.1337 m 0.0616,-0.2684 -0.0285,0.1347 m 0.0523,-0.2704 -0.0238,0.1357 m 0.0429,-0.2722 -0.0191,0.1365 m 0.0334,-0.2735 -0.0143,0.137 m 0.0239,-0.2744 -0.01,0.1374 m 0.0148,-0.2751 -0.005,0.1377 m 0.005,-0.2754 v 0.1377 m -0.005,-0.2754 0.005,0.1377 m -0.0146,-0.2751 0.01,0.1374 m -0.0243,-0.2744 0.0143,0.137 m -0.0334,-0.2735 0.0191,0.1365 m -0.0429,-0.2721 0.0238,0.1356 m -0.0523,-0.2704 0.0285,0.1348 m -0.0617,-0.2685 0.0331,0.1337 m -0.0709,-0.2662 0.0378,0.1325 m -0.0801,-0.2636 0.0423,0.1311 m -0.0892,-0.2606 0.0469,0.1295 m -0.0982,-0.2574 0.0513,0.1279 m -0.10704,-0.2538 0.0557,0.1259 m -0.11578,-0.2499 0.0601,0.124 m -0.12444,-0.2458 0.0643,0.1218 m -0.13283,-0.2413 0.0685,0.1195 m -0.14114,-0.2365 0.0726,0.117 m -0.14926,-0.2315 0.0767,0.1145 m -0.15728,-0.2262 0.0806,0.1117 m -0.16501,-0.2206 0.0844,0.1089 m -0.17254,-0.2148 0.0881,0.1059 m -0.17986,-0.2086 0.0918,0.1027 m -0.18707,-0.2022 0.0953,0.1 m -0.19397,-0.1956 0.0987,0.096 m -0.20064,-0.1888 0.10194,0.093 m -0.20704,-0.1816 0.1051,0.089 m -0.21323,-0.1745 0.10813,0.085 m -0.21915,-0.1669 0.11102,0.081 m -0.2248,-0.1592 0.11378,0.078 m -0.2302,-0.1512 0.11642,0.074 m -0.23532,-0.1433 0.1189,0.07 m -0.24014,-0.135 0.12124,0.065 m -0.24468,-0.1265 0.12344,0.061 m -0.24892,-0.118 0.12548,0.057 m -0.25286,-0.1092 0.12738,0.052 m -0.25651,-0.1004 0.12913,0.048 m -0.25984,-0.091 0.13071,0.043 m -0.26286,-0.082 0.13215,0.039 m -0.26556,-0.073 0.13341,0.034 m -0.26794,-0.064 0.13453,0.03 m -0.27,-0.055 0.13547,0.025 m -0.27173,-0.045 0.13626,0.02 m -0.27314,-0.036 0.13688,0.015 m -0.27421,-0.026 0.13733,0.011 m -0.27496,-0.017 0.13763,0.01 m -0.27538,-0.01 0.13775,10e-4 m -0.27546,0 h 0.13771 m -0.27521,0.012 0.1375,-0.01 m -0.27462,0.021 0.13712,-0.013 m -0.27371,0.031 0.13659,-0.018 m -0.27248,0.041 0.13589,-0.023 m -0.27091,0.05 0.13502,-0.027 m -0.26901,0.059 0.13399,-0.032 m -0.26679,0.069 0.1328,-0.037 m -0.26425,0.078 0.13145,-0.041 m -0.26139,0.087 0.12994,-0.046 m -0.25821,0.096 0.12827,-0.05 m -0.25472,0.1048 0.12645,-0.055 m -0.25093,0.1136 0.12448,-0.059 m -0.24684,0.1223 0.12236,-0.063 m -0.24245,0.1308 0.12009,-0.068 m -0.23776,0.1391 0.11767,-0.072 m -0.23279,0.1473 0.11512,-0.076 m -0.22754,0.1553 0.11242,-0.08 m -0.22201,0.1631 0.10959,-0.084 m -0.21622,0.1707 0.10663,-0.087 m -0.21017,0.178 0.10354,-0.091 m -0.20386,0.1854 0.10032,-0.094 m -0.1973,0.1922 0.097,-0.098 m -0.19053,0.1989 0.0935,-0.1011 m -0.18346,0.2054 0.09,-0.1043 m -0.17629,0.2117 0.0863,-0.1074 m -0.16881,0.2177 0.0825,-0.1103 m -0.16113,0.2234 0.0786,-0.1131 m -0.15326,0.2289 0.0747,-0.1158 m -0.1453,0.2341 0.0706,-0.1183 m -0.13705,0.239 0.0665,-0.1207 m -0.12872,0.2436 0.0622,-0.1229 m -0.12011,0.2479 0.0579,-0.125 m -0.11145,0.2519 0.0536,-0.1269 m -0.1027,0.2556 0.0491,-0.1287 m -0.0937,0.259 0.0446,-0.1303 m -0.0847,0.2621 0.0401,-0.1318 m -0.0756,0.2649 0.0355,-0.1331 m -0.0663,0.2674 0.0308,-0.1343 m -0.0569,0.2695 0.0261,-0.1352 m -0.0475,0.2713 0.0214,-0.1361 m -0.0381,0.2729 0.0167,-0.1368 m -0.0286,0.274 0.0119,-0.1372 m -0.0191,0.2748 0.007,-0.1376 m -0.009,0.2753 0.002,-0.1377" />
      <g
         id="g25526"
         style="stroke:#0000ff;stroke-width:0.756;stroke-miterlimit:4;stroke-dasharray:none;stroke-opacity:1"
         transform="matrix(1.0190549,0,0,1.0167782,-6.8678308,1232.053)">
        <path
           d="m 257.66606,204.67346 -0.004,0.25808 m 0.0172,-0.51585 -0.0132,0.25777 m 0.0352,-0.51494 -0.022,0.25717 m 0.0528,-0.51344 -0.0308,0.25627 m 0.0703,-0.51135 -0.0395,0.25508 m 0.0877,-0.50865 -0.0482,0.25357 m 0.10502,-0.50535 -0.0568,0.25178 m 0.12218,-0.50147 -0.0654,0.24969 m 0.13927,-0.49701 -0.0739,0.24732 m 0.15617,-0.49197 -0.0823,0.24465 m 0.17288,-0.48635 -0.0906,0.2417 m 0.18938,-0.48016 -0.0988,0.23846 m 0.20565,-0.47341 -0.10685,0.23495 m 0.22167,-0.46612 -0.11482,0.23117 m 0.23747,-0.45828 -0.12265,0.22711 m 0.25297,-0.44991 -0.13032,0.2228 m 0.26818,-0.44101 -0.13786,0.21821 m 0.28309,-0.43159 -0.14523,0.21338 m 0.29765,-0.42168 -0.15242,0.2083 m 0.31187,-0.41127 -0.15945,0.20297 m 0.32574,-0.40038 -0.16629,0.19741 m 0.33922,-0.38903 -0.17293,0.19162 m 0.3523,-0.37722 -0.17937,0.1856 m 0.36497,-0.36497 -0.1856,0.17937 m 0.37722,-0.3523 -0.19162,0.17293 m 0.38903,-0.33922 -0.19741,0.16629 m 0.40038,-0.32574 -0.20297,0.15945 m 0.41127,-0.31187 -0.2083,0.15242 m 0.42168,-0.29765 -0.21338,0.14523 m 0.43159,-0.28309 -0.21821,0.13786 m 0.44101,-0.26818 -0.2228,0.13032 m 0.44991,-0.25297 -0.22711,0.12265 m 0.45828,-0.23747 -0.23117,0.11482 m 0.46612,-0.22167 -0.23495,0.10685 m 0.47341,-0.20563 -0.23846,0.0988 m 0.48016,-0.18938 -0.2417,0.0906 m 0.48635,-0.17287 -0.24465,0.0823 m 0.49197,-0.15617 -0.24732,0.0739 m 0.49701,-0.13928 -0.24969,0.0654 m 0.50147,-0.12222 -0.25178,0.0568 m 0.50535,-0.105 -0.25357,0.0482 m 0.50864,-0.0877 -0.25507,0.0395 m 0.51135,-0.0703 -0.25628,0.0308 m 0.51345,-0.0528 -0.25717,0.022 m 0.51494,-0.0352 -0.25777,0.0132 m 0.51585,-0.0176 -0.25808,0.004 m 275.15942,-0.004 H 265.22071 m 275.15941,0.004 -0.25807,-0.004 m 0.51584,0.0172 -0.25777,-0.0132 m 0.51495,0.0352 -0.25718,-0.022 m 0.51345,0.0528 -0.25627,-0.0308 m 0.51134,0.0703 -0.25507,-0.0395 m 0.50864,0.0877 -0.25357,-0.0482 m 0.50535,0.10502 -0.25178,-0.0568 m 0.50147,0.12218 -0.24969,-0.0654 m 0.49701,0.13927 -0.24732,-0.0739 m 0.49197,0.15617 -0.24465,-0.0823 m 0.48635,0.17288 -0.2417,-0.0906 m 0.48016,0.18938 -0.23846,-0.0988 m 0.47341,0.20565 -0.23495,-0.10685 m 0.46612,0.22167 -0.23117,-0.11482 m 0.45829,0.23747 -0.22712,-0.12265 m 0.44991,0.25297 -0.22279,-0.13032 m 0.441,0.26818 -0.21821,-0.13786 m 0.43159,0.28309 -0.21338,-0.14523 m 0.42168,0.29765 -0.2083,-0.15242 m 0.41127,0.31187 -0.20297,-0.15945 m 0.40038,0.32574 -0.19741,-0.16629 m 0.38903,0.33922 -0.19162,-0.17293 m 0.37722,0.3523 -0.1856,-0.17937 m 0.36498,0.36497 -0.17938,-0.1856 m 0.3523,0.37722 -0.17292,-0.19162 m 0.33921,0.38903 -0.16629,-0.19741 m 0.32574,0.40038 -0.15945,-0.20297 m 0.31188,0.41127 -0.15243,-0.2083 m 0.29765,0.42168 -0.14522,-0.21338 m 0.28308,0.43159 -0.13786,-0.21821 m 0.26819,0.44101 -0.13033,-0.2228 m 0.25297,0.44991 -0.12264,-0.22711 m 0.23746,0.45828 -0.11482,-0.23117 m 0.22168,0.46612 -0.10686,-0.23495 m 0.20563,0.47341 -0.0988,-0.23846 m 0.18938,0.48016 -0.0906,-0.2417 m 0.17287,0.48635 -0.0823,-0.24465 m 0.15617,0.49197 -0.0739,-0.24732 m 0.13928,0.49701 -0.0654,-0.24969 m 0.12223,0.50147 -0.0568,-0.25178 m 0.10499,0.50535 -0.0482,-0.25357 m 0.0877,0.50865 -0.0395,-0.25508 m 0.0703,0.51135 -0.0308,-0.25627 m 0.0528,0.51344 -0.022,-0.25717 m 0.0352,0.51494 -0.0132,-0.25777 m 0.0176,0.51585 -0.004,-0.25808 m 0.004,63.1885 v -62.93002 m -0.004,63.18849 0.004,-0.25807 m -0.0172,0.51585 0.0132,-0.25778 m -0.0352,0.51495 0.022,-0.25717 m -0.0528,0.51344 0.0308,-0.25627 m -0.0703,0.51134 0.0395,-0.25507 m -0.0877,0.50864 0.0482,-0.25357 m -0.10503,0.50535 0.0568,-0.25178 m -0.12218,0.50148 0.0654,-0.2497 m -0.13927,0.49701 0.0739,-0.24731 m -0.15617,0.49196 0.0823,-0.24465 m -0.17288,0.48635 0.0906,-0.2417 m -0.18937,0.48017 0.0988,-0.23847 m -0.20566,0.47342 0.10686,-0.23495 m -0.22168,0.46612 0.11482,-0.23117 m -0.23746,0.45828 0.12264,-0.22711 m -0.25297,0.4499 0.13033,-0.22279 m -0.26819,0.44101 0.13786,-0.21822 m -0.28308,0.4316 0.14522,-0.21338 m -0.29765,0.42168 0.15243,-0.2083 m -0.31188,0.41127 0.15945,-0.20297 m -0.32574,0.40038 0.16629,-0.19741 m -0.33921,0.38903 0.17292,-0.19162 m -0.3523,0.37722 0.17938,-0.1856 m -0.36498,0.36497 0.1856,-0.17937 m -0.37722,0.3523 0.19162,-0.17293 m -0.38903,0.33921 0.19741,-0.16628 m -0.40038,0.32573 0.20297,-0.15945 m -0.41127,0.31188 0.2083,-0.15243 m -0.42168,0.29766 0.21338,-0.14523 m -0.43159,0.28308 0.21821,-0.13785 m -0.441,0.26818 0.22279,-0.13033 m -0.44991,0.25297 0.22712,-0.12264 m -0.45829,0.23746 0.23117,-0.11482 m -0.46612,0.22168 0.23495,-0.10686 m -0.47341,0.20564 0.23846,-0.0988 m -0.48016,0.18937 0.2417,-0.0906 m -0.48635,0.17287 0.24465,-0.0823 m -0.49197,0.15617 0.24732,-0.0739 m -0.49701,0.13929 0.24969,-0.0654 m -0.50147,0.12222 0.25178,-0.0568 m -0.50535,0.10499 0.25357,-0.0482 m -0.50864,0.0877 0.25507,-0.0395 m -0.51134,0.0703 0.25627,-0.0308 m -0.51345,0.0528 0.25718,-0.022 m -0.51495,0.0352 0.25777,-0.0132 m -0.51584,0.0176 0.25807,-0.004 m -275.15941,0.004 h 274.90134 m -275.15942,-0.004 0.25808,0.004 m -0.51585,-0.0172 0.25777,0.0132 m -0.51494,-0.0352 0.25717,0.022 m -0.51345,-0.0528 0.25628,0.0308 m -0.51135,-0.0703 0.25507,0.0395 m -0.50864,-0.0877 0.25357,0.0482 m -0.50535,-0.10502 0.25178,0.0568 m -0.50147,-0.12219 0.24969,0.0654 m -0.49701,-0.13927 0.24732,0.0739 m -0.49197,-0.15617 0.24465,0.0823 m -0.48635,-0.17287 0.2417,0.0906 m -0.48016,-0.18938 0.23846,0.0988 m -0.47341,-0.20566 0.23495,0.10686 m -0.46612,-0.22168 0.23117,0.11482 m -0.45828,-0.23746 0.22711,0.12264 m -0.44991,-0.25297 0.2228,0.13033 m -0.44101,-0.26818 0.21821,0.13785 m -0.43159,-0.28308 0.21338,0.14523 m -0.42168,-0.29766 0.2083,0.15243 m -0.41127,-0.31188 0.20297,0.15945 m -0.40038,-0.32573 0.19741,0.16628 m -0.38903,-0.33921 0.19162,0.17293 m -0.37722,-0.3523 0.1856,0.17937 m -0.36497,-0.36497 0.17937,0.1856 m -0.3523,-0.37722 0.17293,0.19162 m -0.33922,-0.38903 0.16629,0.19741 m -0.32574,-0.40038 0.15945,0.20297 m -0.31187,-0.41127 0.15242,0.2083 m -0.29765,-0.42168 0.14523,0.21338 m -0.28309,-0.4316 0.13786,0.21822 m -0.26818,-0.44101 0.13032,0.22279 m -0.25297,-0.4499 0.12265,0.22711 m -0.23747,-0.45828 0.11482,0.23117 m -0.22167,-0.46612 0.10685,0.23495 m -0.20563,-0.47342 0.0988,0.23847 m -0.18938,-0.48017 0.0906,0.2417 m -0.17287,-0.48635 0.0823,0.24465 m -0.15617,-0.49196 0.0739,0.24731 m -0.13928,-0.49701 0.0654,0.2497 m -0.12222,-0.50148 0.0568,0.25178 m -0.105,-0.50535 0.0482,0.25357 m -0.0877,-0.50864 0.0395,0.25507 m -0.0703,-0.51134 0.0308,0.25627 m -0.0528,-0.51344 0.022,0.25717 m -0.0352,-0.51495 0.0132,0.25778 m -0.0176,-0.51585 0.004,0.25807 m -0.004,-63.18849 v 62.93042"
           style="fill:none;stroke:#0000ff;stroke-width:0.756;stroke-linecap:round;stroke-miterlimit:4;stroke-dasharray:none;stroke-opacity:1"
           id="path25524" />
      </g>
      <g
         id="g28126">
        <path
           id="path27796"
           style="fill:none;stroke:#0000ff;stroke-width:0.769544;stroke-linecap:round;stroke-miterlimit:4;stroke-dasharray:none;stroke-opacity:1"
           d="m 173.40693,1890.0983 h 64.29708 m 7.6989,-143.9346 0.004,0.2624 m -0.0175,-0.5245 0.0135,0.2621 m -0.0359,-0.5236 0.0224,0.2615 m -0.0538,-0.522 0.0314,0.2605 m -0.0716,-0.5199 0.0402,0.2594 m -0.0894,-0.5172 0.0491,0.2578 m -0.10702,-0.5138 0.0579,0.256 m -0.12451,-0.5099 0.0667,0.2539 m -0.14193,-0.5054 0.0753,0.2515 m -0.15914,-0.5002 0.0839,0.2487 m -0.17617,-0.4945 0.0923,0.2458 m -0.19299,-0.4882 0.10068,0.2424 m -0.20957,-0.4813 0.10889,0.2389 m -0.2259,-0.474 0.11701,0.2351 m -0.24199,-0.466 0.12498,0.2309 m -0.25779,-0.4574 0.13281,0.2265 m -0.27329,-0.4484 0.14048,0.2219 m -0.28848,-0.4389 0.148,0.217 m -0.30332,-0.4288 0.15532,0.2118 m -0.31781,-0.4181 0.16249,0.2063 m -0.33195,-0.4071 0.16946,0.2008 m -0.34569,-0.3956 0.17623,0.1948 m -0.35901,-0.3835 0.18278,0.1887 m -0.37192,-0.3711 0.18914,0.1824 m -0.38441,-0.3582 0.19527,0.1758 m -0.39644,-0.3449 0.20117,0.1691 m -0.40801,-0.3312 0.20684,0.1621 m -0.41911,-0.3171 0.21227,0.155 m -0.42972,-0.3027 0.21745,0.1477 m -0.43982,-0.2878 0.22237,0.1401 m -0.44941,-0.2727 0.22704,0.1326 m -0.45848,-0.2573 0.23144,0.1247 m -0.46701,-0.2414 0.23557,0.1167 m -0.475,-0.2254 0.23943,0.1087 m -0.48243,-0.2091 0.243,0.1005 m -0.48931,-0.1926 0.24631,0.092 m -0.49562,-0.1757 0.24931,0.084 m -0.50134,-0.1587 0.25203,0.075 m -0.50648,-0.1416 0.25445,0.066 m -0.51103,-0.1243 0.25658,0.058 m -0.51498,-0.1068 0.2584,0.049 m -0.51833,-0.089 0.25993,0.04 m -0.52109,-0.072 0.26116,0.031 m -0.52324,-0.054 0.26208,0.022 m -0.52476,-0.036 0.26268,0.013 m -0.52567,-0.018 h 0.26299 m -2.7e-4,151.3604 h -0.263 m 0.52568,-0.017 -0.26268,0.013 m 0.52475,-0.036 -0.26207,0.022 m 0.52323,-0.054 -0.26116,0.031 m 0.52109,-0.072 -0.25993,0.04 m 0.51833,-0.089 -0.2584,0.049 m 0.51498,-0.1068 -0.25658,0.058 m 0.51103,-0.1242 -0.25445,0.066 m 0.50648,-0.1416 -0.25203,0.075 m 0.50134,-0.1588 -0.24931,0.084 m 0.49562,-0.1758 -0.24631,0.092 m 0.48931,-0.1925 -0.243,0.1004 m 0.48243,-0.2091 -0.23943,0.1087 m 0.475,-0.2254 -0.23557,0.1167 m 0.46701,-0.2414 -0.23144,0.1247 m 0.45849,-0.2572 -0.22705,0.1325 m 0.44942,-0.2727 -0.22237,0.1402 m 0.43981,-0.2879 -0.21744,0.1477 m 0.42971,-0.3027 -0.21227,0.155 m 0.41911,-0.3171 -0.20684,0.1621 m 0.40801,-0.3312 -0.20117,0.1691 m 0.39644,-0.3449 -0.19527,0.1758 m 0.38441,-0.3582 -0.18914,0.1824 m 0.37193,-0.3711 -0.18279,0.1887 m 0.35901,-0.3835 -0.17622,0.1948 m 0.34568,-0.3955 -0.16946,0.2007 m 0.33195,-0.4071 -0.16249,0.2064 m 0.31781,-0.4182 -0.15532,0.2118 m 0.30332,-0.4288 -0.148,0.217 m 0.28849,-0.4388 -0.14049,0.2218 m 0.27329,-0.4484 -0.1328,0.2266 m 0.25779,-0.4575 -0.12499,0.2309 m 0.24199,-0.4659 -0.117,0.235 m 0.22589,-0.4739 -0.10889,0.2389 m 0.20955,-0.4814 -0.10068,0.2425 m 0.19299,-0.4883 -0.0923,0.2458 m 0.17617,-0.4945 -0.0839,0.2487 m 0.15914,-0.5002 -0.0753,0.2515 m 0.14193,-0.5054 -0.0667,0.2539 m 0.12455,-0.5099 -0.0579,0.256 m 0.107,-0.5138 -0.0491,0.2578 m 0.0894,-0.5171 -0.0403,0.2593 m 0.0716,-0.5199 -0.0314,0.2606 m 0.0538,-0.5221 -0.0224,0.2615 m 0.0359,-0.5236 -0.0135,0.2621 m 0.0179,-0.5245 -0.004,0.2624 m 0.004,-136.2467 v 135.9863 m -79.6989,-136.2493 -0.004,0.2624 m 0.0175,-0.5245 -0.0135,0.2621 m 0.0359,-0.5236 -0.0224,0.2615 m 0.0538,-0.522 -0.0314,0.2605 m 0.0716,-0.5199 -0.0402,0.2594 m 0.0894,-0.5172 -0.0491,0.2578 m 0.10702,-0.5138 -0.0579,0.256 m 0.12451,-0.5099 -0.0667,0.2539 m 0.14193,-0.5054 -0.0753,0.2515 m 0.15914,-0.5002 -0.0839,0.2487 m 0.17617,-0.4945 -0.0923,0.2458 m 0.19299,-0.4882 -0.10068,0.2424 m 0.20957,-0.4813 -0.10889,0.2389 m 0.2259,-0.474 -0.11701,0.2351 m 0.24199,-0.466 -0.12498,0.2309 m 0.25779,-0.4574 -0.13281,0.2265 m 0.27329,-0.4484 -0.14048,0.2219 m 0.28848,-0.4389 -0.148,0.217 m 0.30332,-0.4288 -0.15532,0.2118 m 0.31781,-0.4181 -0.16249,0.2063 m 0.33195,-0.4071 -0.16946,0.2008 m 0.34569,-0.3956 -0.17623,0.1948 m 0.35901,-0.3835 -0.18278,0.1887 m 0.37192,-0.3711 -0.18914,0.1824 m 0.38441,-0.3582 -0.19527,0.1758 m 0.39644,-0.3449 -0.20117,0.1691 m 0.40801,-0.3312 -0.20684,0.1621 m 0.41911,-0.3171 -0.21227,0.155 m 0.42972,-0.3027 -0.21745,0.1477 m 0.43982,-0.2878 -0.22237,0.1401 m 0.44941,-0.2727 -0.22704,0.1326 m 0.45848,-0.2573 -0.23144,0.1247 m 0.46701,-0.2414 -0.23557,0.1167 m 0.475,-0.2254 -0.23943,0.1087 m 0.48243,-0.2091 -0.243,0.1005 m 0.48931,-0.1926 -0.24631,0.092 m 0.49562,-0.1757 -0.24931,0.084 m 0.50134,-0.1587 -0.25203,0.075 m 0.50648,-0.1416 -0.25445,0.066 m 0.51103,-0.1243 -0.25658,0.058 m 0.51498,-0.1068 -0.2584,0.049 m 0.51833,-0.089 -0.25993,0.04 m 0.52109,-0.072 -0.26116,0.031 m 0.52324,-0.054 -0.26208,0.022 m 0.52476,-0.036 -0.26268,0.013 m 0.52567,-0.018 h -0.26299 m 64.56063,0 h -64.29766 m -0.2627,151.3604 h 0.263 m -0.52568,-0.017 0.26268,0.013 m -0.52475,-0.036 0.26207,0.022 m -0.52323,-0.054 0.26116,0.031 m -0.52109,-0.072 0.25993,0.04 m -0.51833,-0.089 0.2584,0.049 m -0.51498,-0.1068 0.25658,0.058 m -0.51103,-0.1242 0.25445,0.066 m -0.50648,-0.1416 0.25203,0.075 m -0.50134,-0.1588 0.24931,0.084 m -0.49562,-0.1758 0.24631,0.092 m -0.48931,-0.1925 0.243,0.1004 m -0.48243,-0.2091 0.23943,0.1087 m -0.475,-0.2254 0.23557,0.1167 m -0.46701,-0.2414 0.23144,0.1247 m -0.45849,-0.2572 0.22705,0.1325 m -0.44942,-0.2727 0.22237,0.1402 m -0.43981,-0.2879 0.21744,0.1477 m -0.42971,-0.3027 0.21227,0.155 m -0.41911,-0.3171 0.20684,0.1621 m -0.40801,-0.3312 0.20117,0.1691 m -0.39644,-0.3449 0.19527,0.1758 m -0.38441,-0.3582 0.18914,0.1824 m -0.37193,-0.3711 0.18279,0.1887 m -0.35901,-0.3835 0.17622,0.1948 m -0.34568,-0.3955 0.16946,0.2007 m -0.33195,-0.4071 0.16249,0.2064 m -0.31781,-0.4182 0.15532,0.2118 m -0.30332,-0.4288 0.148,0.217 m -0.28849,-0.4388 0.14049,0.2218 m -0.27329,-0.4484 0.1328,0.2266 m -0.25779,-0.4575 0.12499,0.2309 m -0.24199,-0.4659 0.117,0.235 m -0.22589,-0.4739 0.10889,0.2389 m -0.20955,-0.4814 0.10068,0.2425 m -0.19299,-0.4883 0.0923,0.2458 m -0.17617,-0.4945 0.0839,0.2487 m -0.15914,-0.5002 0.0753,0.2515 m -0.14193,-0.5054 0.0667,0.2539 m -0.12455,-0.5099 0.0579,0.256 m -0.107,-0.5138 0.0491,0.2578 m -0.0894,-0.5171 0.0403,0.2593 m -0.0716,-0.5199 0.0314,0.2606 m -0.0538,-0.5221 0.0224,0.2615 m -0.0359,-0.5236 0.0135,0.2621 m -0.0179,-0.5245 0.004,0.2624 m -0.004,-136.2467 v 135.9863" />
      </g>
      <g
         id="g28318">
        <g
           transform="translate(-10.00386)"
           id="g27936">
          <path
             id="path27888"
             style="fill:none;stroke:#0000ff;stroke-width:0.769544;stroke-linecap:round;stroke-miterlimit:4;stroke-dasharray:none;stroke-opacity:1"
             d="m 273.14393,1890.0983 h 0.263 m -0.52568,-0.017 0.26268,0.013 m -0.52475,-0.036 0.26207,0.022 m -0.52323,-0.054 0.26116,0.031 m -0.52109,-0.072 0.25993,0.04 m -0.51833,-0.089 0.2584,0.049 m -0.51498,-0.1068 0.25658,0.058 m -0.51103,-0.1242 0.25445,0.066 m -0.50648,-0.1416 0.25203,0.075 m -0.50134,-0.1588 0.24931,0.084 m -0.49562,-0.1758 0.24631,0.092 m -0.48931,-0.1925 0.243,0.1004 m -0.48243,-0.2091 0.23943,0.1087 m -0.475,-0.2254 0.23557,0.1167 m -0.46701,-0.2414 0.23144,0.1247 m -0.45849,-0.2572 0.22705,0.1325 m -0.44942,-0.2727 0.22237,0.1402 m -0.43981,-0.2879 0.21744,0.1477 m -0.42971,-0.3027 0.21227,0.155 m -0.41911,-0.3171 0.20684,0.1621 m -0.40801,-0.3312 0.20117,0.1691 m -0.39644,-0.3449 0.19527,0.1758 m -0.38441,-0.3582 0.18914,0.1824 m -0.37193,-0.3711 0.18279,0.1887 m -0.35901,-0.3835 0.17622,0.1948 m -0.34568,-0.3955 0.16946,0.2007 m -0.33195,-0.4071 0.16249,0.2064 m -0.31781,-0.4182 0.15532,0.2118 m -0.30332,-0.4288 0.148,0.217 m -0.28849,-0.4388 0.14049,0.2218 m -0.27329,-0.4484 0.1328,0.2266 m -0.25779,-0.4575 0.12499,0.2309 m -0.24199,-0.4659 0.117,0.235 m -0.22589,-0.4739 0.10889,0.2389 m -0.20955,-0.4814 0.10068,0.2425 m -0.19299,-0.4883 0.0923,0.2458 m -0.17617,-0.4945 0.0839,0.2487 m -0.15914,-0.5002 0.0753,0.2515 m -0.14193,-0.5054 0.0667,0.2539 m -0.12455,-0.5099 0.0579,0.256 m -0.107,-0.5138 0.0491,0.2578 m -0.0894,-0.5171 0.0403,0.2593 m -0.0716,-0.5199 0.0314,0.2606 m -0.0538,-0.5221 0.0224,0.2615 m -0.0359,-0.5236 0.0135,0.2621 m -0.0179,-0.5245 0.004,0.2624 m 7.70278,7.4249 h 280.13956 m -287.83846,-359.9346 -0.004,0.2624 m 0.0174,-0.5245 -0.0135,0.2621 m 0.0359,-0.5236 -0.0224,0.2615 m 0.0538,-0.522 -0.0314,0.2605 m 0.0716,-0.5199 -0.0402,0.2594 m 0.0893,-0.5172 -0.0491,0.2578 m 0.107,-0.5138 -0.0579,0.256 m 0.12453,-0.5099 -0.0667,0.2539 m 0.14198,-0.5054 -0.0753,0.2515 m 0.15913,-0.5002 -0.0839,0.2487 m 0.17621,-0.4945 -0.0923,0.2458 m 0.19296,-0.4882 -0.10068,0.2424 m 0.20957,-0.4813 -0.10889,0.2389 m 0.22589,-0.474 -0.117,0.2351 m 0.24199,-0.466 -0.12499,0.2309 m 0.2578,-0.4574 -0.13281,0.2265 m 0.27329,-0.4484 -0.14048,0.2219 m 0.28848,-0.4389 -0.148,0.217 m 0.30332,-0.4288 -0.15532,0.2118 m 0.31781,-0.4181 -0.16249,0.2063 m 0.33195,-0.4071 -0.16946,0.2008 m 0.34569,-0.3956 -0.17623,0.1948 m 0.35901,-0.3835 -0.18278,0.1887 m 0.37192,-0.3711 -0.18914,0.1824 m 0.38441,-0.3582 -0.19527,0.1758 m 0.39644,-0.3449 -0.20117,0.1691 m 0.40801,-0.3312 -0.20684,0.1621 m 0.41911,-0.3171 -0.21227,0.155 m 0.42972,-0.3027 -0.21745,0.1477 m 0.43981,-0.2878 -0.22236,0.1401 m 0.44941,-0.2727 -0.22705,0.1326 m 0.45849,-0.2573 -0.23144,0.1247 m 0.46701,-0.2414 -0.23557,0.1167 m 0.475,-0.2254 -0.23943,0.1087 m 0.48243,-0.2091 -0.243,0.1005 m 0.48931,-0.1926 -0.24631,0.092 m 0.49562,-0.1756 -0.24931,0.084 m 0.50134,-0.1591 -0.25203,0.075 m 0.50648,-0.1415 -0.25445,0.066 m 0.51103,-0.1238 -0.25658,0.058 m 0.51498,-0.107 -0.2584,0.049 m 0.51833,-0.089 -0.25993,0.04 m 0.52109,-0.071 -0.26116,0.031 m 0.52323,-0.053 -0.26207,0.022 m 0.52476,-0.035 -0.26269,0.013 m 0.52568,-0.018 h -0.26299 m 280.40255,0 H 273.41049 m 280.40255,0 h -0.26299 m 0.52567,0.013 -0.26268,-0.013 m 0.52476,0.035 -0.26208,-0.022 m 0.52323,0.053 -0.26115,-0.031 m 0.52108,0.071 -0.25993,-0.04 m 0.51834,0.089 -0.25841,-0.049 m 0.51498,0.1068 -0.25657,-0.058 m 0.51102,0.1244 -0.25445,-0.066 m 0.50648,0.1412 -0.25203,-0.075 m 0.50135,0.1586 -0.24932,-0.084 m 0.49562,0.1761 -0.2463,-0.092 m 0.48931,0.1924 -0.24301,-0.1004 m 0.48243,0.2091 -0.23942,-0.1087 m 0.475,0.2254 -0.23558,-0.1167 m 0.46702,0.2414 -0.23144,-0.1247 m 0.45848,0.2572 -0.22704,-0.1325 m 0.44941,0.2727 -0.22237,-0.1402 m 0.43981,0.2879 -0.21744,-0.1477 m 0.42971,0.3027 -0.21227,-0.155 m 0.41911,0.3171 -0.20684,-0.1621 m 0.40801,0.3312 -0.20117,-0.1691 m 0.39644,0.3449 -0.19527,-0.1758 m 0.38441,0.3582 -0.18914,-0.1824 m 0.37194,0.3711 -0.1828,-0.1887 m 0.35901,0.3835 -0.17621,-0.1948 m 0.34567,0.3955 -0.16946,-0.2007 m 0.33195,0.4071 -0.16249,-0.2064 m 0.31782,0.4182 -0.15533,-0.2118 m 0.30332,0.4288 -0.14799,-0.217 m 0.28848,0.4389 -0.14049,-0.2219 m 0.2733,0.4484 -0.13281,-0.2265 m 0.25779,0.4574 -0.12498,-0.2309 m 0.24199,0.466 -0.11701,-0.2351 m 0.2259,0.474 -0.10889,-0.2389 m 0.20955,0.4813 -0.10069,-0.2424 m 0.19299,0.4882 -0.0923,-0.2458 m 0.17614,0.4945 -0.0839,-0.2487 m 0.15918,0.5002 -0.0753,-0.2515 m 0.14192,0.5054 -0.0666,-0.2539 m 0.12452,0.5099 -0.0579,-0.256 m 0.107,0.5138 -0.0491,-0.2578 m 0.0894,0.5172 -0.0403,-0.2594 m 0.0717,0.5199 -0.0314,-0.2605 m 0.0538,0.522 -0.0224,-0.2615 m 0.0358,0.5236 -0.0135,-0.2621 m 0.018,0.5245 -0.004,-0.2624 m 0.004,352.2487 v -351.9859 m -0.004,352.2487 0.004,-0.2624 m -0.0174,0.5245 0.0135,-0.2621 m -0.0359,0.5236 0.0224,-0.2615 m -0.0538,0.5221 0.0314,-0.2606 m -0.0716,0.5199 0.0402,-0.2593 m -0.0893,0.5171 0.0491,-0.2578 m -0.10701,0.5138 0.0579,-0.256 m -0.12453,0.5099 0.0666,-0.2539 m -0.14187,0.5054 0.0753,-0.2515 m -0.15914,0.5002 0.0839,-0.2487 m -0.17621,0.4945 0.0923,-0.2458 m -0.19295,0.4883 0.10068,-0.2425 m -0.20958,0.4814 0.1089,-0.2389 m -0.2259,0.4739 0.117,-0.235 m -0.24198,0.4659 0.12498,-0.2309 m -0.25779,0.4575 0.13281,-0.2266 m -0.2733,0.4484 0.14049,-0.2218 m -0.28848,0.4388 0.14799,-0.217 m -0.30332,0.4288 0.15533,-0.2118 m -0.31782,0.4182 0.16249,-0.2064 m -0.33195,0.4071 0.16946,-0.2007 m -0.34567,0.3955 0.17621,-0.1948 m -0.35901,0.3835 0.1828,-0.1887 m -0.37194,0.3711 0.18914,-0.1824 m -0.38441,0.3583 0.19527,-0.1759 m -0.39644,0.3449 0.20117,-0.169 m -0.40801,0.3311 0.20684,-0.1621 m -0.41911,0.3171 0.21227,-0.155 m -0.42971,0.3027 0.21744,-0.1477 m -0.43981,0.2879 0.22237,-0.1402 m -0.44941,0.2727 0.22704,-0.1325 m -0.45849,0.2572 0.23145,-0.1247 m -0.46702,0.2414 0.23557,-0.1167 m -0.475,0.2254 0.23943,-0.1087 m -0.48243,0.2091 0.243,-0.1004 m -0.48931,0.1925 0.24631,-0.092 m -0.49562,0.1757 0.24931,-0.084 m -0.50134,0.1591 0.25203,-0.075 m -0.50648,0.1415 0.25445,-0.066 m -0.51103,0.1237 0.25658,-0.058 m -0.51498,0.107 0.2584,-0.049 m -0.51833,0.089 0.25993,-0.04 m -0.52108,0.071 0.26115,-0.031 m -0.52323,0.053 0.26208,-0.022 m -0.52476,0.035 0.26268,-0.013 m -0.52567,0.018 h 0.26299 m -288.10564,-359.6718 -0.004,351.9899" />
        </g>
      </g>
    </g>
    <g
       style="stroke:#0000ff;stroke-width:0.636735;stroke-miterlimit:4;stroke-dasharray:none;stroke-opacity:1"
       id="g1235"
       transform="matrix(1.1904161,0,0,1.1842076,995.0428,-1567.803)" />
  </g>
  <desc
     id="desc7274">bottom_plate.dxf - scale = 1.000000, origin = (0.000000, 0.000000), method = file</desc>
</svg>
