<?xml version="1.0" encoding="UTF-8" standalone="no"?>
<svg
   xmlns:dc="http://purl.org/dc/elements/1.1/"
   xmlns:cc="http://creativecommons.org/ns#"
   xmlns:rdf="http://www.w3.org/1999/02/22-rdf-syntax-ns#"
   xmlns:svg="http://www.w3.org/2000/svg"
   xmlns="http://www.w3.org/2000/svg"
   xmlns:sodipodi="http://sodipodi.sourceforge.net/DTD/sodipodi-0.dtd"
   xmlns:inkscape="http://www.inkscape.org/namespaces/inkscape"
   inkscape:version="1.0 (4035a4fb49, 2020-05-01)"
   sodipodi:docname="custom_v2_middle_plate_usb.svg"
   id="svg7276"
   version="1.1"
   height="139.17007mm"
   width="124.93475mm"
   viewBox="0 0 472.19432 525.99714">
  <metadata
     id="metadata7280">
    <rdf:RDF>
      <cc:Work
         rdf:about="">
        <dc:format>image/svg+xml</dc:format>
        <dc:type
           rdf:resource="http://purl.org/dc/dcmitype/StillImage" />
        <dc:title></dc:title>
      </cc:Work>
    </rdf:RDF>
  </metadata>
  <sodipodi:namedview
     units="mm"
     inkscape:current-layer="g25373"
     inkscape:cy="66.696111"
     inkscape:cx="214.40395"
     inkscape:zoom="0.70710678"
     showgrid="false"
     id="namedview7278"
     inkscape:window-height="480"
     inkscape:window-width="640"
     inkscape:pageshadow="2"
     inkscape:pageopacity="0"
     guidetolerance="10"
     gridtolerance="10"
     objecttolerance="10"
     borderopacity="1"
     bordercolor="#666666"
     pagecolor="#ffffff"
     inkscape:document-rotation="0" />
  <defs
     id="defs14">
    <marker
       style="overflow:visible"
       refY="0"
       refX="0"
       orient="auto"
       id="DistanceX">
      <path
         id="path2"
         style="stroke:#000000;stroke-width:0.5"
         d="M 3,-3 -3,3 M 0,-5 V 5" />
    </marker>
    <pattern
       y="0"
       x="0"
       height="8"
       width="8"
       patternUnits="userSpaceOnUse"
       id="Hatch">
      <path
         id="path5"
         linecap="square"
         stroke-width="0.25"
         stroke="#000000"
         d="M8 4 l-4,4" />
      <path
         id="path7"
         linecap="square"
         stroke-width="0.25"
         stroke="#000000"
         d="M6 2 l-4,4" />
      <path
         id="path9"
         linecap="square"
         stroke-width="0.25"
         stroke="#000000"
         d="M4 0 l-4,4" />
    </pattern>
    <symbol
       id="*Model_Space" />
    <symbol
       id="*Paper_Space" />
  </defs>
  <g
     transform="translate(-113.38563,-95.905077)"
     id="g16"
     inkscape:label="0"
     inkscape:groupmode="layer" />
  <g
     transform="translate(-113.38563,-95.905077)"
     id="g7272"
     inkscape:label="bottom_plate"
     inkscape:groupmode="layer">
    <g
       transform="translate(-1133.8635,-17.48028)"
       id="g25373">
      <g
         transform="matrix(1.0000028,0,0,1,1133.6585,-0.20112711)"
         id="g25353"
         style="stroke:#808080;stroke-width:0.756;stroke-miterlimit:4;stroke-dasharray:none;stroke-opacity:1" />
      <path
         id="path25355"
         style="fill:none;stroke:#0000ff;stroke-width:0.769545;stroke-linecap:round;stroke-miterlimit:4;stroke-dasharray:none;stroke-opacity:1"
         d="m 1281.5716,155.131 v 0.26241 m 0.017,-0.5245 -0.013,0.26209 m 0.036,-0.52358 -0.023,0.26149 m 0.054,-0.52206 -0.031,0.26057 m 0.072,-0.51993 -0.04,0.25936 m 0.089,-0.51718 -0.049,0.25782 m 0.107,-0.51382 -0.058,0.256 m 0.1245,-0.50988 -0.067,0.25388 m 0.1419,-0.50535 -0.075,0.25147 m 0.1592,-0.50022 -0.084,0.24875 m 0.1762,-0.49451 -0.092,0.24576 m 0.193,-0.48822 -0.1007,0.24246 m 0.2096,-0.48135 -0.1089,0.23889 m 0.2259,-0.47394 -0.117,0.23505 m 0.242,-0.46597 -0.125,0.23092 m 0.2578,-0.45746 -0.1328,0.22654 m 0.2733,-0.44841 -0.1405,0.22187 m 0.2885,-0.43883 -0.148,0.21696 m 0.3033,-0.42875 -0.1553,0.21179 m 0.3178,-0.41817 -0.1625,0.20638 m 0.332,-0.4071 -0.1695,0.20072 m 0.3457,-0.39555 -0.1762,0.19483 m 0.359,-0.38355 -0.1828,0.18872 m 0.3719,-0.3711 -0.1891,0.18238 m 0.3844,-0.35821 -0.1953,0.17583 m 0.3965,-0.34491 -0.2012,0.16908 m 0.408,-0.3312 -0.2068,0.16212 m 0.4191,-0.3171 -0.2123,0.15498 m 0.4297,-0.30264 -0.2174,0.14766 m 0.4398,-0.28784 -0.2224,0.14018 m 0.4494,-0.27268 -0.227,0.1325 m 0.4585,-0.25721 -0.2315,0.12471 m 0.4671,-0.24146 -0.2356,0.11675 m 0.475,-0.22539 -0.2394,0.10864 m 0.4824,-0.20908 -0.243,0.10046 m 0.4893,-0.19256 -0.2463,0.0921 m 0.4956,-0.17577 -0.2493,0.0837 m 0.5013,-0.15879 -0.252,0.0751 m 0.5065,-0.14161 -0.2545,0.0665 m 0.5111,-0.12427 -0.2566,0.0578 m 0.515,-0.10676 -0.2584,0.049 m 0.5183,-0.0892 -0.2599,0.0402 m 0.5211,-0.0715 -0.2612,0.0313 m 0.5232,-0.0537 -0.262,0.0224 m 0.5247,-0.0358 -0.2627,0.0134 m 0.5257,-0.0179 -0.263,0.004 m 388.4036,-0.004 -310.554,-7e-5 v -33.93638 c 113.3224,3.3e-4 213.2564,-7e-5 324.5858,2.6e-4 15.2494,0 27.6115,12.36031 27.6115,27.60756 v 3e-4 l -3e-4,470.00711 c 0,15.24937 -12.3603,27.61143 -27.6076,27.61143 l -416.2054,-3.2e-4 c -15.2495,0 -27.6115,-12.36033 -27.6115,-27.60756 l 2e-4,-470.00829 c 0,-15.24937 12.3604,-27.61142 27.6077,-27.61142 l 34.9266,9.3e-4 v 33.93638 l -20.8936,1e-5 m 388.4036,0.004 -0.263,-0.004 m 0.5257,0.0175 -0.2627,-0.0134 m 0.5248,0.0358 -0.2621,-0.0224 m 0.5232,0.0537 -0.2611,-0.0313 m 0.5211,0.0715 -0.26,-0.0402 m 0.5184,0.0892 -0.2584,-0.049 m 0.515,0.10678 -0.2566,-0.0577 m 0.511,0.12423 -0.2544,-0.0665 m 0.5064,0.14161 -0.252,-0.0751 m 0.5013,0.15879 -0.2493,-0.0837 m 0.4957,0.17578 -0.2464,-0.0921 m 0.4894,0.19255 -0.243,-0.10045 m 0.4824,0.2091 -0.2394,-0.10865 m 0.475,0.22539 -0.2356,-0.11674 m 0.467,0.24145 -0.2314,-0.12471 m 0.4584,0.25722 -0.227,-0.13251 m 0.4494,0.27268 -0.2224,-0.14017 m 0.4399,0.28783 -0.2175,-0.14766 m 0.4297,0.30264 -0.2122,-0.15498 m 0.4191,0.31711 -0.2069,-0.16213 m 0.408,0.33121 -0.2011,-0.16908 m 0.3964,0.34491 -0.1953,-0.17583 m 0.3844,0.35821 -0.1891,-0.18238 m 0.3719,0.37109 -0.1828,-0.18871 m 0.3591,0.38354 -0.1763,-0.19483 m 0.3457,0.39556 -0.1694,-0.20073 m 0.3319,0.4071 -0.1625,-0.20637 m 0.3178,0.41817 -0.1553,-0.2118 m 0.3033,0.42875 -0.148,-0.21695 m 0.2885,0.43883 -0.1405,-0.22188 m 0.2733,0.44841 -0.1328,-0.22653 m 0.2578,0.45745 -0.125,-0.23092 m 0.242,0.46597 -0.117,-0.23505 m 0.2259,0.47394 -0.1089,-0.23889 m 0.2096,0.48135 -0.1007,-0.24246 m 0.193,0.48822 -0.092,-0.24576 m 0.1762,0.49451 -0.084,-0.24875 m 0.1592,0.50022 -0.075,-0.25147 m 0.1419,0.50535 -0.067,-0.25388 m 0.1245,0.50988 -0.058,-0.256 m 0.107,0.51383 -0.049,-0.25783 m 0.089,0.51719 -0.04,-0.25936 m 0.072,0.51993 -0.031,-0.26057 m 0.054,0.52205 -0.022,-0.26148 m 0.036,0.52357 -0.013,-0.26209 m 0.018,0.5245 v -0.26241 m 0,442.24764 V 155.39341 m 0,442.24763 v -0.2624 m -0.018,0.52451 0.014,-0.26211 m -0.036,0.52359 0.022,-0.26148 m -0.054,0.52205 0.031,-0.26057 m -0.072,0.51992 0.04,-0.25935 m -0.089,0.51717 0.049,-0.25782 m -0.107,0.51383 0.058,-0.25601 m -0.1245,0.5099 0.067,-0.25389 m -0.1419,0.50534 0.075,-0.25145 m -0.1591,0.50021 0.084,-0.24876 m -0.1761,0.49451 0.092,-0.24575 m -0.193,0.48822 0.1007,-0.24247 m -0.2096,0.48136 0.1089,-0.23889 m -0.2259,0.47394 0.117,-0.23505 m -0.242,0.46597 0.125,-0.23092 m -0.2578,0.45745 0.1328,-0.22653 m -0.2733,0.44841 0.1405,-0.22188 m -0.2885,0.43884 0.148,-0.21696 m -0.3033,0.42876 0.1553,-0.2118 m -0.3178,0.41817 0.1625,-0.20637 m -0.3319,0.40709 0.1694,-0.20072 m -0.3457,0.39556 0.1763,-0.19484 m -0.3591,0.38355 0.1828,-0.18871 m -0.3719,0.37109 0.1891,-0.18238 m -0.3844,0.35821 0.1953,-0.17583 m -0.3964,0.3449 0.2011,-0.16907 m -0.408,0.33119 0.2069,-0.16212 m -0.4191,0.31711 0.2122,-0.15499 m -0.4297,0.30266 0.2175,-0.14767 m -0.4399,0.28783 0.2224,-0.14016 m -0.4494,0.27268 0.227,-0.13252 m -0.4584,0.25721 0.2314,-0.12469 m -0.467,0.24144 0.2356,-0.11675 m -0.475,0.2254 0.2394,-0.10865 m -0.4825,0.20909 0.2431,-0.10046 m -0.4894,0.19255 0.2463,-0.0921 m -0.4956,0.17577 0.2493,-0.0837 m -0.5013,0.15879 0.252,-0.0751 m -0.5065,0.14163 0.2545,-0.0665 m -0.511,0.12427 0.2565,-0.0577 m -0.5149,0.10675 0.2584,-0.049 m -0.5184,0.0892 0.26,-0.0402 m -0.5211,0.0715 0.2611,-0.0313 m -0.5232,0.0537 0.2621,-0.0224 m -0.5248,0.0358 0.2627,-0.0134 m -0.5257,0.0179 0.263,-0.004 m -388.4036,0.004 h 388.1406 m -388.4036,-0.004 0.263,0.004 m -0.5257,-0.0175 0.2627,0.0134 m -0.5247,-0.0358 0.262,0.0224 m -0.5232,-0.0537 0.2612,0.0313 m -0.5211,-0.0715 0.2599,0.0402 m -0.5183,-0.0892 0.2584,0.049 m -0.515,-0.10678 0.2566,0.0578 m -0.5111,-0.12424 0.2545,0.0665 m -0.5065,-0.1416 0.252,0.0751 m -0.5013,-0.15879 0.2493,0.0837 m -0.4956,-0.17577 0.2463,0.0921 m -0.4893,-0.19256 0.243,0.10046 m -0.4825,-0.20911 0.2395,0.10865 m -0.475,-0.2254 0.2355,0.11675 m -0.467,-0.24145 0.2315,0.1247 m -0.4585,-0.25721 0.227,0.13251 m -0.4494,-0.27268 0.2224,0.14017 m -0.4398,-0.28783 0.2174,0.14766 m -0.4297,-0.30265 0.2123,0.15499 m -0.4191,-0.31711 0.2068,0.16212 m -0.408,-0.33119 0.2012,0.16907 m -0.3965,-0.3449 0.1953,0.17583 m -0.3844,-0.35821 0.1891,0.18238 m -0.3719,-0.3711 0.1828,0.18872 m -0.359,-0.38355 0.1762,0.19483 m -0.3457,-0.39555 0.1695,0.20072 m -0.332,-0.4071 0.1625,0.20638 m -0.3178,-0.41817 0.1553,0.21179 m -0.3033,-0.42875 0.148,0.21696 m -0.2885,-0.43884 0.1405,0.22188 m -0.2733,-0.44841 0.1328,0.22653 m -0.2578,-0.45745 0.125,0.23092 m -0.242,-0.46597 0.117,0.23505 m -0.2259,-0.47394 0.1089,0.23889 m -0.2095,-0.48136 0.1006,0.24247 m -0.1929,-0.48823 0.092,0.24576 m -0.1762,-0.49451 0.084,0.24875 m -0.1592,-0.50021 0.075,0.25146 m -0.142,-0.50535 0.067,0.25389 m -0.1246,-0.50989 0.058,0.256 m -0.107,-0.51382 0.049,0.25782 m -0.089,-0.51717 0.04,0.25935 m -0.072,-0.51992 0.031,0.26057 m -0.054,-0.52206 0.023,0.26149 m -0.036,-0.52359 0.013,0.2621 m -0.018,-0.5245 v 0.2624 m 0,-442.24763 v 441.98523"
         sodipodi:nodetypes="ccccccccccccccccccccccccccccccccccccccccccccccccccccccccccccccccccccccccccccccccccccccccccccccccccccccccccccccccccccccccccccccccccccccccccccccccccccccccccccccccccccccccccccccccccccccccccccccccccccccccccccccccccccccccccccccccccccccccccccccccccccccccccccccccccccccccccccccccccccccccccccccccccccccccccccccccccccccccccccccccccccccccccccccccccccccccccccccccccccccccccccccccccccccccccccccccccccc" />
      <path
         id="path25359"
         style="fill:none;stroke:#0000ff;stroke-width:0.755906;stroke-miterlimit:4;stroke-dasharray:none;stroke-opacity:1"
         d="m 1278.43,137.28641 0.01,-0.2623 m -0.019,0.5244 0.014,-0.2621 m -0.036,0.5235 0.023,-0.2614 m -0.055,0.5219 0.032,-0.2605 m -0.073,0.5196 0.041,-0.2591 m -0.091,0.5168 0.05,-0.2577 m -0.1085,0.5134 0.059,-0.2557 m -0.1262,0.5093 0.068,-0.2536 m -0.1439,0.5046 0.076,-0.251 m -0.1613,0.4993 0.085,-0.2483 m -0.1785,0.4934 0.094,-0.2451 m -0.1955,0.4869 0.102,-0.2418 m -0.2123,0.4798 0.1103,-0.238 m -0.2289,0.4722 0.1186,-0.2342 m -0.2451,0.464 0.1265,-0.2298 m -0.261,0.455 0.1345,-0.2252 m -0.2767,0.4458 0.1422,-0.2206 m -0.292,0.4361 0.1498,-0.2155 m -0.3069,0.4256 0.1571,-0.2101 m -0.3215,0.4146 0.1644,-0.2045 m -0.3358,0.4032 0.1714,-0.1987 m -0.3495,0.3914 0.1781,-0.1927 m -0.3629,0.379 0.1848,-0.1863 m -0.3758,0.3661 0.191,-0.1798 m -0.3882,0.3529 0.1972,-0.1731 m -0.4004,0.3392 0.2032,-0.1661 m -0.4119,0.3251 0.2087,-0.159 m -0.4228,0.3106 0.2141,-0.1516 m -0.4334,0.2957 0.2193,-0.1441 m -0.4434,0.2806 0.2241,-0.1365 m -0.4529,0.2651 0.2288,-0.1286 m -0.4618,0.249 0.233,-0.1204 m -0.4701,0.2329 0.2371,-0.1125 m -0.478,0.2165 0.2409,-0.104 m -0.4852,0.1997 0.2443,-0.096 m -0.4918,0.1831 0.2475,-0.087 m -0.4979,0.1655 0.2504,-0.078 m -0.5034,0.1477 0.253,-0.07 m -0.5082,0.1309 0.2552,-0.061 m -0.5124,0.113 0.2572,-0.052 m -0.516,0.095 0.2588,-0.043 m -0.519,0.077 0.2602,-0.034 m -0.5214,0.059 0.2612,-0.025 m -0.5231,0.041 0.2619,-0.016 m -0.5242,0.023 0.2623,-0.01 m -0.5247,0.01 h 0.2624 m -0.5245,-0.011 0.2621,0.011 m -0.5237,-0.032 0.2616,0.021 m -0.5223,-0.051 0.2607,0.03 m -0.5202,-0.069 0.2595,0.039 m -0.5176,-0.087 0.2581,0.048 m -0.5143,-0.1044 0.2562,0.056 m -0.5103,-0.1214 0.2541,0.065 m -0.5058,-0.1391 0.2517,0.074 m -0.5007,-0.1568 0.249,0.083 m -0.495,-0.1744 0.246,0.091 m -0.4886,-0.1908 0.2426,0.1 m -0.4816,-0.2083 0.239,0.1083 m -0.4742,-0.2248 0.2352,0.1165 m -0.4661,-0.2411 0.2309,0.1246 m -0.4574,-0.257 0.2265,0.1324 m -0.4482,-0.2727 0.2217,0.1403 m -0.4385,-0.2883 0.2168,0.148 m -0.4282,-0.3034 0.2114,0.1554 m -0.4174,-0.3178 0.206,0.1624 m -0.4062,-0.3321 0.2002,0.1697 m -0.3943,-0.3462 0.1941,0.1765 m -0.3821,-0.3596 0.188,0.1831 m -0.3694,-0.3726 0.1814,0.1895 m -0.3562,-0.3852 0.1748,0.1957 m -0.3427,-0.3973 0.1679,0.2016 m -0.3287,-0.409 0.1608,0.2074 m -0.3143,-0.4202 0.1535,0.2128 m -0.2995,-0.4308 0.146,0.218 m -0.2844,-0.441 0.1384,0.223 m -0.2689,-0.4506 0.1305,0.2276 m -0.2531,-0.4596 0.1226,0.232 m -0.237,-0.4681 0.1144,0.2361 m -0.2206,-0.4761 0.1062,0.24 m -0.2039,-0.4835 0.098,0.2435 m -0.1871,-0.4902 0.089,0.2467 m -0.17,-0.4964 0.081,0.2497 m -0.1525,-0.502 0.072,0.2523 m -0.135,-0.507 0.063,0.2547 m -0.1174,-0.5115 0.054,0.2568 m -0.1,-0.5152 0.045,0.2584 m -0.082,-0.5183 0.036,0.2599 m -0.064,-0.5208 0.027,0.2609 m -0.045,-0.5227 0.018,0.2618 m -0.027,-0.524 0.01,0.2622 m -0.01,-0.5246 v 0.2624 m 0.01,-0.5246 -0.01,0.2622 m 0.027,-0.524 -0.018,0.2618 m 0.045,-0.5227 -0.027,0.2609 m 0.064,-0.5208 -0.036,0.2599 m 0.082,-0.5183 -0.045,0.2584 m 0.1,-0.5152 -0.054,0.2568 m 0.1174,-0.5114 -0.063,0.2546 m 0.1351,-0.507 -0.072,0.2524 m 0.1525,-0.5021 -0.081,0.2497 m 0.1699,-0.4964 -0.089,0.2467 m 0.1871,-0.4902 -0.098,0.2435 m 0.2039,-0.4835 -0.1061,0.24 m 0.2206,-0.4761 -0.1145,0.2361 m 0.237,-0.4681 -0.1225,0.232 m 0.2531,-0.4596 -0.1306,0.2276 m 0.2689,-0.4506 -0.1383,0.223 m 0.2843,-0.441 -0.146,0.218 m 0.2995,-0.4308 -0.1535,0.2128 m 0.3143,-0.4202 -0.1608,0.2074 m 0.3287,-0.409 -0.1679,0.2016 m 0.3427,-0.3973 -0.1748,0.1957 m 0.3563,-0.3852 -0.1815,0.1895 m 0.3694,-0.3726 -0.1879,0.1831 m 0.3821,-0.3596 -0.1942,0.1765 m 0.3944,-0.3462 -0.2002,0.1697 m 0.4061,-0.3321 -0.2059,0.1624 m 0.4174,-0.3178 -0.2115,0.1554 m 0.4282,-0.3033 -0.2167,0.1479 m 0.4385,-0.2883 -0.2218,0.1404 m 0.4482,-0.2728 -0.2264,0.1324 m 0.4574,-0.257 -0.231,0.1246 m 0.4661,-0.2411 -0.2351,0.1165 m 0.4741,-0.2248 -0.239,0.1083 m 0.4816,-0.2081 -0.2426,0.1 m 0.4886,-0.1914 -0.246,0.091 m 0.495,-0.1738 -0.249,0.083 m 0.5007,-0.1571 -0.2517,0.074 m 0.5058,-0.1394 -0.2541,0.065 m 0.5103,-0.1214 -0.2562,0.056 m 0.5143,-0.1036 -0.2581,0.048 m 0.5176,-0.087 -0.2595,0.039 m 0.5203,-0.069 -0.2608,0.03 m 0.5223,-0.05 -0.2615,0.02 m 0.5237,-0.031 -0.2622,0.011 m 0.5246,-0.013 h -0.2624 m 0.5247,0.01 -0.2623,-0.01 m 0.5242,0.026 -0.2619,-0.016 m 0.5231,0.041 -0.2612,-0.025 m 0.5213,0.059 -0.2601,-0.034 m 0.519,0.077 -0.2589,-0.043 m 0.516,0.095 -0.2571,-0.052 m 0.5124,0.1129 -0.2553,-0.061 m 0.5082,0.1307 -0.2529,-0.07 m 0.5033,0.1485 -0.2504,-0.078 m 0.4979,0.1651 -0.2475,-0.087 m 0.4918,0.1827 -0.2443,-0.096 m 0.4852,0.2 -0.2409,-0.104 m 0.478,0.2165 -0.2371,-0.1125 m 0.4702,0.2329 -0.2331,-0.1204 m 0.4618,0.2491 -0.2287,-0.1287 m 0.4528,0.2651 -0.2241,-0.1364 m 0.4434,0.2805 -0.2193,-0.1441 m 0.4334,0.2957 -0.2141,-0.1516 m 0.4229,0.3106 -0.2088,-0.159 m 0.4119,0.3251 -0.2031,-0.1661 m 0.4003,0.3392 -0.1972,-0.1731 m 0.3883,0.3529 -0.1911,-0.1798 m 0.3758,0.3662 -0.1847,-0.1864 m 0.3629,0.379 -0.1782,-0.1926 m 0.3495,0.3913 -0.1713,-0.1987 m 0.3357,0.4032 -0.1644,-0.2045 m 0.3215,0.4146 -0.1571,-0.2101 m 0.3069,0.4256 -0.1498,-0.2155 m 0.292,0.4361 -0.1422,-0.2206 m 0.2767,0.4458 -0.1345,-0.2252 m 0.2611,0.455 -0.1266,-0.2298 m 0.2451,0.464 -0.1185,-0.2342 m 0.2288,0.4722 -0.1103,-0.238 m 0.2123,0.4798 -0.102,-0.2418 m 0.1955,0.4869 -0.093,-0.2451 m 0.1785,0.4934 -0.085,-0.2483 m 0.1613,0.4993 -0.076,-0.251 m 0.1439,0.5046 -0.068,-0.2536 m 0.1262,0.5093 -0.059,-0.2557 m 0.1085,0.5134 -0.05,-0.2577 m 0.091,0.5168 -0.041,-0.2591 m 0.073,0.5196 -0.032,-0.2605 m 0.055,0.5219 -0.023,-0.2614 m 0.036,0.5235 -0.014,-0.2621 m 0.018,0.5244 v -0.2623" />
      <path
         d="m 1703.3501,137.28641 0.01,-0.2623 m -0.019,0.5244 0.014,-0.2621 m -0.036,0.5235 0.023,-0.2614 m -0.055,0.5219 0.032,-0.2605 m -0.073,0.5196 0.041,-0.2591 m -0.091,0.5168 0.05,-0.2577 m -0.1085,0.5134 0.059,-0.2557 m -0.1262,0.5093 0.068,-0.2536 m -0.1439,0.5046 0.076,-0.251 m -0.1613,0.4993 0.085,-0.2483 m -0.1785,0.4934 0.094,-0.2451 m -0.1955,0.4869 0.102,-0.2418 m -0.2123,0.4798 0.1103,-0.238 m -0.2289,0.4722 0.1186,-0.2342 m -0.2451,0.464 0.1265,-0.2298 m -0.261,0.455 0.1345,-0.2252 m -0.2767,0.4458 0.1422,-0.2206 m -0.292,0.4361 0.1498,-0.2155 m -0.3069,0.4256 0.1571,-0.2101 m -0.3215,0.4146 0.1644,-0.2045 m -0.3358,0.4032 0.1714,-0.1987 m -0.3495,0.3914 0.1781,-0.1927 m -0.3629,0.379 0.1848,-0.1863 m -0.3758,0.3661 0.191,-0.1798 m -0.3882,0.3529 0.1972,-0.1731 m -0.4004,0.3392 0.2032,-0.1661 m -0.4119,0.3251 0.2087,-0.159 m -0.4228,0.3106 0.214,-0.1516 m -0.4333,0.2957 0.2193,-0.1441 m -0.4435,0.2806 0.2241,-0.1365 m -0.4529,0.2651 0.2288,-0.1286 m -0.4618,0.249 0.233,-0.1204 m -0.4701,0.2329 0.2371,-0.1125 m -0.478,0.2165 0.2409,-0.104 m -0.4852,0.1997 0.2443,-0.096 m -0.4918,0.1831 0.2475,-0.087 m -0.4979,0.1655 0.2504,-0.078 m -0.5034,0.1477 0.253,-0.07 m -0.5082,0.1309 0.2552,-0.061 m -0.5124,0.113 0.2572,-0.052 m -0.516,0.095 0.2588,-0.043 m -0.519,0.077 0.2602,-0.034 m -0.5214,0.059 0.2612,-0.025 m -0.5231,0.041 0.2619,-0.016 m -0.5242,0.023 0.2623,-0.01 m -0.5247,0.01 h 0.2624 m -0.5245,-0.011 0.2621,0.011 m -0.5237,-0.032 0.2616,0.021 m -0.5223,-0.051 0.2607,0.03 m -0.5202,-0.069 0.2595,0.039 m -0.5176,-0.087 0.2581,0.048 m -0.5143,-0.1044 0.2562,0.056 m -0.5103,-0.1214 0.2541,0.065 m -0.5058,-0.1391 0.2517,0.074 m -0.5007,-0.1568 0.249,0.083 m -0.495,-0.1744 0.246,0.091 m -0.4886,-0.1908 0.2426,0.1 m -0.4816,-0.2083 0.239,0.1083 m -0.4742,-0.2248 0.2352,0.1165 m -0.4661,-0.2411 0.2309,0.1246 m -0.4574,-0.257 0.2265,0.1324 m -0.4482,-0.2727 0.2217,0.1403 m -0.4385,-0.2883 0.2168,0.148 m -0.4282,-0.3034 0.2114,0.1554 m -0.4174,-0.3178 0.206,0.1624 m -0.4062,-0.3321 0.2002,0.1697 m -0.3943,-0.3462 0.1941,0.1765 m -0.3821,-0.3596 0.188,0.1831 m -0.3694,-0.3726 0.1814,0.1895 m -0.3562,-0.3852 0.1748,0.1957 m -0.3427,-0.3973 0.1679,0.2016 m -0.3287,-0.409 0.1608,0.2074 m -0.3143,-0.4202 0.1535,0.2128 m -0.2995,-0.4308 0.146,0.218 m -0.2844,-0.441 0.1384,0.223 m -0.2689,-0.4506 0.1305,0.2276 m -0.2531,-0.4596 0.1226,0.232 m -0.237,-0.4681 0.1144,0.2361 m -0.2206,-0.4761 0.1062,0.24 m -0.2039,-0.4835 0.098,0.2435 m -0.1871,-0.4902 0.089,0.2467 m -0.17,-0.4964 0.081,0.2497 m -0.1525,-0.502 0.072,0.2523 m -0.135,-0.507 0.063,0.2547 m -0.1174,-0.5115 0.054,0.2568 m -0.1,-0.5152 0.045,0.2584 m -0.082,-0.5183 0.036,0.2599 m -0.064,-0.5208 0.027,0.2609 m -0.045,-0.5227 0.018,0.2618 m -0.027,-0.524 0.01,0.2622 m -0.01,-0.5246 v 0.2624 m 0.01,-0.5246 -0.01,0.2622 m 0.027,-0.524 -0.018,0.2618 m 0.045,-0.5227 -0.027,0.2609 m 0.064,-0.5208 -0.036,0.2599 m 0.082,-0.5183 -0.045,0.2584 m 0.1,-0.5152 -0.054,0.2568 m 0.1174,-0.5114 -0.063,0.2546 m 0.1351,-0.507 -0.072,0.2524 m 0.1525,-0.5021 -0.081,0.2497 m 0.1699,-0.4964 -0.089,0.2467 m 0.1871,-0.4902 -0.098,0.2435 m 0.2039,-0.4835 -0.1061,0.24 m 0.2206,-0.4761 -0.1145,0.2361 m 0.237,-0.4681 -0.1225,0.232 m 0.2531,-0.4596 -0.1306,0.2276 m 0.2689,-0.4506 -0.1383,0.223 m 0.2843,-0.441 -0.146,0.218 m 0.2995,-0.4308 -0.1535,0.2128 m 0.3143,-0.4202 -0.1608,0.2074 m 0.3287,-0.409 -0.1679,0.2016 m 0.3427,-0.3973 -0.1748,0.1957 m 0.3563,-0.3852 -0.1815,0.1895 m 0.3694,-0.3726 -0.1879,0.1831 m 0.3821,-0.3596 -0.1942,0.1765 m 0.3944,-0.3462 -0.2002,0.1697 m 0.4061,-0.3321 -0.2059,0.1624 m 0.4174,-0.3178 -0.2115,0.1554 m 0.4282,-0.3033 -0.2167,0.1479 m 0.4385,-0.2883 -0.2218,0.1404 m 0.4482,-0.2728 -0.2264,0.1324 m 0.4574,-0.257 -0.231,0.1246 m 0.4662,-0.2411 -0.2352,0.1165 m 0.4741,-0.2248 -0.239,0.1083 m 0.4816,-0.2081 -0.2426,0.1 m 0.4886,-0.1914 -0.246,0.091 m 0.495,-0.1738 -0.249,0.083 m 0.5007,-0.1571 -0.2517,0.074 m 0.5058,-0.1394 -0.2541,0.065 m 0.5103,-0.1214 -0.2562,0.056 m 0.5143,-0.1036 -0.2581,0.048 m 0.5176,-0.087 -0.2595,0.039 m 0.5203,-0.069 -0.2608,0.03 m 0.5223,-0.05 -0.2615,0.02 m 0.5237,-0.031 -0.2622,0.011 m 0.5246,-0.013 h -0.2624 m 0.5247,0.01 -0.2623,-0.01 m 0.5242,0.026 -0.2619,-0.016 m 0.5231,0.041 -0.2612,-0.025 m 0.5213,0.059 -0.2601,-0.034 m 0.519,0.077 -0.2589,-0.043 m 0.516,0.095 -0.2571,-0.052 m 0.5124,0.1129 -0.2553,-0.061 m 0.5082,0.1307 -0.2529,-0.07 m 0.5033,0.1485 -0.2504,-0.078 m 0.4979,0.1651 -0.2475,-0.087 m 0.4918,0.1827 -0.2443,-0.096 m 0.4852,0.2 -0.2409,-0.104 m 0.478,0.2165 -0.2371,-0.1125 m 0.4702,0.2329 -0.2331,-0.1204 m 0.4618,0.2491 -0.2286,-0.1287 m 0.4528,0.2651 -0.2241,-0.1364 m 0.4434,0.2805 -0.2193,-0.1441 m 0.4334,0.2957 -0.2141,-0.1516 m 0.4229,0.3106 -0.2088,-0.159 m 0.4119,0.3251 -0.2031,-0.1661 m 0.4003,0.3392 -0.1972,-0.1731 m 0.3883,0.3529 -0.1911,-0.1798 m 0.3758,0.3662 -0.1847,-0.1864 m 0.3629,0.379 -0.1782,-0.1926 m 0.3495,0.3913 -0.1713,-0.1987 m 0.3357,0.4032 -0.1644,-0.2045 m 0.3215,0.4146 -0.1571,-0.2101 m 0.3069,0.4256 -0.1498,-0.2155 m 0.292,0.4361 -0.1422,-0.2206 m 0.2767,0.4458 -0.1345,-0.2252 m 0.2611,0.455 -0.1266,-0.2298 m 0.2451,0.464 -0.1185,-0.2342 m 0.2288,0.4722 -0.1103,-0.238 m 0.2123,0.4798 -0.102,-0.2418 m 0.1955,0.4869 -0.093,-0.2451 m 0.1785,0.4934 -0.085,-0.2483 m 0.1613,0.4993 -0.076,-0.251 m 0.1439,0.5046 -0.068,-0.2536 m 0.1262,0.5093 -0.059,-0.2557 m 0.1085,0.5134 -0.05,-0.2577 m 0.091,0.5168 -0.041,-0.2591 m 0.073,0.5196 -0.032,-0.2605 m 0.055,0.5219 -0.023,-0.2614 m 0.036,0.5235 -0.014,-0.2621 m 0.018,0.5244 v -0.2623"
         style="fill:none;stroke:#0000ff;stroke-width:0.755906;stroke-miterlimit:4;stroke-dasharray:none;stroke-opacity:1"
         id="path25363" />
      <path
         id="path25367"
         style="fill:none;stroke:#0000ff;stroke-width:0.755906;stroke-miterlimit:4;stroke-dasharray:none;stroke-opacity:1"
         d="m 1703.3501,616.0049 0.01,-0.2623 m -0.019,0.5244 0.014,-0.2621 m -0.036,0.5235 0.023,-0.2614 m -0.055,0.5219 0.032,-0.2605 m -0.073,0.5196 0.041,-0.2591 m -0.091,0.5168 0.05,-0.2577 m -0.1085,0.5134 0.059,-0.2557 m -0.1262,0.5093 0.068,-0.2536 m -0.1439,0.5046 0.076,-0.251 m -0.1613,0.4993 0.085,-0.2483 m -0.1785,0.4934 0.094,-0.2451 m -0.1955,0.4869 0.102,-0.2418 m -0.2123,0.4798 0.1103,-0.238 m -0.2289,0.4722 0.1186,-0.2342 m -0.2451,0.464 0.1265,-0.2298 m -0.261,0.455 0.1345,-0.2252 m -0.2767,0.4458 0.1422,-0.2206 m -0.292,0.4361 0.1498,-0.2155 m -0.3069,0.4256 0.1571,-0.2101 m -0.3215,0.4146 0.1644,-0.2045 m -0.3358,0.4032 0.1714,-0.1987 m -0.3495,0.3914 0.1781,-0.1927 m -0.3629,0.379 0.1848,-0.1863 m -0.3758,0.3661 0.191,-0.1798 m -0.3882,0.3529 0.1972,-0.1731 m -0.4004,0.3392 0.2032,-0.1661 m -0.4119,0.3251 0.2087,-0.159 m -0.4228,0.3106 0.214,-0.1516 m -0.4333,0.2957 0.2193,-0.1441 m -0.4435,0.2806 0.2241,-0.1365 m -0.4529,0.2651 0.2288,-0.1286 m -0.4618,0.249 0.233,-0.1204 m -0.4701,0.2329 0.2371,-0.1125 m -0.478,0.2165 0.2409,-0.104 m -0.4852,0.1997 0.2443,-0.096 m -0.4918,0.1831 0.2475,-0.087 m -0.4979,0.1655 0.2504,-0.078 m -0.5034,0.1477 0.253,-0.07 m -0.5082,0.1309 0.2552,-0.061 m -0.5124,0.113 0.2572,-0.052 m -0.516,0.095 0.2588,-0.043 m -0.519,0.077 0.2602,-0.034 m -0.5214,0.059 0.2612,-0.025 m -0.5231,0.041 0.2619,-0.016 m -0.5242,0.023 0.2623,-0.01 m -0.5247,0.01 h 0.2624 m -0.5245,-0.011 0.2621,0.011 m -0.5237,-0.032 0.2616,0.021 m -0.5223,-0.051 0.2607,0.03 m -0.5202,-0.069 0.2595,0.039 m -0.5176,-0.087 0.2581,0.048 m -0.5143,-0.1044 0.2562,0.056 m -0.5103,-0.1214 0.2541,0.065 m -0.5058,-0.1391 0.2517,0.074 m -0.5007,-0.1568 0.249,0.083 m -0.495,-0.1744 0.246,0.091 m -0.4886,-0.1908 0.2426,0.1 m -0.4816,-0.2083 0.239,0.1083 m -0.4742,-0.2248 0.2352,0.1165 m -0.4661,-0.2411 0.2309,0.1246 m -0.4574,-0.257 0.2265,0.1324 m -0.4482,-0.2727 0.2217,0.1403 m -0.4385,-0.2883 0.2168,0.148 m -0.4282,-0.3034 0.2114,0.1554 m -0.4174,-0.3178 0.206,0.1624 m -0.4062,-0.3321 0.2002,0.1697 m -0.3943,-0.3462 0.1941,0.1765 m -0.3821,-0.3596 0.188,0.1831 m -0.3694,-0.3726 0.1814,0.1895 m -0.3562,-0.3852 0.1748,0.1957 m -0.3427,-0.3973 0.1679,0.2016 m -0.3287,-0.409 0.1608,0.2074 m -0.3143,-0.4202 0.1535,0.2128 m -0.2995,-0.4308 0.146,0.218 m -0.2844,-0.441 0.1384,0.223 m -0.2689,-0.4506 0.1305,0.2276 m -0.2531,-0.4596 0.1226,0.232 m -0.237,-0.4681 0.1144,0.2361 m -0.2206,-0.4761 0.1062,0.24 m -0.2039,-0.4835 0.098,0.2435 m -0.1871,-0.4902 0.089,0.2467 m -0.17,-0.4964 0.081,0.2497 m -0.1525,-0.502 0.072,0.2523 m -0.135,-0.507 0.063,0.2547 m -0.1174,-0.5115 0.054,0.2568 m -0.1,-0.5152 0.045,0.2584 m -0.082,-0.5183 0.036,0.2599 m -0.064,-0.5208 0.027,0.2609 m -0.045,-0.5227 0.018,0.2618 m -0.027,-0.524 0.01,0.2622 m -0.01,-0.5246 v 0.2624 m 0.01,-0.5246 -0.01,0.2622 m 0.027,-0.524 -0.018,0.2618 m 0.045,-0.5227 -0.027,0.2609 m 0.064,-0.5208 -0.036,0.2599 m 0.082,-0.5183 -0.045,0.2584 m 0.1,-0.5152 -0.054,0.2568 m 0.1174,-0.5114 -0.063,0.2546 m 0.1351,-0.507 -0.072,0.2524 m 0.1525,-0.5021 -0.081,0.2497 m 0.1699,-0.4964 -0.089,0.2467 m 0.1871,-0.4902 -0.098,0.2435 m 0.2039,-0.4835 -0.1061,0.24 m 0.2206,-0.4761 -0.1145,0.2361 m 0.237,-0.4681 -0.1225,0.232 m 0.2531,-0.4596 -0.1306,0.2276 m 0.2689,-0.4506 -0.1383,0.223 m 0.2843,-0.441 -0.146,0.218 m 0.2995,-0.4308 -0.1535,0.2128 m 0.3143,-0.4202 -0.1608,0.2074 m 0.3287,-0.409 -0.1679,0.2016 m 0.3427,-0.3973 -0.1748,0.1957 m 0.3563,-0.3852 -0.1815,0.1895 m 0.3694,-0.3726 -0.1879,0.1831 m 0.3821,-0.3596 -0.1942,0.1765 m 0.3944,-0.3462 -0.2002,0.1697 m 0.4061,-0.3321 -0.2059,0.1624 m 0.4174,-0.3178 -0.2115,0.1554 m 0.4282,-0.3033 -0.2167,0.1479 m 0.4385,-0.2883 -0.2218,0.1404 m 0.4482,-0.2728 -0.2264,0.1324 m 0.4574,-0.257 -0.231,0.1246 m 0.4662,-0.2411 -0.2352,0.1165 m 0.4741,-0.2248 -0.239,0.1083 m 0.4816,-0.2081 -0.2426,0.1 m 0.4886,-0.1914 -0.246,0.091 m 0.495,-0.1738 -0.249,0.083 m 0.5007,-0.1571 -0.2517,0.074 m 0.5058,-0.1394 -0.2541,0.065 m 0.5103,-0.1214 -0.2562,0.056 m 0.5143,-0.1036 -0.2581,0.048 m 0.5176,-0.087 -0.2595,0.039 m 0.5203,-0.069 -0.2608,0.03 m 0.5223,-0.05 -0.2615,0.02 m 0.5237,-0.031 -0.2622,0.011 m 0.5246,-0.013 h -0.2624 m 0.5247,0.01 -0.2623,-0.01 m 0.5242,0.026 -0.2619,-0.016 m 0.5231,0.041 -0.2612,-0.025 m 0.5213,0.059 -0.2601,-0.034 m 0.519,0.077 -0.2589,-0.043 m 0.516,0.095 -0.2571,-0.052 m 0.5124,0.1129 -0.2553,-0.061 m 0.5082,0.1307 -0.2529,-0.07 m 0.5033,0.1485 -0.2504,-0.078 m 0.4979,0.1651 -0.2475,-0.087 m 0.4918,0.1827 -0.2443,-0.096 m 0.4852,0.2 -0.2409,-0.104 m 0.478,0.2165 -0.2371,-0.1125 m 0.4702,0.2329 -0.2331,-0.1204 m 0.4618,0.2491 -0.2286,-0.1287 m 0.4528,0.2651 -0.2241,-0.1364 m 0.4434,0.2805 -0.2193,-0.1441 m 0.4334,0.2957 -0.2141,-0.1516 m 0.4229,0.3106 -0.2088,-0.159 m 0.4119,0.3251 -0.2031,-0.1661 m 0.4003,0.3392 -0.1972,-0.1731 m 0.3883,0.3529 -0.1911,-0.1798 m 0.3758,0.3662 -0.1847,-0.1864 m 0.3629,0.379 -0.1782,-0.1926 m 0.3495,0.3913 -0.1713,-0.1987 m 0.3357,0.4032 -0.1644,-0.2045 m 0.3215,0.4146 -0.1571,-0.2101 m 0.3069,0.4256 -0.1498,-0.2155 m 0.292,0.4361 -0.1422,-0.2206 m 0.2767,0.4458 -0.1345,-0.2252 m 0.2611,0.455 -0.1266,-0.2298 m 0.2451,0.464 -0.1185,-0.2342 m 0.2288,0.4722 -0.1103,-0.238 m 0.2123,0.4798 -0.102,-0.2418 m 0.1955,0.4869 -0.093,-0.2451 m 0.1785,0.4934 -0.085,-0.2483 m 0.1613,0.4993 -0.076,-0.251 m 0.1439,0.5046 -0.068,-0.2536 m 0.1262,0.5093 -0.059,-0.2557 m 0.1085,0.5134 -0.05,-0.2577 m 0.091,0.5168 -0.041,-0.2591 m 0.073,0.5196 -0.032,-0.2605 m 0.055,0.5219 -0.023,-0.2614 m 0.036,0.5235 -0.014,-0.2621 m 0.018,0.5244 v -0.2623" />
      <path
         d="m 1278.4301,616.0049 0.01,-0.2623 m -0.019,0.5244 0.014,-0.2621 m -0.036,0.5235 0.023,-0.2614 m -0.055,0.5219 0.032,-0.2605 m -0.073,0.5196 0.041,-0.2591 m -0.091,0.5168 0.05,-0.2577 m -0.1085,0.5134 0.059,-0.2557 m -0.1262,0.5093 0.068,-0.2536 m -0.1439,0.5046 0.076,-0.251 m -0.1613,0.4993 0.085,-0.2483 m -0.1785,0.4934 0.094,-0.2451 m -0.1955,0.4869 0.102,-0.2418 m -0.2123,0.4798 0.1103,-0.238 m -0.2289,0.4722 0.1186,-0.2342 m -0.2451,0.464 0.1265,-0.2298 m -0.261,0.455 0.1345,-0.2252 m -0.2767,0.4458 0.1422,-0.2206 m -0.292,0.4361 0.1498,-0.2155 m -0.3069,0.4256 0.1571,-0.2101 m -0.3215,0.4146 0.1644,-0.2045 m -0.3358,0.4032 0.1714,-0.1987 m -0.3495,0.3914 0.1781,-0.1927 m -0.3629,0.379 0.1848,-0.1863 m -0.3758,0.3661 0.191,-0.1798 m -0.3883,0.3529 0.1973,-0.1731 m -0.4004,0.3392 0.2031,-0.1661 m -0.4119,0.3251 0.2087,-0.159 m -0.4228,0.3106 0.214,-0.1516 m -0.4333,0.2957 0.2193,-0.1441 m -0.4435,0.2806 0.2241,-0.1365 m -0.4529,0.2651 0.2288,-0.1286 m -0.4618,0.249 0.233,-0.1204 m -0.4701,0.2329 0.2371,-0.1125 m -0.478,0.2165 0.2409,-0.104 m -0.4852,0.1997 0.2443,-0.096 m -0.4918,0.1831 0.2475,-0.087 m -0.4979,0.1655 0.2504,-0.078 m -0.5034,0.1477 0.253,-0.07 m -0.5082,0.1309 0.2552,-0.061 m -0.5124,0.113 0.2572,-0.052 m -0.516,0.095 0.2588,-0.043 m -0.519,0.077 0.2602,-0.034 m -0.5214,0.059 0.2612,-0.025 m -0.5231,0.041 0.2619,-0.016 m -0.5242,0.023 0.2623,-0.01 m -0.5247,0.01 h 0.2624 m -0.5245,-0.011 0.2621,0.011 m -0.5237,-0.032 0.2616,0.021 m -0.5223,-0.051 0.2607,0.03 m -0.5202,-0.069 0.2595,0.039 m -0.5176,-0.087 0.2581,0.048 m -0.5143,-0.1044 0.2562,0.056 m -0.5103,-0.1214 0.2541,0.065 m -0.5058,-0.1391 0.2517,0.074 m -0.5007,-0.1568 0.249,0.083 m -0.495,-0.1744 0.246,0.091 m -0.4886,-0.1908 0.2426,0.1 m -0.4816,-0.2083 0.239,0.1083 m -0.4742,-0.2248 0.2352,0.1165 m -0.4661,-0.2411 0.2309,0.1246 m -0.4574,-0.257 0.2265,0.1324 m -0.4482,-0.2727 0.2217,0.1403 m -0.4385,-0.2883 0.2168,0.148 m -0.4282,-0.3034 0.2114,0.1554 m -0.4174,-0.3178 0.206,0.1624 m -0.4062,-0.3321 0.2002,0.1697 m -0.3943,-0.3462 0.1941,0.1765 m -0.3821,-0.3596 0.188,0.1831 m -0.3694,-0.3726 0.1814,0.1895 m -0.3562,-0.3852 0.1748,0.1957 m -0.3427,-0.3973 0.1679,0.2016 m -0.3287,-0.409 0.1608,0.2074 m -0.3143,-0.4202 0.1535,0.2128 m -0.2995,-0.4308 0.146,0.218 m -0.2844,-0.441 0.1384,0.223 m -0.2689,-0.4506 0.1305,0.2276 m -0.2531,-0.4596 0.1226,0.232 m -0.237,-0.4681 0.1144,0.2361 m -0.2206,-0.4761 0.1062,0.24 m -0.2039,-0.4835 0.098,0.2435 m -0.1871,-0.4902 0.089,0.2467 m -0.17,-0.4964 0.081,0.2497 m -0.1525,-0.502 0.072,0.2523 m -0.135,-0.507 0.063,0.2547 m -0.1174,-0.5115 0.054,0.2568 m -0.1,-0.5152 0.045,0.2584 m -0.082,-0.5183 0.036,0.2599 m -0.064,-0.5208 0.027,0.2609 m -0.045,-0.5227 0.018,0.2618 m -0.027,-0.524 0.01,0.2622 m -0.01,-0.5246 v 0.2624 m 0.01,-0.5246 -0.01,0.2622 m 0.027,-0.524 -0.018,0.2618 m 0.045,-0.5227 -0.027,0.2609 m 0.064,-0.5208 -0.036,0.2599 m 0.082,-0.5183 -0.045,0.2584 m 0.1,-0.5152 -0.054,0.2568 m 0.1174,-0.5114 -0.063,0.2546 m 0.1351,-0.507 -0.072,0.2524 m 0.1525,-0.5021 -0.081,0.2497 m 0.1699,-0.4964 -0.089,0.2467 m 0.1871,-0.4902 -0.098,0.2435 m 0.2039,-0.4835 -0.1061,0.24 m 0.2206,-0.4761 -0.1145,0.2361 m 0.237,-0.4681 -0.1225,0.232 m 0.2531,-0.4596 -0.1306,0.2276 m 0.2689,-0.4506 -0.1383,0.223 m 0.2843,-0.441 -0.146,0.218 m 0.2995,-0.4308 -0.1535,0.2128 m 0.3143,-0.4202 -0.1608,0.2074 m 0.3287,-0.409 -0.1679,0.2016 m 0.3427,-0.3973 -0.1748,0.1957 m 0.3563,-0.3852 -0.1815,0.1895 m 0.3694,-0.3726 -0.1879,0.1831 m 0.3821,-0.3596 -0.1942,0.1765 m 0.3944,-0.3462 -0.2002,0.1697 m 0.4061,-0.3321 -0.2059,0.1624 m 0.4174,-0.3178 -0.2115,0.1554 m 0.4282,-0.3033 -0.2167,0.1479 m 0.4385,-0.2883 -0.2218,0.1404 m 0.4482,-0.2728 -0.2264,0.1324 m 0.4574,-0.257 -0.231,0.1246 m 0.4662,-0.2411 -0.2352,0.1165 m 0.4741,-0.2248 -0.239,0.1083 m 0.4816,-0.2081 -0.2426,0.1 m 0.4886,-0.1914 -0.246,0.091 m 0.495,-0.1738 -0.249,0.083 m 0.5007,-0.1571 -0.2517,0.074 m 0.5058,-0.1394 -0.2541,0.065 m 0.5103,-0.1214 -0.2562,0.056 m 0.5143,-0.1036 -0.2581,0.048 m 0.5176,-0.087 -0.2595,0.039 m 0.5203,-0.069 -0.2608,0.03 m 0.5223,-0.05 -0.2615,0.02 m 0.5237,-0.031 -0.2622,0.011 m 0.5246,-0.013 h -0.2624 m 0.5247,0.01 -0.2623,-0.01 m 0.5242,0.026 -0.2619,-0.016 m 0.5231,0.041 -0.2612,-0.025 m 0.5213,0.059 -0.2601,-0.034 m 0.519,0.077 -0.2589,-0.043 m 0.516,0.095 -0.2571,-0.052 m 0.5124,0.1129 -0.2553,-0.061 m 0.5082,0.1307 -0.2529,-0.07 m 0.5033,0.1485 -0.2504,-0.078 m 0.4979,0.1651 -0.2475,-0.087 m 0.4918,0.1827 -0.2443,-0.096 m 0.4852,0.2 -0.2409,-0.104 m 0.478,0.2165 -0.2371,-0.1125 m 0.4702,0.2329 -0.2331,-0.1204 m 0.4618,0.2491 -0.2286,-0.1287 m 0.4528,0.2651 -0.2241,-0.1364 m 0.4434,0.2805 -0.2192,-0.1441 m 0.4333,0.2957 -0.2141,-0.1516 m 0.423,0.3106 -0.2089,-0.159 m 0.4119,0.3251 -0.203,-0.1661 m 0.4003,0.3392 -0.1973,-0.1731 m 0.3884,0.3529 -0.1911,-0.1798 m 0.3758,0.3662 -0.1847,-0.1864 m 0.3629,0.379 -0.1782,-0.1926 m 0.3495,0.3913 -0.1713,-0.1987 m 0.3357,0.4032 -0.1644,-0.2045 m 0.3215,0.4146 -0.1571,-0.2101 m 0.3069,0.4256 -0.1498,-0.2155 m 0.292,0.4361 -0.1422,-0.2206 m 0.2767,0.4458 -0.1345,-0.2252 m 0.2611,0.455 -0.1266,-0.2298 m 0.2451,0.464 -0.1185,-0.2342 m 0.2288,0.4722 -0.1103,-0.238 m 0.2123,0.4798 -0.102,-0.2418 m 0.1955,0.4869 -0.093,-0.2451 m 0.1785,0.4934 -0.085,-0.2483 m 0.1613,0.4993 -0.076,-0.251 m 0.1439,0.5046 -0.068,-0.2536 m 0.1262,0.5093 -0.059,-0.2557 m 0.1085,0.5134 -0.05,-0.2577 m 0.091,0.5168 -0.041,-0.2591 m 0.073,0.5196 -0.032,-0.2605 m 0.055,0.5219 -0.023,-0.2614 m 0.036,0.5235 -0.014,-0.2621 m 0.018,0.5244 v -0.2623"
         style="fill:none;stroke:#0000ff;stroke-width:0.755906;stroke-miterlimit:4;stroke-dasharray:none;stroke-opacity:1"
         id="path25371" />
    </g>
    <g
       transform="matrix(1.1904161,0,0,1.1842076,1023.0428,-243.80304)"
       id="g1235"
       style="stroke:#0000ff;stroke-width:0.636735;stroke-miterlimit:4;stroke-dasharray:none;stroke-opacity:1" />
  </g>
  <desc
     id="desc7274">bottom_plate.dxf - scale = 1.000000, origin = (0.000000, 0.000000), method = file</desc>
</svg>
